<svg xmlns="http://www.w3.org/2000/svg" width="362.733" height="512" viewBox="0 0 362.733 512">
  <g id="layer1" transform="translate(-193.633 -276.362)">
    <g id="g3013" transform="translate(119 276.362)">
      <path id="Soustraction_1" data-name="Soustraction 1" d="M1579.778-414.62h0l-148.134-41.123L1398.633-826h362.733l-33.045,370.2L1579.778-414.62Zm-99.369-175.667,6.362,71.3,93.02,25.824.209-.059v-.007l92.937-25.757.683-7.673,10.671-119.551L1685.4-658.4l8.2-91.913H1466.132l4.127,45.411h173.571l-4.132,46.5H1474.31l4.071,45.41h157.38l-5.27,58.894-50.648,13.67v0l-.041.011-50.575-13.657-3.233-36.217Z" transform="translate(-1324 926.62)" fill="#264de4"/>
      <path id="path2999" d="M160,0h55V23H183V46h32V69H160Z"/>
      <path id="path3001" d="M226,0h55V20H249v4h32V70H226V49h32V45H226Z"/>
      <path id="path3003" d="M292,0h55V20H315v4h32V70H292V49h32V45H292Z"/>
    </g>
  </g>
</svg>
