<svg xmlns="http://www.w3.org/2000/svg" width="216" height="155" viewBox="0 0 216 155"><g fill="#0091e2"><path d="M213.512 58.5c-.6-.5-6-4.6-17.6-4.6a55.94 55.94 0 0 0-9.1.8c-2.2-15.3-14.9-22.7-15.4-23.1l-3.1-1.8-2 2.9a42.761 42.761 0 0 0-5.5 12.8 30.387 30.387 0 0 0 3.6 23.9c-5.3 3-13.9 3.7-15.7 3.8h-142a6.7 6.7 0 0 0-6.7 6.7 101.189 101.189 0 0 0 6.2 36.5c4.9 12.8 12.2 22.3 21.6 28.1 10.6 6.5 27.9 10.2 47.4 10.2a145.358 145.358 0 0 0 26.293-2.4 108.541 108.541 0 0 0 34.407-12.5 94.157 94.157 0 0 0 23.4-19.2c11.3-12.7 18-26.9 22.9-39.5h2c12.3 0 19.9-4.9 24.1-9.1a26.633 26.633 0 0 0 6.4-9.4l.9-2.6-2.1-1.5Z"/><path d="M19.912 69.1h19a1.685 1.685 0 0 0 1.7-1.7v-17a1.685 1.685 0 0 0-1.7-1.7h-19a1.685 1.685 0 0 0-1.7 1.7v17a1.75 1.75 0 0 0 1.7 1.7m26.2 0h19a1.685 1.685 0 0 0 1.7-1.7v-17a1.685 1.685 0 0 0-1.7-1.7h-19a1.685 1.685 0 0 0-1.7 1.7v17a1.75 1.75 0 0 0 1.7 1.7m26.7 0h19a1.685 1.685 0 0 0 1.7-1.7v-17a1.685 1.685 0 0 0-1.7-1.7h-19a1.685 1.685 0 0 0-1.7 1.7v17a1.628 1.628 0 0 0 1.7 1.7m26.3 0h19a1.685 1.685 0 0 0 1.7-1.7v-17a1.685 1.685 0 0 0-1.7-1.7h-19a1.685 1.685 0 0 0-1.7 1.7v17a1.685 1.685 0 0 0 1.7 1.7m-53-24.3h19a1.752 1.752 0 0 0 1.7-1.7v-17a1.685 1.685 0 0 0-1.7-1.7h-19a1.685 1.685 0 0 0-1.7 1.7v17a1.828 1.828 0 0 0 1.7 1.7m26.7 0h19a1.752 1.752 0 0 0 1.7-1.7v-17a1.685 1.685 0 0 0-1.7-1.7h-19a1.685 1.685 0 0 0-1.7 1.7v17a1.685 1.685 0 0 0 1.7 1.7m26.3 0h19a1.752 1.752 0 0 0 1.7-1.7v-17a1.752 1.752 0 0 0-1.7-1.7h-19a1.685 1.685 0 0 0-1.7 1.7v17a1.752 1.752 0 0 0 1.7 1.7m0-24.4h19a1.685 1.685 0 0 0 1.7-1.7v-17a1.752 1.752 0 0 0-1.7-1.7h-19a1.685 1.685 0 0 0-1.7 1.7v17a1.752 1.752 0 0 0 1.7 1.7m26.5 48.7h19a1.685 1.685 0 0 0 1.7-1.7v-17a1.685 1.685 0 0 0-1.7-1.7h-19a1.685 1.685 0 0 0-1.7 1.7v17a1.75 1.75 0 0 0 1.7 1.7"/></g></svg>