<svg xmlns="http://www.w3.org/2000/svg" width="362.8" height="512" viewBox="0 0 362.8 512">
  <g id="htmlDark" transform="translate(-74.6)">
    <path id="Tracé_2" data-name="Tracé 2" d="M108.4,0h23V22.8h21.2V0h23V69h-23V46h-21V69H108.4M206,23H185.7V0h63.7V23H229V69H206M259.5,0h24.1l14.8,24.3L313.2,0h24.1V69h-23V34.8L298.2,59.6,282.1,34.8V69H259.5M348.7,0h23V46.2h32.6V69H348.7"/>
    <path id="Soustraction_2" data-name="Soustraction 2" d="M1429.7-503.6h0l-148.1-41-33-370.4h362.8l-33,370.2-148.7,41.2Zm-99.3-175.7,6.4,71.3,93.2,26v-.256L1522.8-608l12.5-139.4H1370l-4.2-46.5h173.6l4.2-45.4H1316l12.4,137.2h101.4v.1h56l-5.3,59-50.6,13.573L1379.2-643l-3.2-36.3Z" transform="translate(-1174 1015.6)" fill="#e44d26"/>
  </g>
</svg>
