<svg xmlns="http://www.w3.org/2000/svg" width="630" height="630.001" viewBox="0 0 630 630.001">
  <g id="javascriptDark" transform="translate(0 0)">
    <path id="Tracé_1" d="M1925-1088H1295v-630h630v630ZM1718.2-1225.81h0l-48.11,27.95a107.948,107.948,0,0,0,16.457,23.946,105.28,105.28,0,0,0,23.383,19.2,115.871,115.871,0,0,0,30.433,12.762,147.527,147.527,0,0,0,37.607,4.63,135.308,135.308,0,0,0,39.05-5.4,92.122,92.122,0,0,0,31.086-15.867,72.1,72.1,0,0,0,20.543-25.861,82.615,82.615,0,0,0,7.421-35.376,108.3,108.3,0,0,0-1.318-17.306,81.4,81.4,0,0,0-3.9-15.049,72.116,72.116,0,0,0-15.264-24.6c-6.411-6.883-14.489-13.22-24.7-19.37a272.651,272.651,0,0,0-33.517-16.679l-14.8-6.339c-7.2-3.12-12.263-5.513-16.4-7.76a57.544,57.544,0,0,1-11.322-7.68,25.632,25.632,0,0,1-6.559-8.948,28.99,28.99,0,0,1-2.116-11.563,25.41,25.41,0,0,1,1.988-10.026,23.4,23.4,0,0,1,5.674-8.047,26.134,26.134,0,0,1,8.926-5.353,34.415,34.415,0,0,1,11.742-1.943,44.84,44.84,0,0,1,11.7,1.4,33.16,33.16,0,0,1,9.921,4.455,40.642,40.642,0,0,1,8.636,7.868,73.585,73.585,0,0,1,7.845,11.642l46.1-29.6c-9.617-16.916-21.163-28.876-35.3-36.562-13.411-7.292-29.407-10.837-48.9-10.837a104.524,104.524,0,0,0-35.852,5.975,80.035,80.035,0,0,0-27.325,16.475,72.149,72.149,0,0,0-17.412,24.8,78.7,78.7,0,0,0-6.112,30.95,105.669,105.669,0,0,0,1.3,16.925,82.687,82.687,0,0,0,3.8,14.787,73.582,73.582,0,0,0,6.131,12.894,76.113,76.113,0,0,0,8.3,11.244,102.239,102.239,0,0,0,22.438,18.513,207.165,207.165,0,0,0,29.132,14.838l14.8,6.35c12.971,5.673,24.169,10.572,31.675,16.466a30.3,30.3,0,0,1,8.488,9.79,27.623,27.623,0,0,1,2.937,13.044,24.942,24.942,0,0,1-2.832,11.709,27.363,27.363,0,0,1-8.07,9.243,39.407,39.407,0,0,1-12.669,6.067,60.3,60.3,0,0,1-16.63,2.18,68.625,68.625,0,0,1-19.659-2.7,56.636,56.636,0,0,1-15.732-7.5,66.433,66.433,0,0,1-12.637-11.386,105.111,105.111,0,0,1-10.372-14.358Zm-209.13,5.13h0l-48.19,29.175a101.57,101.57,0,0,0,13.1,20.913,87.786,87.786,0,0,0,18.765,17.2c15.662,10.589,34.821,15.958,56.945,15.958a114.091,114.091,0,0,0,35.944-5.317,74.612,74.612,0,0,0,27.928-16.3,72.428,72.428,0,0,0,18.092-27.789,98.06,98.06,0,0,0,4.789-18.366,133.343,133.343,0,0,0,1.647-21.433v-202.1h-59.2v201.3a64.2,64.2,0,0,1-2.221,18.3,26.672,26.672,0,0,1-6.345,11.4c-5.026,5.119-12.383,7.5-23.153,7.5a34.1,34.1,0,0,1-13.226-2.437,31.911,31.911,0,0,1-9.964-6.6,56.759,56.759,0,0,1-7.894-9.694c-2.454-3.681-4.812-7.807-7.017-11.719Z" transform="translate(-1295 1718)" fill="#f7df1e"/>
  </g>
</svg>
