<svg xmlns="http://www.w3.org/2000/svg" width="455.314" height="242.035" viewBox="0 0 455.314 242.035"><path d="M1420.5-1705.28c0-67.1,100.649-119.82,227.657-119.82s227.658,55.117,227.658,122.216-103.045,119.819-227.658,119.819S1420.5-1638.182,1420.5-1705.28Zm275.585,67.1h23.964l9.586-31.153H1753.6c26.36,2.4,47.928-14.378,55.117-38.343,7.189-35.946-11.982-50.324-33.549-50.324h-55.117Zm-206.09,0h26.361l7.188-31.153h23.964c23.964,2.4,47.928-14.378,55.117-38.343,9.586-35.946-11.982-50.324-33.549-50.324h-55.117Zm177.333-100.648c14.378,0,9.585,14.378,7.189,21.568-2.4,19.171-9.586,47.928-9.586,47.928h26.36s7.189-33.549,11.983-62.306S1672.121-1758,1672.121-1758h-28.757l7.189-31.153h-26.36l-23.964,119.82h23.964l16.774-69.5Zm64.7,50.324,9.586-50.324h26.36c9.586,0,14.378,7.189,14.378,16.774-2.4,33.55-28.757,33.55-28.757,33.55Zm-206.089,0,9.586-50.324h28.757c7.189,0,14.378,9.585,11.982,16.774,0,33.55-28.757,33.55-28.757,33.55Z" transform="translate(-1420.5 1825.1)" fill="#8993be"/></svg>