<svg xmlns="http://www.w3.org/2000/svg" width="512" height="512" viewBox="0 0 512 512">
  <g id="typescript" transform="translate(0 0)">
    <path id="Tracé_1" data-name="Tracé 1" d="M1786-538H1374a49.688,49.688,0,0,1-19.463-3.929,49.834,49.834,0,0,1-15.893-10.715,49.836,49.836,0,0,1-10.715-15.893A49.685,49.685,0,0,1,1324-588v-412a49.687,49.687,0,0,1,3.929-19.462,49.838,49.838,0,0,1,10.715-15.893,49.839,49.839,0,0,1,15.893-10.715A49.688,49.688,0,0,1,1374-1050h412a49.688,49.688,0,0,1,19.463,3.929,49.838,49.838,0,0,1,15.893,10.715,49.837,49.837,0,0,1,10.715,15.893A49.688,49.688,0,0,1,1836-1000v412a49.686,49.686,0,0,1-3.929,19.462,49.834,49.834,0,0,1-10.715,15.893,49.832,49.832,0,0,1-15.893,10.715A49.688,49.688,0,0,1,1786-538ZM1641-643h0l-1.9.439c.6.5,1.243,1.023,1.9,1.544V-593c7.823,4.057,17.581,7.22,29,9.4a171.063,171.063,0,0,0,17.125,2.337c5.8.506,11.814.762,17.875.762a164.2,164.2,0,0,0,34-3.4,86.613,86.613,0,0,0,28-11c9.173-6,15.387-12.871,19-21a83.649,83.649,0,0,0,5.05-14.5,73.216,73.216,0,0,0,2.05-17.5,75.624,75.624,0,0,0-1.037-12.788A59.156,59.156,0,0,0,1789-671.9a50.716,50.716,0,0,0-4.988-9.75A45.53,45.53,0,0,0,1777-689.9a79,79,0,0,0-18-14,222.768,222.768,0,0,0-24-12c-4.095-1.675-7.771-3.331-11.326-4.933-2.16-.973-4.393-1.979-6.674-2.968a77.225,77.225,0,0,1-13-7.8,35.928,35.928,0,0,1-8.5-8.4,17.485,17.485,0,0,1-3-10,16.846,16.846,0,0,1,2.7-9.3,23.4,23.4,0,0,1,7.5-7.1,38.807,38.807,0,0,1,12-4.6,70.159,70.159,0,0,1,16-1.6,92.032,92.032,0,0,1,13,.94,107.415,107.415,0,0,1,14,2.9,110.867,110.867,0,0,1,14,4.9,65.971,65.971,0,0,1,12,6.9v-47a123.547,123.547,0,0,0-25-6.5,201.617,201.617,0,0,0-31-2.1,151.513,151.513,0,0,0-34,3.8,85.333,85.333,0,0,0-15.125,4.875,75.043,75.043,0,0,0-12.875,7.125,55.918,55.918,0,0,0-10.662,9.15,63.384,63.384,0,0,0-8.337,11.85,51.794,51.794,0,0,0-5.263,13.65,70.907,70.907,0,0,0-1.737,16.35,64.921,64.921,0,0,0,3.238,20.875,50.773,50.773,0,0,0,9.762,17.125,68.812,68.812,0,0,0,16.35,14.625,173.95,173.95,0,0,0,22.65,12.375c5.991,2.431,11.4,4.87,16.622,7.228l2.378,1.072a85.679,85.679,0,0,1,15,8.4,36.544,36.544,0,0,1,10,9.5,19.8,19.8,0,0,1,3.8,12,18.668,18.668,0,0,1-2.3,9,19.741,19.741,0,0,1-7.1,7.2,40.549,40.549,0,0,1-12,4.8,73.511,73.511,0,0,1-17,1.7,94.335,94.335,0,0,1-16.375-1.425,86.434,86.434,0,0,1-15.626-4.276,94.514,94.514,0,0,1-14.7-6.525,96.748,96.748,0,0,1-13.4-8.931V-643ZM1442-807v41h64v183h51V-766h64v-41Z" transform="translate(-1324 1050)" fill="#3178c6"/>
  </g>
</svg>
