<svg xmlns="http://www.w3.org/2000/svg" viewBox="0 0 165.413 158.131" width="20" height="20"><g fill-rule="evenodd"><path d="M37.65 158.131V51.44H2.076v106.691zM19.832 36.876c12.4 0 20.049-8.212 20.049-18.438S32.196 0 20.05 0 0 7.964 0 18.438s7.685 18.438 19.584 18.438zM57.172 158.131h35.45V98.542a24.326 24.326 0 011.178-8.646 19.4 19.4 0 0118.221-12.984c12.829 0 17.973 9.792 17.973 24.14v57.08h35.419V96.961c0-32.785-17.477-48.031-40.811-48.031a35.264 35.264 0 00-32.2 17.973h.217V51.409H57.172c.465 10.009 0 106.691 0 106.691z"/></g></svg>