<svg viewBox="0 0 129 141" xmlns="http://www.w3.org/2000/svg" xml:space="preserve" style="fill-rule:evenodd;clip-rule:evenodd;stroke-linejoin:round;stroke-miterlimit:2"><path d="m128.451 84.309-.007.036c-1.93 9.925-17.278 20.786-34.907 22.891-9.193 1.098-18.243 2.105-27.894 1.663-15.784-.723-28.238-3.768-28.238-3.768 0 1.537.095 3 .284 4.368 2.052 15.576 15.446 16.51 28.133 16.945 12.805.438 24.206-3.158 24.206-3.158l.527 11.578s-8.957 4.809-24.912 5.693c-8.799.484-19.723-.221-32.448-3.588C5.599 129.664.853 100.248.127 70.4-.095 61.538.042 53.181.042 46.193c0-30.522 19.997-39.468 19.997-39.468C30.122 2.094 47.424.147 65.411 0h.442c17.987.147 35.3 2.094 45.383 6.725 0 0 9.911 4.434 15.779 17.71-1.687-.391-3.481-.587-5.384-.587-7.494 0-13.167 2.879-16.918 8.639l-3.647 6.114-3.648-6.114c-3.75-5.76-9.424-8.639-16.917-8.639-6.475 0-11.692 2.276-15.676 6.716-3.863 4.441-5.786 10.443-5.786 17.996v36.956H73.68v-35.87c0-7.562 3.182-11.399 9.546-11.399 7.035 0 10.562 4.553 10.562 13.555v19.633h14.555V51.802c0-9.002 3.527-13.555 10.562-13.555 6.364 0 9.546 3.837 9.546 11.399v34.663ZM27.726 38.795a8.044 8.044 0 1 1 16.088 0 8.044 8.044 0 0 1-16.088 0Z"/></svg>
