<svg xmlns="http://www.w3.org/2000/svg" viewBox="0 0 250 203.14"><path d="M78.62 203.14C173 203.14 224.56 125 224.56 57.2c0-2.22 0-4.43-.15-6.63A104.36 104.36 0 00250 24a102.24 102.24 0 01-29.46 8.07 51.46 51.46 0 0022.55-28.35 103 103 0 01-32.57 12.45A51.34 51.34 0 00123.11 63 145.63 145.63 0 0117.4 9.36a51.33 51.33 0 0015.88 68.47A51 51 0 0110 71.41v.65a51.32 51.32 0 0041.15 50.28 51.2 51.2 0 01-23.16.88 51.36 51.36 0 0047.92 35.62 103 103 0 01-63.7 22A106 106 0 010 180.1a145.22 145.22 0 0078.62 23"/></svg>