<svg width="1511" height="399" viewBox="0 0 1511 399" fill="none" xmlns="http://www.w3.org/2000/svg">
<path d="M387.503 145.416C387.503 144.013 388.648 142.86 390.058 142.86H450.514C467.855 142.86 482.976 146.624 495.876 154.139C508.763 161.667 518.635 171.71 525.476 184.308C532.317 196.893 535.738 210.797 535.738 225.993C535.738 241.189 532.317 255.121 525.476 267.789C518.635 280.456 508.763 290.513 495.876 297.958C482.99 305.403 467.869 309.126 450.514 309.126H390.058C388.648 309.126 387.503 307.987 387.503 306.57V145.416ZM446.953 276.831C457.453 276.831 466.403 274.498 473.802 269.83C481.202 265.163 486.731 258.954 490.403 251.19C494.061 243.439 495.89 235.035 495.89 226.021C495.89 216.992 494.061 208.602 490.403 200.852C486.745 193.101 481.216 186.878 473.802 182.211C466.403 177.544 457.453 175.21 446.953 175.21H428.733C427.323 175.21 426.164 176.349 426.164 177.766V274.317C426.164 275.72 427.309 276.873 428.733 276.873H446.953V276.831Z" fill="#0E353D"/>
<path d="M699.589 298.319C688.531 288.443 682.722 274.803 682.206 257.385C682.164 255.94 683.309 254.732 684.775 254.732H718.354C719.708 254.732 720.839 255.787 720.909 257.135C721.314 265.01 723.715 271.261 728.127 275.873C732.986 280.942 739.618 283.47 748.065 283.47C755.227 283.47 760.756 281.887 764.652 278.72C768.547 275.553 770.502 271.039 770.502 265.177C770.502 260.107 769.036 256.037 766.09 252.954C763.144 249.87 757.852 246.814 750.215 243.814L720.127 232.174C708.985 228.063 700.552 222.159 694.827 214.478C689.103 206.797 686.227 197.574 686.227 186.809C686.227 177.155 688.656 168.64 693.501 161.278C698.36 153.917 705.271 148.222 714.277 144.18C723.254 140.138 733.726 138.124 745.663 138.124C757.755 138.124 768.422 140.304 777.651 144.652C786.88 149.013 794.042 155.139 799.138 163.056C803.788 170.307 806.329 178.669 806.72 188.156C806.776 189.614 805.617 190.837 804.151 190.837H770.586C769.231 190.837 768.115 189.781 768.031 188.434C767.654 181.85 765.685 176.71 762.125 173.03C758.146 168.918 752.421 166.848 744.937 166.848C738.724 166.848 733.838 168.307 730.249 171.238C726.661 174.169 724.874 178.169 724.874 183.239C724.874 187.837 726.619 191.754 730.124 194.99C733.628 198.24 739.506 201.518 747.786 204.852L775.473 215.77C786.935 220.201 795.41 226.298 800.898 234.063C806.385 241.828 809.135 251.329 809.135 262.566C809.135 272.858 806.594 281.887 801.498 289.638C796.402 297.402 789.239 303.375 780.01 307.57C770.781 311.765 760.03 313.862 747.786 313.862C727.275 313.876 711.205 308.695 699.589 298.319Z" fill="#0E353D"/>
<path d="M828.577 142.874H862.128C863.538 142.874 864.697 144.013 864.697 145.43V207.547C864.697 208.95 865.842 210.103 867.266 210.103H919.917C921.328 210.103 922.472 208.964 922.472 207.547V144.152C922.472 142.749 923.617 141.596 925.041 141.596H958.593C960.003 141.596 961.148 142.735 961.148 144.152V306.584C961.148 307.987 960.003 309.14 958.593 309.14H925.041C923.631 309.14 922.472 308.001 922.472 306.584V245.648C922.472 244.245 921.328 243.092 919.917 243.092H867.266C865.856 243.092 864.697 244.231 864.697 245.648V306.57C864.697 307.973 863.552 309.126 862.128 309.126H828.577C827.167 309.126 826.008 307.987 826.008 306.57V145.416C826.022 144.013 827.167 142.874 828.577 142.874Z" fill="#0E353D"/>
<path d="M981.334 140.318H1014.88C1016.29 140.318 1017.44 141.457 1017.44 142.874V272.372C1017.44 273.775 1018.58 274.928 1020.01 274.928H1076.96C1078.37 274.928 1079.53 276.067 1079.53 277.484V306.584C1079.53 307.987 1078.38 309.126 1076.96 309.126H981.334C979.924 309.126 978.765 307.987 978.765 306.584V142.874C978.779 141.471 979.924 140.318 981.334 140.318Z" fill="#0E353D"/>
<path d="M1259.22 142.874H1294.76C1295.71 142.874 1296.57 143.388 1297.02 144.221L1349.49 241.522C1350.74 243.856 1354.3 242.967 1354.3 240.314V145.416C1354.3 144.013 1355.45 142.86 1356.87 142.86H1388.75C1390.16 142.86 1391.32 143.999 1391.32 145.416V306.57C1391.32 307.973 1390.17 309.126 1388.75 309.126H1353.22C1352.27 309.126 1351.4 308.612 1350.95 307.778L1298.48 210.478C1297.23 208.144 1293.67 209.033 1293.67 211.686V306.584C1293.67 307.987 1292.52 309.14 1291.1 309.14H1259.22C1257.81 309.14 1256.65 308.001 1256.65 306.584V145.416C1256.67 144.013 1257.81 142.874 1259.22 142.874Z" fill="#0E353D"/>
<path d="M1410.66 142.874H1507.71C1509.12 142.874 1510.28 144.013 1510.28 145.43V171.21C1510.28 172.613 1509.14 173.766 1507.71 173.766H1449.34C1447.93 173.766 1446.77 174.905 1446.77 176.322V208.964C1446.77 210.367 1447.91 211.519 1449.34 211.519H1507.71C1509.12 211.519 1510.28 212.658 1510.28 214.075V239.133C1510.28 240.536 1509.14 241.675 1507.71 241.675H1449.34C1447.93 241.675 1446.77 242.814 1446.77 244.231V275.706C1446.77 277.109 1447.91 278.248 1449.34 278.248H1507.71C1509.12 278.248 1510.28 279.387 1510.28 280.804V306.584C1510.28 307.987 1509.14 309.14 1507.71 309.14H1410.66C1409.25 309.14 1408.09 308.001 1408.09 306.584V145.416C1408.09 144.013 1409.24 142.874 1410.66 142.874Z" fill="#0E353D"/>
<path d="M679.884 306.653L624.343 144.138C624.077 143.374 623.365 142.874 622.555 142.874H586.338C585.528 142.874 584.816 143.388 584.551 144.152L529.247 306.653C528.828 307.862 529.735 309.126 531.034 309.126H567.293C568.438 309.126 569.444 308.362 569.765 307.265L576.76 282.651H632.371L639.366 307.265C639.673 308.362 640.692 309.126 641.837 309.126H678.097C679.381 309.126 680.303 307.862 679.884 306.653ZM586.24 249.342L602.757 191.281C603.274 189.462 605.871 189.462 606.387 191.281L622.904 249.342C623.351 250.926 622.164 252.482 620.517 252.482H588.628C586.98 252.482 585.793 250.926 586.24 249.342Z" fill="#0E353D"/>
<path d="M1241.78 306.653L1186.25 144.138C1185.99 143.374 1185.27 142.874 1184.46 142.874H1148.25C1147.44 142.874 1146.72 143.388 1146.46 144.152L1091.16 306.653C1090.74 307.862 1091.64 309.126 1092.94 309.126H1129.2C1130.35 309.126 1131.35 308.362 1131.67 307.265L1138.67 282.651H1194.28L1201.27 307.265C1201.58 308.362 1202.6 309.126 1203.75 309.126H1240.01C1241.29 309.126 1242.2 307.862 1241.78 306.653ZM1148.15 249.342L1164.67 191.281C1165.18 189.462 1167.78 189.462 1168.3 191.281L1184.81 249.342C1185.26 250.926 1184.07 252.482 1182.43 252.482H1150.54C1148.89 252.482 1147.7 250.926 1148.15 249.342Z" fill="#0E353D"/>
<path d="M297.996 128.28C297.996 125.807 295.502 123.335 292.003 122.345L250.071 107.021C243.088 104.053 235.1 107.515 235.1 112.468V286.677C235.1 289.15 237.594 292.117 240.088 293.106L283.018 308.431C289.509 310.904 297.996 307.442 297.996 301.995V128.28ZM219.624 67.4057C219.624 64.9259 217.13 62.453 213.632 61.4639L171.706 46.139C164.716 43.1715 156.729 46.6336 156.729 51.5863V157.488C156.729 159.961 159.223 162.929 161.717 163.925L204.647 179.25C211.138 181.729 219.624 178.26 219.624 172.82V67.4057ZM219.624 257.964C219.624 255.491 217.13 253.018 213.632 252.029L171.706 236.704C164.716 233.736 156.729 237.198 156.729 242.151V348.053C156.729 350.526 159.223 353.493 161.717 354.483L204.647 369.807C211.138 372.287 219.624 368.818 219.624 363.371V257.964ZM141.253 279.251C141.253 276.778 138.759 274.299 135.26 273.309L93.3349 257.985C86.3098 255.017 78.3575 258.479 78.3575 263.432V376.279C78.3575 378.752 80.8513 381.726 83.3452 382.715L126.275 398.04C132.766 400.52 141.253 397.051 141.253 391.611V279.251ZM141.253 22.3576C141.253 19.8847 138.759 17.4118 135.26 16.4227L93.3349 1.09778C86.3098 -1.86968 78.3575 1.59235 78.3575 6.54507V119.392C78.3575 121.872 80.8513 124.839 83.3452 125.828L126.275 141.153C132.766 143.626 141.253 140.164 141.253 134.717V22.3576ZM62.8953 26.8157C62.8953 24.3428 60.4014 21.863 56.9029 20.8738L14.9774 5.54896C7.98749 2.5815 0 6.04354 0 10.9963V372.308C0 374.781 2.49393 377.749 4.99484 378.738L47.9179 394.063C54.409 396.535 62.8953 393.073 62.8953 387.626V26.8157Z" fill="#0E353D"/>
</svg>
