<svg xmlns="http://www.w3.org/2000/svg" viewBox="0 0 112.344 128.933"><path fill="#010101" d="M35.649 117.934L0 96.989V32.131L55.8 0l13.333 7.9v44.418l16.368-16.143 8.845 5.74-22.108 22.334 22.108 23.3-8.845 5.328-16.368-15.566v24.407l-9.746 5.995V13.885L55.8 11.651 10.6 37.966V90.08l25.049 15.338z"/><path fill="#010101" d="M76.694 11l35.649 20.945v64.858l-55.8 32.131-13.333-7.9V76.616L26.842 92.759l-8.845-5.74 22.108-22.334-22.108-23.3 8.845-5.328L43.21 51.623V27.216l9.746-5.995v93.828l3.587 2.234 45.2-26.315V38.854L76.694 23.516z"/></svg>