<svg xmlns="http://www.w3.org/2000/svg" width="112.344" height="128.933" viewBox="0 0 112.344 128.933"><g transform="translate(-392.742 -157.082)"><path d="M113.391,383.016,77.742,362.071V297.213l55.8-32.131,13.333,7.9V317.4l16.368-16.143,8.845,5.74-22.108,22.334,22.108,23.3-8.845,5.328-16.368-15.566V366.8l-9.746,5.995V278.967l-3.587-2.234-45.2,26.315s0,52.114,0,52.114L113.391,370.5Z" transform="translate(315 -108)"/><path d="M113.391,383.016,77.742,362.071V297.213l55.8-32.131,13.333,7.9V317.4l16.368-16.143,8.845,5.74-22.108,22.334,22.108,23.3-8.845,5.328-16.368-15.566V366.8l-9.746,5.995V278.967l-3.587-2.234-45.2,26.315s0,52.114,0,52.114L113.391,370.5Z" transform="translate(582.827 551.098) rotate(180)"/></g></svg>