<svg id="Calque_1" width="100" height="25" data-name="Calque 1" xmlns="http://www.w3.org/2000/svg" xmlns:xlink="http://www.w3.org/1999/xlink" viewBox="0 0 113.27 28.24"><defs><style>.cls-1{fill:none;}.cls-2{clip-path:url(#clip-path);}.cls-3{clip-path:url(#clip-path-2);}.cls-4{fill:#475258;}.cls-5{clip-path:url(#clip-path-3);}.cls-6{clip-path:url(#clip-path-5);}.cls-7{clip-path:url(#clip-path-7);}.cls-8{clip-path:url(#clip-path-9);}.cls-9{clip-path:url(#clip-path-11);}.cls-10{clip-path:url(#clip-path-13);}.cls-11{clip-path:url(#clip-path-15);}.cls-12{clip-path:url(#clip-path-17);}.cls-13{clip-path:url(#clip-path-19);}.cls-14{clip-path:url(#clip-path-20);}.cls-15{fill:#e2061b;}.cls-16{clip-path:url(#clip-path-22);}</style><clipPath id="clip-path"><path class="cls-1" d="M26.6,12.09a13,13,0,0,1,3.34-.44c1.52,0,2.22.4,2.22,1.07a1.63,1.63,0,0,1-.12.53h-.58c-3,0-6.61.9-6.61,3.93,0,1.83,1.3,2.95,3.72,2.95a21.93,21.93,0,0,0,4.78-.44,22.06,22.06,0,0,1,.68-3,20,20,0,0,0,1-4.11c0-1.89-1.27-3.2-4.33-3.2a18.85,18.85,0,0,0-3.43.37Zm4,3.37h.83c-.09.28-.55,1.89-.59,2a6.7,6.7,0,0,1-1.41.16c-1,0-1.27-.51-1.27-.89,0-.73.51-1.27,2.41-1.27Z"/></clipPath><clipPath id="clip-path-2"><rect class="cls-1" x="-214" y="-21.59" width="1680" height="12609"/></clipPath><clipPath id="clip-path-3"><path class="cls-1" d="M46.07,14.78a9.42,9.42,0,0,0,.47-2.29c0-1.71-1.39-3.15-4.67-3.15a23.36,23.36,0,0,0-4.33.58A12.75,12.75,0,0,1,37,13.28c-.16.58-2,6.62-2,6.62h3.23s2.18-7.29,2.31-7.69A3.37,3.37,0,0,1,41.8,12c1,0,1.35.53,1.35,1.14a5.43,5.43,0,0,1-.33,1.6c-.21.65-1.51,5.17-1.51,5.17h3.22Z"/></clipPath><clipPath id="clip-path-5"><polygon class="cls-1" points="49.59 9.56 46.49 19.9 49.72 19.9 52.81 9.56 49.59 9.56"/></clipPath><clipPath id="clip-path-7"><path class="cls-1" d="M61,9.56H59l.71-2.3H56.44l-.7,2.3H54.07L53.3,12.1H55c-.24.82-2.32,7.8-2.32,7.8h3.24l2.31-7.8h2Z"/></clipPath><clipPath id="clip-path-9"><polygon class="cls-1" points="88.46 9.56 85.73 9.56 81.98 16.26 82.08 9.56 78.75 9.56 75.15 16.37 75.1 9.56 71.89 9.56 72.33 19.9 75.7 19.9 79.27 13.53 79.18 19.9 82.53 19.9 89.12 9.56 88.46 9.56"/></clipPath><clipPath id="clip-path-11"><path class="cls-1" d="M94.15,9.34a6.56,6.56,0,0,0-6.35,6.51c0,2.64,1.76,4.28,4.53,4.28a6.55,6.55,0,0,0,6.36-6.58c0-2.4-1.61-4.21-4.54-4.21M93.94,12c1,0,1.45.63,1.45,1.71,0,1.56-1.13,3.77-2.84,3.77-.91,0-1.45-.59-1.45-1.71,0-1.66,1.2-3.77,2.84-3.77"/></clipPath><clipPath id="clip-path-13"><path class="cls-1" d="M66.26,9.34a6.56,6.56,0,0,0-6.35,6.51c0,2.64,1.76,4.28,4.53,4.28a6.55,6.55,0,0,0,6.36-6.58c0-2.4-1.62-4.21-4.54-4.21M66,12c1,0,1.45.63,1.45,1.71,0,1.56-1.12,3.77-2.84,3.77-.91,0-1.45-.59-1.45-1.71C63.13,14.1,64.33,12,66,12"/></clipPath><clipPath id="clip-path-15"><path class="cls-1" d="M109.09,9.89a7.5,7.5,0,0,0-3-.55,6.19,6.19,0,0,0-6.41,6v.36a4.32,4.32,0,0,0,4.15,4.48,4.13,4.13,0,0,0,.5,0,6,6,0,0,0,2.09-.41L107,17a4.37,4.37,0,0,1-1.7.44A2.09,2.09,0,0,1,103,15.63a1.42,1.42,0,0,1,0-.29A3.22,3.22,0,0,1,106,12h.16a3.87,3.87,0,0,1,1.88.51Z"/></clipPath><clipPath id="clip-path-17"><rect class="cls-1" y="-0.22" width="24.5" height="26.45"/></clipPath><clipPath id="clip-path-19"><rect class="cls-1" y="-0.59" width="25" height="27"/></clipPath><clipPath id="clip-path-20"><path class="cls-1" d="M20.35,19.9,23.51,9.06h-.17L17.25,19.9H13.38l.19-10.84h-.16L10.19,19.9H6L10.13,6.09h6.75l-.07,8.16h0L21.1,6.09h3.4a13.23,13.23,0,1,0,0,13.81Z"/></clipPath><clipPath id="clip-path-22"><path class="cls-1" d="M111.6,12.52A1.59,1.59,0,1,1,113.27,11a1.54,1.54,0,0,1-1.53,1.53Zm0-2.86a1.19,1.19,0,0,0-1.33,1.05,1.48,1.48,0,0,0,0,.21,1.25,1.25,0,0,0,1.21,1.29h.16a1.19,1.19,0,0,0,1.28-1.08V11a1.22,1.22,0,0,0-1.09-1.34Zm.83,2.14a.75.75,0,0,1-.54-.18,2,2,0,0,1-.32-.5h-.22v.64h-.43V10h.69c.4,0,.68.19.68.57a.54.54,0,0,1-.31.49,2.34,2.34,0,0,0,.24.31.87.87,0,0,0,.26.16Zm-.84-1.52h-.24v.59h.21c.24,0,.31-.12.31-.31S111.82,10.28,111.59,10.28Z"/></clipPath></defs><title>logo-manitowoc-c</title><g class="cls-2"><g class="cls-3"><rect class="cls-4" x="19.85" y="4.34" width="20.16" height="20.79"/></g></g><g class="cls-5"><g class="cls-3"><rect class="cls-4" x="30" y="4.34" width="21.53" height="20.57"/></g></g><g class="cls-6"><g class="cls-3"><rect class="cls-4" x="41.49" y="4.56" width="16.32" height="20.34"/></g></g><g class="cls-7"><g class="cls-3"><rect class="cls-4" x="47.65" y="2.26" width="18.35" height="22.65"/></g></g><g class="cls-8"><g class="cls-3"><rect class="cls-4" x="66.88" y="4.56" width="27.24" height="20.34"/></g></g><g class="cls-9"><g class="cls-3"><rect class="cls-4" x="82.8" y="4.34" width="20.9" height="20.79"/></g></g><g class="cls-10"><g class="cls-3"><rect class="cls-4" x="54.91" y="4.34" width="20.9" height="20.79"/></g></g><g class="cls-11"><g class="cls-3"><rect class="cls-4" x="94.68" y="4.34" width="19.41" height="20.79"/></g></g><g class="cls-12"><g class="cls-3"><g class="cls-13"><g class="cls-14"><g class="cls-13"><rect class="cls-15" x="-5" y="-5.22" width="34.5" height="36.45"/></g></g></g></g></g><g class="cls-16"><g class="cls-3"><rect class="cls-4" x="104.9" y="4.34" width="13.37" height="13.19"/></g></g></svg>