<svg id="Calque_1" data-name="Calque 1" xmlns="http://www.w3.org/2000/svg" viewBox="0 0 549 166"><defs><style>.cls-1{fill:#3e4b5f}.cls-4{fill:none;stroke:#fff;stroke-linecap:round;stroke-miterlimit:10;stroke-width:4px}</style></defs><path class="cls-1" d="M240 54.09a27.49 27.49 0 0111.18 11.38q4 7.48 4 18v32a6.63 6.63 0 11-13.26 0v-32q0-10.53-5.66-15.92t-15-5.4a22.2 22.2 0 00-9.95 2.21 17.65 17.65 0 00-7 6 14.8 14.8 0 00-2.54 8.45v36.66a6.56 6.56 0 01-1.82 4.75 6.66 6.66 0 01-11.44-4.75v-58a6.38 6.38 0 011.88-4.81 6.6 6.6 0 0111.38 4.81v1.43a28.89 28.89 0 019.88-6.44 32.77 32.77 0 0112.22-2.27 33.11 33.11 0 0116.13 3.9zM335.37 89.38a5.94 5.94 0 01-4.29 1.62h-49.4a22.89 22.89 0 008.25 14.69 26.4 26.4 0 0024.83 4.16 24.24 24.24 0 007-3.51 6.74 6.74 0 014.29-1.43 5.59 5.59 0 013.9 1.3 5.68 5.68 0 012.34 4.42 4.71 4.71 0 01-2.08 3.9 36 36 0 01-11 5.72 39.7 39.7 0 01-31.66-2.41 33.47 33.47 0 01-13.2-12.8 36.39 36.39 0 01-4.75-18.59 38.44 38.44 0 014.49-18.65 32.44 32.44 0 0112.48-12.87 35.63 35.63 0 0118.13-4.61 32.69 32.69 0 0117.3 4.42 29.16 29.16 0 0111.18 12.35 40.72 40.72 0 013.9 18.2 5.45 5.45 0 01-1.71 4.09zM289.29 66.7a23.34 23.34 0 00-7.47 13.91h43.28q-1.17-8.71-6.5-13.91t-13.91-5.2q-9.49 0-15.4 5.2zM409.6 89.38a5.94 5.94 0 01-4.29 1.62h-49.4a22.89 22.89 0 008.25 14.69 26.4 26.4 0 0024.84 4.17 24.24 24.24 0 007-3.51 6.74 6.74 0 014.29-1.43 5.59 5.59 0 013.9 1.3 5.68 5.68 0 012.34 4.42 4.71 4.71 0 01-2.08 3.9 36 36 0 01-11 5.72 39.7 39.7 0 01-31.66-2.41 33.47 33.47 0 01-13.2-12.8 36.39 36.39 0 01-4.75-18.59 38.44 38.44 0 014.49-18.65 32.44 32.44 0 0112.48-12.87 35.63 35.63 0 0118.13-4.61 32.69 32.69 0 0117.29 4.42 29.16 29.16 0 0111.18 12.35 40.72 40.72 0 013.9 18.2 5.45 5.45 0 01-1.71 4.08zM363.52 66.7A23.34 23.34 0 00356 80.61h43.29q-1.17-8.71-6.5-13.91t-13.91-5.2q-9.45 0-15.36 5.2zM458.54 110.77a6.77 6.77 0 011.63 4.68 5.86 5.86 0 01-2.15 4.68 8.24 8.24 0 01-5.52 1.82h-2.34a21.4 21.4 0 01-11.64-3.31 23.08 23.08 0 01-8.25-9 27.34 27.34 0 01-3-12.87V64.62h-6a6.25 6.25 0 01-4.42-1.56 5.09 5.09 0 01-1.69-3.9 5.39 5.39 0 011.72-4.16 6.25 6.25 0 014.42-1.56h6V34.72a6.5 6.5 0 1113 0v18.72h11a6.26 6.26 0 014.45 1.56 5.4 5.4 0 011.69 4.16 5.09 5.09 0 01-1.69 3.9 6.26 6.26 0 01-4.42 1.56h-11v32.11a13.34 13.34 0 002.86 8.71 8.73 8.73 0 007 3.51h4.42a5.12 5.12 0 013.93 1.82zM530.89 56.56a8.19 8.19 0 01-.78 3.12l-39.78 89.44q-1.56 4-5.07 4a8.17 8.17 0 01-3.12-.78q-3.9-1.69-3.9-5.07a6.92 6.92 0 01.78-3.12l13-29.25-29.25-55.48a5.52 5.52 0 01-.65-2.73 5.19 5.19 0 011-3.12 6.85 6.85 0 012.73-2.21 6.34 6.34 0 012.6-.52 5.83 5.83 0 015.46 3.64l23.79 47.32 20.93-47.19q1.69-3.77 5.07-3.77a7.47 7.47 0 013.12.65q4.07 1.51 4.07 5.07z"/><rect class="cls-1" x="14" y="19.07" width="106.62" height="89.41" rx="15" ry="15" opacity=".2"/><rect class="cls-1" x="27.19" y="32.26" width="106.62" height="89.41" rx="15" ry="15" opacity=".55"/><rect class="cls-1" x="40.38" y="45.45" width="106.62" height="89.41" rx="15" ry="15"/><path class="cls-4" d="M93.51 100.39L73.12 83.88M93.68 100.39l20.39-16.51"/></svg>