<svg xmlns="http://www.w3.org/2000/svg" height="233.712" width="673.225" xml:space="preserve" version="1.1" id="svg2"><defs id="defs6"><clipPath id="clipPath18" clipPathUnits="userSpaceOnUse"><path id="path20" d="M0 1869.71V0h5385.83v1869.71H0z"/></clipPath><clipPath id="clipPath28" clipPathUnits="userSpaceOnUse"><path id="path30" d="M.18 767.5c91.398 124.512 190.804 236.62 305.05 336.85 137.774 120.87 292.653 223.47 460.45 302.11 42.05 22.86 86.5 41.81 132.894 56.36 156.896 59.76 323.496 99.9 496.686 117.42 5.36.54 10.71 1.06 16.08 1.56a1573.364 1573.364 0 0066.14 230.68c-111.53 37.13-230.81 57.23-354.82 57.23-190.375 0-369.687-47.39-526.777-131.02-98.688-52.53-188.602-119.38-266.992-197.75C130.176 1342.25 5.59 1069.42.18 767.5z"/></clipPath><clipPath id="clipPath34" clipPathUnits="userSpaceOnUse"><path id="path36" d="M.18 767.5c91.398 124.512 190.804 236.62 305.05 336.85 137.774 120.87 292.653 223.47 460.45 302.11 42.05 22.86 86.5 41.81 132.894 56.36 156.896 59.76 323.496 99.9 496.686 117.42 5.36.54 10.71 1.06 16.08 1.56a1573.364 1573.364 0 0066.14 230.68c-111.53 37.13-230.81 57.23-354.82 57.23-190.375 0-369.687-47.39-526.777-131.02-98.688-52.53-188.602-119.38-266.992-197.75C130.176 1342.25 5.59 1069.42.18 767.5"/></clipPath><clipPath id="clipPath62" clipPathUnits="userSpaceOnUse"><path id="path64" d="M0 1869.71V0h5385.83v1869.71H0z"/></clipPath></defs><g transform="matrix(1.25 0 0 -1.25 0 233.713)" id="g10"><g transform="scale(.1)" id="g12"><g id="g14"><g clip-path="url(#clipPath18)" id="g16"><path id="path22" d="M3540.66 1396.25h-307.18V955.621c63.1-25.492 125.36-52.508 186.75-80.523 40.53-18.496 80.67-37.297 120.44-56.868l-.01 578.02" fill="#f030a2" fill-opacity="1" fill-rule="nonzero" stroke="none"/></g></g><g id="g24"><g clip-path="url(#clipPath28)" id="g26"><g clip-path="url(#clipPath34)" id="g32"><g transform="matrix(10 0 0 -10 -79216 82854)" id="g38" fill="#f9c723" fill-opacity="1" fill-rule="nonzero" stroke="none"><path id="path40" d="M7921.62 8208.65c9.136-12.452 19.078-23.664 30.5-33.69-13.173-22.687 21.834-55.811 29.07-63.432a112.623 112.623 0 00-26.7 19.775c-19.875 19.87-32.331 47.153-32.87 77.347z"/><path id="path42" d="M7952.12 8174.96c13.78-12.083 29.267-22.345 46.046-30.207a10.449 10.449 0 01-.158-2.488c-17.34 7.214-33.422 16.836-47.819 28.298a21.26 21.26 0 001.932 4.398z"/><path id="path44" d="M7998.166 8144.753a74.331 74.331 0 0113.292-5.637c.013-.644.11-1.305.28-1.98a80.051 80.051 0 00-13.73 5.13c-.044.845 0 1.677.158 2.487z"/><path id="path46" d="M8011.458 8139.116c1.025-.394 2.059-.775 3.097-1.152a8.588 8.588 0 01.385-1.857c-1.073.333-2.141.68-3.201 1.03a8.8 8.8 0 00-.28 1.98z"/><path id="path48" d="M8014.555 8137.965a194.442 194.442 0 0146.57-10.59c.535-.054 1.073-.106 1.608-.159a204.288 204.288 0 00-47.793 8.891 8.565 8.565 0 00-.385 1.857z"/><path id="path50" d="M7950.19 8170.563c14.396-11.462 30.478-21.084 47.818-28.298-2.26-15.868 16.442-35.564 22.162-43.01a111.52 111.52 0 00-38.98 12.273c-6.78 7.143-37.947 36.676-31 59.035z"/><path id="path52" d="M7998.008 8142.265a80.051 80.051 0 0113.73-5.128c-1.151-14.12 14.178-31.202 19.513-38.678-3.74.083-7.437.35-11.081.797-5.72 7.445-24.422 27.141-22.162 43.01z"/><path id="path54" d="M8011.739 8137.137c1.06-.35 2.128-.697 3.201-1.03-.884-13.717 13.674-30.194 18.925-37.679-.875 0-1.747.01-2.614.031-5.335 7.476-20.664 24.558-19.512 38.678z"/><path id="path56" d="M8014.94 8136.107a204.288 204.288 0 0147.793-8.89 157.788 157.788 0 016.613-23.069c-11.15-3.71-23.081-5.72-35.48-5.72-5.252 7.485-19.81 23.962-18.926 37.68z"/></g></g></g></g><g id="g58"><g clip-path="url(#clipPath62)" id="g60" fill-opacity="1" fill-rule="nonzero" stroke="none"><path id="path66" d="M1477.48 1812.48c-27.86-75.03-51.55-153.73-67.7-232.24 60.19 5.59 122.75 10 184.38 10.01 3.03 0 5.91-.01 8.94-.02 96.83-.43 192.14-8.05 285.14-22.06-116.47 108.61-256.23 192.87-410.76 244.31" fill="#f9c723"/><path id="path68" d="M705.563 124.191c-131.758 88.5-234.043 217.61-288.719 369.289-44.321-47.921-87.356-111.3-124.785-171.601-39.008-62.828-76.688-126.899-103.547-197.57a1128.895 1128.895 0 0158.527-79.778h613.395C805.48 65.11 753.566 91.95 705.563 124.191" fill="#f57b2a"/><path id="path70" d="M1815.7 461c-24.94-60.199-96.4-167.75-96.4-167.75-85.11-111.59-200.77-198.691-334.39-248.719h613.4c55.78 69.43 103.4 145.797 141.58 227.348-67.27 25.949-132.27 58.762-193.92 96.711-45.34 27.922-88.84 58.289-130.27 92.41" fill="#f57b2a"/><path id="path72" d="M3852.79 1079.71c94.98 0 171.96 76.99 171.96 171.97s-76.98 172-171.96 172c-94.99 0-171.97-77.02-171.97-172s76.98-171.97 171.97-171.97" fill="#f030a2"/><path id="path74" d="M2889.75 238.969c-36.46 30.019-72.29 61.051-106.96 93.07-14.87 9.992-28.31 21.621-40.26 34.91-4.35 4.821-8.42 9.91-12.37 15.16-6.43 6.313-12.84 12.711-19.21 19.09-131.59 131.723-248.39 278.141-347.67 436.742V586.02c0-161.809 41.72-292.981 123.91-390.848 9.89-11.774 20.23-23.16 31.29-33.953 15.3-14.957 31.68-28.68 48.88-41.438 98.57-73.07 228.11-110.18 386.34-110.18 20.89 0 41.25.637 61.12 1.93 56.49 3.66 108.73 12.61 156.76 26.61-98.81 60.41-192.8 127.558-281.83 200.828" fill="#f14633"/><path id="path76" d="M3540.67 935.703z" fill="#ed1930"/><path id="path78" d="M3775.94 544.262c-25 1.566-49.95 3.777-74.85 6.238V50.09h52.85c6.73 0 13.42.262 20.02.789 124.9 9.871 224.03 111.34 230.21 237.25l.25 254.281c-51.35-2.32-102.65-2.68-153.81-1.41-24.92.609-49.82 1.691-74.67 3.262" fill="#b31648"/><path id="path80" d="M2670.46 602.512v336.371c-89.43 64.327-174.33 136.337-253.69 215.167-16.75 16.64-33.26 33.21-49.51 50.49-1.33 1.41-2.65 2.86-3.98 4.28V837.941c104.08-166.281 227.42-319.25 366.88-455.832-39.59 52.563-59.7 126.52-59.7 220.403" fill="#b31648"/><path id="path82" d="M3299.32 629.539c-22.06 6.602-44 13.34-65.84 20.66v-51.371c0-107.957-24.49-187.789-72.78-237.207-14.91-15.262-31.85-28.199-50.79-38.801-17.74-9.929-37.33-17.672-58.53-23.461-29.37-8.039-61.91-12.211-97.68-12.211-69.26 0-126.51 15.071-170.91 44.891a2485.062 2485.062 0 01106.73-93.07l.02.011c88.98-73.242 183.26-140.449 282.04-200.84 86.27 25.15 158.75 66.829 216.53 124.962 24.56 24.707 46.2 51.929 64.87 81.57 39.76 63.137 66.11 137.34 78.8 222.019 5.04 33.5 7.81 68.739 8.56 105.489-81.41 14.379-161.9 33.66-241.02 57.359" fill="#b31648"/><path id="path84" d="M2139.57 1223.35c-2.48 5.27-5.01 10.57-7.57 15.79-1.82 3.74-3.73 7.43-5.6 11.14-77.24 10.54-154.43 20.05-231.51 26.56-85.41 7.21-170.68 10.96-255.72 13.35 20.5-19.5 39.96-40.08 58.15-61.77h.01a753.944 753.944 0 0080.1-115.96c60.62-108.19 95.19-232.823 95.19-365.409 0-73.071-10.58-143.699-30.16-210.52-7.57-25.832-16.65-51.011-26.84-75.609 97.76-80.481 207.43-144.07 324.19-189.113 54.37 116.113 89.6 242.972 101.23 376.64 2.83 32.492 4.27 65.379 4.27 98.602 0 170.301-37.89 331.699-105.74 476.299" fill="#f14633"/><path id="path86" d="M.184 769.621c-.13-6.82-.18-13.601-.18-20.449 0-230.422 69.453-444.551 188.508-622.75C250.066 256.27 326.301 380.211 416.84 495.59c-28.563 79.219-44.141 164.621-44.141 253.582 0 284.378 159.114 532.298 392.977 659.418C458.738 1264.73 195.027 1043.32.184 769.621" fill="#f89a26"/><path id="path88" d="M1888.08 1568.33c-93 14.01-188.14 21.47-284.98 21.9-3.03.01-5.91.02-8.94.02-61.63-.01-122.63-2.86-182.82-8.45-178.96-16.62-351.02-57.37-512.77-118.98 70.782 22.21 146.07 34.19 224.09 34.19 94.04 0 184.09-17.4 267.11-49.14 93.54-35.78 178.09-89.83 249.4-157.68 161.79-4.55 324.39-17.71 487.23-39.91-60.2 119.85-141.19 227.49-238.32 318.05" fill="#f89a26"/><path id="path90" d="M2670.46 1142.18c-84.25 22.07-168.61 41.91-253 59.03-18.06 3.66-36.12 6.97-54.18 10.41v-2.8c1.33-1.42 2.65-2.87 3.98-4.29 93.23-99.1 194.89-187.81 303.2-265.725v203.375" fill="#ed1930"/><path id="path92" d="M2670.46 1229.31v166.94h-307.18v-184.63c102.46-19.49 204.9-42.65 307.18-69.44v87.13" fill="#f57b2a"/><path id="path94" d="M3233.48 955.621V650.199c100.15-33.609 202.75-59.629 306.86-78.019l.33 246.05a4567.781 4567.781 0 01-171.88 80.196 4582.837 4582.837 0 01-135.31 57.195" fill="#ed1930"/><path id="path96" d="M3701.09 735.781V550.109c24.9-2.461 49.85-4.589 74.85-6.168 75.84-4.781 152.11-5.382 228.48-1.921l.01 13.75c-51.1 33.082-103 65.351-155.67 96.511-48.57 28.719-97.8 56.449-147.67 83.5" fill="#ed1930"/><path id="path98" d="M3852.79 1009.6c-57.32 0-110.03 19.94-151.7 53.18V735.309c103.96-56.368 205.12-116.43 303.34-180.008l.05 507.479c-41.66-33.24-94.38-53.18-151.69-53.18" fill="#f030a2"/><path id="path100" d="M4253.6 214.609l-5.18 1.801c-30.52 10.57-65.11 22.539-65.11 37.879 0 10.723 12.25 19.34 70.61 19.34h49.61c23.04 0 37.92 16.832 37.92 36.441v30.551h-113.11c-58.34 0-126.48-24.531-126.48-93.652 0-60.668 64.65-82.821 116.58-100.617l4.81-1.653c35.79-12.308 66.69-22.929 66.69-41.519 0-18.04-38.11-30.649-92.68-30.649-25.29 0-51.49 7.23-69.02 13.29l-16.55 5.718V23.012l9.09-2.563c17.74-4.98 54.75-13.347 103.29-13.347 90.83 0 147.26 39.898 147.26 104.148 0 62.441-76.59 89.059-117.73 103.359" fill="#a29d91"/><path id="path102" d="M4484.53 13.52a4.58 4.58 0 014.58 4.582V192.96c0 28.238 6.41 49.109 19.03 62.027 12.62 12.922 30.83 19.473 54.12 19.473 24.18 0 42.76-7.02 55.22-20.871 12.51-13.871 18.85-34.602 18.85-61.59V18.102a4.58 4.58 0 014.58-4.583h71.16c2.53 0 4.57 2.051 4.57 4.583V196.32c0 47.399-13.65 84.77-40.58 111.071-26.91 26.308-65.2 39.64-113.8 39.64-48.89 0-87.11-13.5-113.58-40.133-26.48-26.628-39.89-64.308-39.89-112.027V18.101a4.58 4.58 0 014.58-4.582h71.16" fill="#a29d91"/><path id="path104" d="M5192.38 18.09v127.289h126.01c22.37 0 40.5 18.141 40.5 40.512v18.531h-166.51v25.066c0 30.723 13.2 42.25 46.47 42.25h98.26c26.9 0 48.72 21.801 48.72 48.711v20.781h-155.18c-75.51 0-115.64-42.242-115.64-106.082V18.09c0-2.531 2.05-4.57 4.57-4.57h68.23c2.52 0 4.57 2.039 4.57 4.57" fill="#a29d91"/><path id="path106" d="M4935.1 77.578c-52.02 0-94.32 42.301-94.32 94.313 0 52.007 42.3 94.32 94.32 94.32 27.58 0 52.45-11.91 69.71-30.859l63.85 44.449c-31.51 39.008-79.71 63.98-133.76 63.98-94.92 0-171.88-76.949-171.88-171.89 0-94.93 76.96-171.88 171.88-171.88 54.71 0 103.4 25.579 134.88 65.4L5006 109.808c-17.29-19.73-42.66-32.23-70.9-32.23" fill="#a29d91"/><path id="path108" d="M4045.93 49.36c0-19.801-16.05-35.84-35.84-35.84-19.8 0-35.84 16.039-35.84 35.84 0 19.788 16.04 35.831 35.84 35.831 19.79 0 35.84-16.043 35.84-35.832" fill="#a29d91"/></g></g></g></g></svg>