<svg xmlns="http://www.w3.org/2000/svg" viewBox="0 0 500.26 65.37" height="20"><defs><style>.cls-1{fill:none;}.cls-2{fill:#010101;}.cls-3{fill:#010101;}</style></defs><g id="Calque_2" data-name="Calque 2"><g id="vecto"><g id="Presse"><path class="cls-1" d="M227.3,49a21.18,21.18,0,0,0,4.08,6,17.92,17.92,0,0,0,5.72,3.93,17.41,17.41,0,0,0,6.93,1.4,18.59,18.59,0,0,0,4.7-.61l5.07-18.2H225.41A21.3,21.3,0,0,0,227.3,49Z"/><path class="cls-1" d="M112.12,22.84A18,18,0,0,0,106.29,19a18.85,18.85,0,0,0-14.11,0,18.12,18.12,0,0,0-5.83,3.83,18.6,18.6,0,0,0-4,5.88,22.09,22.09,0,0,0-1.81,7.44h37.63a20.45,20.45,0,0,0-6-13.32Z"/><path class="cls-1" d="M27.47,22.05a9,9,0,0,0-2.95-2.23A8.3,8.3,0,0,0,21,19H6.48V40.27h14.9A7.9,7.9,0,0,0,25,39.44a8.27,8.27,0,0,0,2.77-2.3,11.38,11.38,0,0,0,1.8-3.42,13,13,0,0,0,.65-4.11,11.58,11.58,0,0,0-2.77-7.56Z"/><path class="cls-1" d="M250.73,19.48a18.62,18.62,0,0,0-14,0A17.72,17.72,0,0,0,231,23.26a18.62,18.62,0,0,0-4,5.82,22,22,0,0,0-1.79,7.37h30l3.1-11.12a19.87,19.87,0,0,0-1.81-2.07A17.72,17.72,0,0,0,250.73,19.48Z"/><path class="cls-2" d="M32.44,18.42a15.73,15.73,0,0,0-4.9-3.75,14,14,0,0,0-6.23-1.4H0V64.39H6.48V46H21.74a13.76,13.76,0,0,0,6.16-1.37A14.9,14.9,0,0,0,32.65,41a16.93,16.93,0,0,0,3.06-5.26,17.69,17.69,0,0,0,1.08-6.12,16,16,0,0,0-1.15-5.94A18.09,18.09,0,0,0,32.44,18.42Zm-2.85,15.3a11.38,11.38,0,0,1-1.8,3.42A8.27,8.27,0,0,1,25,39.44a7.9,7.9,0,0,1-3.64.83H6.48V19H21a8.3,8.3,0,0,1,3.57.79,9,9,0,0,1,2.95,2.23,11.58,11.58,0,0,1,2.77,7.56A13,13,0,0,1,29.59,33.72Z"/><path class="cls-2" d="M66.7,13a14.34,14.34,0,0,0-9.31,3.57,27.07,27.07,0,0,0-7,9V13.33H44.16V64.39h6.66V32.64a18.88,18.88,0,0,1,7.06-9.71,21,21,0,0,1,11.76-3.72V13.13A7.3,7.3,0,0,0,68.37,13Z"/><path class="cls-2" d="M117.46,20.29a24.4,24.4,0,0,0-8-5.74,26,26,0,0,0-20.48,0,25.67,25.67,0,0,0-13.43,14,27,27,0,0,0-1.91,10.14A27.64,27.64,0,0,0,75.57,49a26.74,26.74,0,0,0,5.34,8.48,24.81,24.81,0,0,0,18.42,7.89,26.88,26.88,0,0,0,7.06-.93,24.45,24.45,0,0,0,6.27-2.65,23,23,0,0,0,5-4A16.82,16.82,0,0,0,121,52.63l-5.78-1.57a12.84,12.84,0,0,1-2.5,3.77A15.56,15.56,0,0,1,109,57.72a19.72,19.72,0,0,1-4.51,1.87,18.73,18.73,0,0,1-5,.68,17.43,17.43,0,0,1-7-1.42,18.13,18.13,0,0,1-5.78-4,21.69,21.69,0,0,1-6-13.62h43.61a4.45,4.45,0,0,0,.15-1.08c0-.52,0-1,0-1.57a26.91,26.91,0,0,0-1.86-10A26.55,26.55,0,0,0,117.46,20.29ZM80.52,36.16a22.09,22.09,0,0,1,1.81-7.44,18.6,18.6,0,0,1,4-5.88A18.12,18.12,0,0,1,92.18,19a18.85,18.85,0,0,1,14.11,0,18,18,0,0,1,5.83,3.83,20.45,20.45,0,0,1,6,13.32Z"/><path class="cls-2" d="M164.14,40.77A20.91,20.91,0,0,0,158.67,38a64.12,64.12,0,0,0-7.17-2q-3.45-.8-6-1.51a19.47,19.47,0,0,1-4.22-1.69,6.62,6.62,0,0,1-2.48-2.34A6.84,6.84,0,0,1,138,27a7.43,7.43,0,0,1,2.77-6.12c1.85-1.49,4.76-2.23,8.75-2.23a20.12,20.12,0,0,1,4.43.47,22.21,22.21,0,0,1,3.92,1.22,20.5,20.5,0,0,1,3.24,1.69,10.45,10.45,0,0,1,2.3,1.95l3-5.26a27.39,27.39,0,0,0-24.12-4.86,16.56,16.56,0,0,0-5.83,2.92,13.46,13.46,0,0,0-3.82,4.75A14.64,14.64,0,0,0,131.34,28a12.21,12.21,0,0,0,1,5.18,9.78,9.78,0,0,0,3,3.67,18.54,18.54,0,0,0,4.93,2.6,62.4,62.4,0,0,0,6.84,2q3.52.87,6.3,1.69a22,22,0,0,1,4.64,1.91,8.22,8.22,0,0,1,2.85,2.56,6.42,6.42,0,0,1,1,3.63,6.5,6.5,0,0,1-3,5.84q-3,1.93-8.5,1.94a25.35,25.35,0,0,1-5.65-.61,31,31,0,0,1-5-1.59,24.47,24.47,0,0,1-4.18-2.19,17.44,17.44,0,0,1-3-2.45l-3.09,5.47A31.44,31.44,0,0,0,139,63.06a34,34,0,0,0,11.2,1.83,31,31,0,0,0,7.34-.83,16.9,16.9,0,0,0,5.87-2.59A12.76,12.76,0,0,0,167.34,57a13.37,13.37,0,0,0,1.44-6.37,12.88,12.88,0,0,0-1.19-5.84A11.16,11.16,0,0,0,164.14,40.77Z"/><path class="cls-2" d="M208.27,40.77A20.75,20.75,0,0,0,202.8,38a63.33,63.33,0,0,0-7.16-2q-3.46-.8-6-1.51a19.37,19.37,0,0,1-4.21-1.69A6.47,6.47,0,0,1,183,30.48a6.84,6.84,0,0,1-.8-3.46A7.44,7.44,0,0,1,185,20.9c1.84-1.49,4.76-2.23,8.74-2.23a20,20,0,0,1,4.43.47,22.32,22.32,0,0,1,3.93,1.22,21.41,21.41,0,0,1,3.24,1.69,10.69,10.69,0,0,1,2.3,1.95l3-5.26a25.64,25.64,0,0,0-16.77-5.83,26.5,26.5,0,0,0-7.35,1,16.65,16.65,0,0,0-5.83,2.92,13.54,13.54,0,0,0-3.81,4.75A14.5,14.5,0,0,0,175.48,28a12.06,12.06,0,0,0,1,5.18,9.75,9.75,0,0,0,3,3.67,18.61,18.61,0,0,0,4.94,2.6,61.12,61.12,0,0,0,6.84,2q3.52.87,6.3,1.69a22.48,22.48,0,0,1,4.64,1.91A8.09,8.09,0,0,1,205,47.65a6.43,6.43,0,0,1,1,3.63,6.49,6.49,0,0,1-3,5.84c-2,1.29-4.85,1.94-8.49,1.94a25.44,25.44,0,0,1-5.66-.61,31,31,0,0,1-5-1.59,24,24,0,0,1-4.17-2.19,17.06,17.06,0,0,1-3-2.45l-3.1,5.47a31.49,31.49,0,0,0,9.62,5.37,33.93,33.93,0,0,0,11.19,1.83,31,31,0,0,0,7.35-.83,16.84,16.84,0,0,0,5.86-2.59A12.68,12.68,0,0,0,211.48,57a13.37,13.37,0,0,0,1.44-6.37,13,13,0,0,0-1.19-5.84A11.09,11.09,0,0,0,208.27,40.77Z"/><path class="cls-2" d="M244,60.31a17.41,17.41,0,0,1-6.93-1.4A17.92,17.92,0,0,1,231.38,55a21.32,21.32,0,0,1-6-13.48H253.8l1.41-5h-30A22,22,0,0,1,227,29.08a18.62,18.62,0,0,1,4-5.82,17.72,17.72,0,0,1,5.77-3.78,18.62,18.62,0,0,1,14,0,17.72,17.72,0,0,1,5.77,3.78,19.87,19.87,0,0,1,1.81,2.07L260.06,19a25.26,25.26,0,0,0-26.45-4,25.37,25.37,0,0,0-13.29,13.87,26.72,26.72,0,0,0-1.89,10,27.31,27.31,0,0,0,1.89,10.19,26.64,26.64,0,0,0,5.28,8.39,24.62,24.62,0,0,0,18.24,7.81,26.86,26.86,0,0,0,3.37-.22l1.52-5.44A18.59,18.59,0,0,1,244,60.31Z"/></g><g id="Citron"><path class="cls-2" d="M260.16,38.94a27.34,27.34,0,0,1,1.62-9.18,25.58,25.58,0,0,1,4.71-8.17,24.38,24.38,0,0,1,7.6-5.87,22.51,22.51,0,0,1,10.26-2.27A20.92,20.92,0,0,1,296,16.59a19.2,19.2,0,0,1,7.13,8l-3,1.73A16,16,0,0,0,297,21.88,16.87,16.87,0,0,0,293,19a17.8,17.8,0,0,0-4.42-1.62,21.62,21.62,0,0,0-4.54-.5,18.23,18.23,0,0,0-8.64,2A20.31,20.31,0,0,0,269.08,24a22.57,22.57,0,0,0-3.92,7.16,25.17,25.17,0,0,0-1.33,8A24.18,24.18,0,0,0,269.73,55a21.14,21.14,0,0,0,6.48,5,17.79,17.79,0,0,0,8.07,1.87,20,20,0,0,0,4.71-.58,18.85,18.85,0,0,0,4.68-1.8,18.13,18.13,0,0,0,4.21-3.13,16.49,16.49,0,0,0,3.24-4.5l3.1,1.51a17.35,17.35,0,0,1-3.49,5.12,21.6,21.6,0,0,1-4.93,3.74,24,24,0,0,1-5.8,2.27,25.17,25.17,0,0,1-6,.75,20.15,20.15,0,0,1-9.61-2.3,25.31,25.31,0,0,1-7.53-6,28,28,0,0,1-4.93-8.42A27.18,27.18,0,0,1,260.16,38.94Z"/><path class="cls-2" d="M313.51,64.86v-51h3.67V64.86Z"/><path class="cls-2" d="M366.57,17.05H347.85V64.86h-3.67V17.05H325.46V13.74h41.11Z"/><path class="cls-2" d="M398.76,17a20.33,20.33,0,0,0-12.25,4.46,21.79,21.79,0,0,0-7.26,11.32v32h-3.33v-51h3.24V26.84a24.83,24.83,0,0,1,7-8.82,18.71,18.71,0,0,1,9.41-4c.65,0,1.24,0,1.76-.05s1,0,1.38,0Z"/><path class="cls-2" d="M426.61,65.22A21.07,21.07,0,0,1,416.89,63a25.1,25.1,0,0,1-7.56-5.83,25.9,25.9,0,0,1-4.9-8.28,27.49,27.49,0,0,1-1.73-9.58,26.48,26.48,0,0,1,1.84-9.79,27.21,27.21,0,0,1,5-8.28,24,24,0,0,1,7.59-5.72,21.52,21.52,0,0,1,9.51-2.13,20.9,20.9,0,0,1,9.72,2.27,24.56,24.56,0,0,1,7.52,5.94,27.37,27.37,0,0,1,4.86,8.32,27.06,27.06,0,0,1-5.15,27.5,24.37,24.37,0,0,1-7.56,5.69A21.23,21.23,0,0,1,426.61,65.22ZM406.37,39.3a24.7,24.7,0,0,0,1.48,8.46A22.72,22.72,0,0,0,412,55a20.7,20.7,0,0,0,6.4,5,17.89,17.89,0,0,0,8.18,1.87,17.68,17.68,0,0,0,8.31-1.94,20.81,20.81,0,0,0,6.37-5.15,23.65,23.65,0,0,0,4.11-7.24,24.29,24.29,0,0,0-.07-16.67,23.51,23.51,0,0,0-4.22-7.2,20.67,20.67,0,0,0-6.4-5,18.73,18.73,0,0,0-16.46.07,20.21,20.21,0,0,0-6.37,5.15,24.64,24.64,0,0,0-5.51,15.44Z"/><path class="cls-2" d="M500.26,64.86h-3.33V36.44q0-10.48-2.94-15.33t-9.41-4.86a19.48,19.48,0,0,0-6.91,1.28,23.71,23.71,0,0,0-6.27,3.53,25.83,25.83,0,0,0-5.09,5.29A20.19,20.19,0,0,0,463.12,33V64.86h-3.33v-51h3.14V26.64a23.32,23.32,0,0,1,4-5.53,25.82,25.82,0,0,1,5.35-4.27,27.19,27.19,0,0,1,6.22-2.74,23.43,23.43,0,0,1,6.71-1q8,0,11.57,5.73t3.52,17.2Z"/></g><path id="feuille_droite" data-name="feuille droite" class="cls-3" d="M453.31,9.75s-23.21-5.39-26,21C427.29,30.77,450.74,34,453.31,9.75Z"/><path id="feuille_gauche" data-name="feuille gauche" class="cls-2" d="M440.41,0s-23,6.24-13,30.83C427.44,30.83,449.61,22.57,440.41,0Z"/></g></g></svg>