<svg xmlns="http://www.w3.org/2000/svg" viewBox="0 0 146.722 52.252"><defs><path id="a" d="M0 .148h161.658v65.034H0z"/><path id="b" d="M0 65.033h161.658V0H0z"/></defs><g transform="translate(-7.482 -12.067)" fill="none" fill-rule="evenodd"><mask id="c" fill="#fff"><use href="#b"/></mask><g class="square"><path fill="#BD0027" mask="url(#c)" d="M7.482 49.916h37.616V12.3H7.482z"/><path d="M10.761 20.05s3.112 12.457 16.28 12.153c11.786-.272 14.388-10.514 14.778-12.153 0 0-5.072 5.921-15.529 5.843 0 0-9.315.236-15.529-5.843" fill="#FFF" mask="url(#c)"/><path d="M10.761 30.008s3.112 12.456 16.28 12.152c11.786-.272 14.388-10.513 14.778-12.152 0 0-5.072 5.92-15.529 5.843 0 0-9.315.236-15.529-5.843" fill="#FFF" mask="url(#c)"/></g><path class="text" d="M65.73 25.066c-.093-2.088-1.055-3.379-2.627-3.895 1.713-.703 2.698-2.182 2.698-4.176 0-2.885-2.111-4.692-5.42-4.692h-7.6v16.282h3.26V22.65h4.177c1.36 0 2.181 1.126 2.228 2.838.024 1.174.094 2.534.211 3.097h3.403c-.212-.633-.282-2.158-.33-3.519zm-5.7-5.044h-3.99v-4.856h3.989c1.501 0 2.463.938 2.463 2.416s-.962 2.44-2.463 2.44zm16.751-3.027v1.854c-.938-1.29-2.37-2.088-4.082-2.088-3.05 0-5.279 2.533-5.279 6.03 0 3.495 2.229 6.006 5.279 6.006 1.713 0 3.144-.775 4.082-2.089v1.877h3.074v-11.59h-3.074zm-3.097 9.15c-1.806 0-3.12-1.407-3.12-3.355 0-1.97 1.314-3.378 3.12-3.378 1.807 0 3.097 1.408 3.097 3.378 0 1.948-1.29 3.356-3.097 3.356zm17.198-13.842v6.546c-.939-1.29-2.37-2.088-4.083-2.088-3.05 0-5.279 2.533-5.279 6.03 0 3.495 2.23 6.006 5.28 6.006 1.712 0 3.143-.775 4.082-2.089v1.877h3.073V12.303h-3.073zm-3.097 13.843c-1.807 0-3.12-1.408-3.12-3.356 0-1.97 1.313-3.378 3.12-3.378 1.806 0 3.097 1.408 3.097 3.378 0 1.948-1.29 3.356-3.097 3.356zM99.679 13.78c0-1.009-.774-1.713-1.876-1.713-1.08 0-1.854.704-1.854 1.713 0 .986.774 1.69 1.854 1.69 1.102 0 1.876-.704 1.876-1.69zm-3.402 14.804h3.074v-11.59h-3.074v11.59zm14.124-11.59v1.854c-.938-1.29-2.37-2.088-4.082-2.088-3.05 0-5.279 2.533-5.279 6.03 0 3.495 2.23 6.006 5.279 6.006 1.713 0 3.144-.775 4.082-2.089v1.877h3.074v-11.59H110.4zm-3.096 9.15c-1.807 0-3.121-1.407-3.121-3.355 0-1.97 1.314-3.378 3.12-3.378 1.807 0 3.097 1.408 3.097 3.378 0 1.948-1.29 3.356-3.096 3.356zm15.202-9.384c-1.572 0-2.886.75-3.636 1.97v-1.736h-3.074v11.59h3.074V21.78c0-1.548.985-2.58 2.44-2.58 1.454 0 2.416 1.032 2.416 2.58v6.804h3.05v-7.25c0-2.697-1.736-4.574-4.27-4.574zm18.206 6.945h-3.073c-.305 1.407-1.502 2.44-3.003 2.44-1.83 0-3.144-1.408-3.144-3.356 0-1.97 1.314-3.378 3.144-3.378 1.478 0 2.674 1.056 2.98 2.463h3.096c-.305-2.98-2.862-5.114-6.1-5.114-3.636 0-6.264 2.533-6.264 6.03 0 3.495 2.628 6.006 6.264 6.006 3.238 0 5.795-2.135 6.1-5.091zm13.49-.892c-.023-3.52-2.627-6.053-6.24-6.053-3.637 0-6.264 2.533-6.264 6.03 0 3.495 2.627 6.006 6.264 6.006 2.862 0 5.373-1.807 6.03-4.34h-3.074c-.422 1.055-1.572 1.853-2.933 1.853-1.595 0-2.862-1.056-3.237-2.581h9.36c.071-.281.095-.61.095-.915zm-6.217-3.567c1.502 0 2.769.892 3.238 2.16h-6.358c.493-1.291 1.665-2.16 3.12-2.16zM67.273 37.284c-1.796 0-3.212.927-3.895 2.38-.607-1.478-1.922-2.38-3.642-2.38-1.695 0-2.985.827-3.668 2.229v-1.978H52.78v12.371h3.288v-7.688c0-1.428.86-2.33 2.226-2.33 1.34 0 2.175.902 2.175 2.33v7.688h3.314v-7.688c0-1.428.86-2.33 2.2-2.33 1.366 0 2.2.902 2.2 2.33v7.688h3.314v-8.164c0-2.655-1.694-4.458-4.224-4.458zm15.584.25v7.263c0 1.653-1.052 2.755-2.604 2.755-1.553 0-2.58-1.102-2.58-2.755v-7.262h-3.255v7.738c0 2.88 1.853 4.883 4.557 4.883 1.678 0 3.08-.801 3.882-2.128v1.878h3.28V37.535h-3.28zm13.799 0H93.9v-3.23h-3.28v3.23h-2.305v2.705h2.304v9.667h3.28v-9.667h2.756v-2.704zm10.443 0v7.263c0 1.653-1.052 2.755-2.605 2.755s-2.58-1.102-2.58-2.755v-7.262H98.66v7.738c0 2.88 1.853 4.883 4.558 4.883 1.678 0 3.08-.801 3.882-2.128v1.878h3.28V37.535h-3.28zm19.132 6.211c-.025-3.756-2.805-6.46-6.661-6.46-3.882 0-6.687 2.704-6.687 6.435 0 3.732 2.805 6.411 6.687 6.411 3.055 0 5.735-1.928 6.436-4.633h-3.28c-.452 1.127-1.679 1.979-3.131 1.979-1.703 0-3.056-1.127-3.456-2.755h9.992c.075-.3.1-.651.1-.977zm-6.636-3.806c1.603 0 2.955.951 3.456 2.304h-6.787c.526-1.378 1.778-2.304 3.33-2.304zm9.115 9.967h3.256v-17.38h-3.256v17.38zm6.41 0h3.256v-17.38h-3.255v17.38zm19.084-6.16c-.025-3.757-2.805-6.462-6.662-6.462-3.882 0-6.686 2.705-6.686 6.436 0 3.732 2.804 6.411 6.686 6.411 3.055 0 5.735-1.928 6.436-4.633h-3.28c-.451 1.127-1.678 1.979-3.13 1.979-1.704 0-3.056-1.127-3.457-2.755h9.992c.076-.3.1-.651.1-.977zm-6.637-3.807c1.603 0 2.955.951 3.456 2.304h-6.787c.526-1.378 1.779-2.304 3.331-2.304zM11.724 57.576v.859c-.414-.58-1.09-.936-1.9-.936-1.35 0-2.334.993-2.334 2.373 0 1.38.984 2.372 2.334 2.372.81 0 1.486-.356 1.9-.945v.743c0 .974-.723 1.678-1.726 1.678-.714 0-1.39-.424-1.592-.993l-.704-.01c.232.926 1.206 1.602 2.325 1.602 1.418 0 2.43-.975 2.43-2.315v-4.428h-.733zm-1.736 4.09c-1.012 0-1.746-.753-1.746-1.794 0-1.052.734-1.804 1.746-1.804 1.003 0 1.736.752 1.736 1.804 0 1.041-.733 1.794-1.736 1.794zm5.759-2.942v-1.148h-.744v4.727h.744V59.91c0-1.09.674-1.717 1.832-1.717v-.723c-.887 0-1.534.453-1.832 1.254zm5.922-1.225c-1.447 0-2.499 1.023-2.499 2.44 0 1.418 1.052 2.45 2.499 2.45 1.446 0 2.488-1.032 2.488-2.45 0-1.417-1.042-2.44-2.488-2.44zm0 .646c1.003 0 1.736.753 1.736 1.794 0 1.051-.733 1.804-1.736 1.804-1.013 0-1.746-.753-1.746-1.804 0-1.041.733-1.794 1.746-1.794zm8.17-.569v2.759c0 .887-.54 1.456-1.38 1.456-.83 0-1.36-.569-1.36-1.456v-2.759h-.733v2.846c0 1.186.762 1.958 1.88 1.958.724 0 1.293-.338 1.592-.907v.83h.743v-4.727h-.743zm5.922-.077c-.81 0-1.476.357-1.89.945v-.868h-.744v6.655h.743v-2.787c.415.579 1.08.945 1.89.945 1.351 0 2.344-1.032 2.344-2.45 0-1.417-.993-2.44-2.343-2.44zm-.155 4.244c-1.013 0-1.736-.753-1.736-1.804 0-1.041.723-1.794 1.736-1.794s1.736.753 1.736 1.794c0 1.051-.723 1.804-1.736 1.804zm9.443-1.804c0-1.417-1.041-2.44-2.488-2.44s-2.498 1.023-2.498 2.44c0 1.418 1.05 2.45 2.498 2.45 1.167 0 2.16-.762 2.42-1.813h-.752c-.202.695-.868 1.206-1.659 1.206-.964 0-1.688-.676-1.784-1.611h4.244c.01-.077.02-.154.02-.232zm-2.479-1.832c.926 0 1.65.617 1.775 1.495h-3.54c.145-.888.84-1.495 1.765-1.495zm15.732-.666c-.685 0-1.225.357-1.486.916-.23-.568-.733-.916-1.388-.916-.647 0-1.139.318-1.4.859v-.763h-1.253v4.766h1.254V59.34c0-.55.328-.897.849-.897.511 0 .83.348.83.897v2.962h1.263V59.34c0-.55.328-.897.84-.897.52 0 .838.348.838.897v2.962h1.264v-3.145c0-1.022-.646-1.717-1.61-1.717zm7.63.096v.763a2.035 2.035 0 00-1.679-.86c-1.254 0-2.17 1.043-2.17 2.48s.916 2.47 2.17 2.47a2.01 2.01 0 001.679-.86v.773h1.263v-4.766h-1.263zM64.658 61.3c-.743 0-1.283-.579-1.283-1.379 0-.81.54-1.389 1.283-1.389.743 0 1.274.579 1.274 1.39 0 .8-.53 1.378-1.274 1.378zm5.025 1.004h1.254V55.61h-1.254v6.694zm7.33-4.766v.763a2.035 2.035 0 00-1.678-.86c-1.254 0-2.17 1.043-2.17 2.48s.916 2.47 2.17 2.47a2.01 2.01 0 001.679-.86v.773h1.263v-4.766h-1.263zM75.742 61.3c-.743 0-1.283-.579-1.283-1.379 0-.81.54-1.389 1.283-1.389.742 0 1.273.579 1.273 1.39 0 .8-.53 1.378-1.273 1.378zm9.54-3.762h-1.487l-1.774 2.074V55.61h-1.254v6.694h1.254v-2.286l1.774 2.286h1.486l-2.006-2.499 2.006-2.267zm4.137-.096c-1.496 0-2.576 1.042-2.576 2.48 0 1.436 1.08 2.468 2.576 2.468 1.485 0 2.565-1.032 2.565-2.469 0-1.437-1.08-2.48-2.565-2.48zm-.01 1.09c.753 0 1.283.579 1.283 1.39 0 .8-.53 1.378-1.283 1.378-.742 0-1.273-.579-1.273-1.379 0-.81.53-1.389 1.273-1.389zm6.897-1.958c.115 0 .26.029.385.068v-1.09a1.892 1.892 0 00-.395-.039c-1.042 0-1.785.646-1.785 1.553v.472h-.665v1.042h.665v3.724h1.254V58.58h.926v-1.042h-.926v-.472c0-.3.232-.492.54-.492zm4.62 0c.115 0 .26.029.385.068v-1.09a1.89 1.89 0 00-.395-.039c-1.042 0-1.784.646-1.784 1.553v.472h-.666v1.042h.666v3.724h1.253V58.58h.926v-1.042h-.926v-.472c0-.3.232-.492.54-.492zm10.783.868a1.67 1.67 0 00-1.485.84V55.61h-1.254v6.694h1.254v-2.797c0-.637.405-1.062 1.012-1.062.589 0 .984.425.984 1.062v2.797h1.264v-2.981c0-1.11-.723-1.881-1.775-1.881zm7.34.096v2.798c0 .636-.405 1.06-1.003 1.06-.598 0-.993-.424-.993-1.06v-2.798h-1.254v2.981c0 1.11.714 1.881 1.755 1.881.647 0 1.186-.309 1.495-.82v.724h1.264v-4.766h-1.264zm9.24-.096c-.684 0-1.224.357-1.485.916-.231-.568-.733-.916-1.389-.916-.646 0-1.138.318-1.398.859v-.763h-1.254v4.766h1.254V59.34c0-.55.328-.897.848-.897.512 0 .83.348.83.897v2.962h1.263V59.34c0-.55.329-.897.84-.897.52 0 .839.348.839.897v2.962h1.263v-3.145c0-1.022-.646-1.717-1.61-1.717zm7.582.096v.763a2.035 2.035 0 00-1.678-.86c-1.254 0-2.17 1.043-2.17 2.48s.916 2.47 2.17 2.47a2.01 2.01 0 001.678-.86v.773h1.263v-4.766h-1.263zm-1.273 3.762c-.743 0-1.283-.579-1.283-1.379 0-.81.54-1.389 1.283-1.389.742 0 1.273.579 1.273 1.39 0 .8-.53 1.378-1.273 1.378zm7.745-3.858c-.646 0-1.187.309-1.495.81v-.714h-1.264v4.766h1.264v-2.797c0-.637.405-1.062 1.003-1.062.598 0 .994.425.994 1.062v2.797h1.253v-2.981c0-1.11-.713-1.881-1.755-1.881zm5.565-1.225c0-.414-.318-.704-.771-.704-.444 0-.762.29-.762.704 0 .405.318.695.762.695.453 0 .771-.29.771-.695zm-1.398 6.087h1.263v-4.765h-1.263v4.765zm5.575-4.862c-1.158 0-1.949.598-1.949 1.457 0 .877.82 1.215 1.524 1.379.685.154 1.264.25 1.264.665 0 .319-.328.55-.791.55-.502 0-.849-.26-.878-.646h-1.215c0 .907.868 1.543 2.103 1.543 1.205 0 2.054-.607 2.054-1.485 0-.984-.984-1.273-1.678-1.418-.676-.145-1.148-.27-1.148-.646 0-.309.299-.521.723-.521.464 0 .782.26.81.636h1.148c0-.887-.81-1.514-1.967-1.514z" fill="#BD0027" mask="url(#c)"/></g></svg>