<svg width="89" height="47" viewBox="0 0 89 47" fill="none" xmlns="http://www.w3.org/2000/svg">
<path fill-rule="evenodd" clip-rule="evenodd" d="M1.62251 0.112456C0.638597 0.154285 0 0.614399 0 1.59977V45.5321C0 46.2987 0.541962 46.9919 1.3745 46.9919H78.6622C79.3569 46.9919 79.911 46.9275 80.2361 45.9956C80.2361 45.9956 88.0702 21.1234 88.2087 20.6729C88.4986 19.73 88.3108 19.2562 87.5195 18.7433C62.3452 2.38011 24.7066 0.000685698 7.61045 0C5.15878 0 3.13216 0.0493708 1.62251 0.112456ZM46.333 24.2489C49.1462 21.1741 53.4867 19.4311 58.4792 19.4311C60.0909 19.4311 61.7344 19.5209 63.0899 19.7321L61.9783 23.042C60.8788 22.8994 59.6604 22.8247 58.4751 22.8247C52.8474 22.8247 48.6381 25.5956 48.0015 29.9821C47.7346 31.8212 48.1644 33.471 49.2435 34.7506C50.6802 36.4539 53.215 37.2185 56.3823 37.2185C57.8528 37.2185 59.2597 37.0738 60.4004 36.7817L65.7639 19.7609H81.5741L80.5942 22.9165H69.3374L67.7108 28.0779H77.1573L76.195 31.1211H66.7505L64.2921 38.9814C63.3488 39.4943 59.5564 40.61 55.3606 40.61C48.8726 40.61 44.2936 37.4715 43.5793 32.7997C43.5685 32.7312 43.5165 32.7078 43.434 32.7078C43.357 32.7078 43.3043 32.7243 43.2799 32.8004L40.9323 40.239H36.1858C34.6376 34.3666 31.748 28.8061 28.8368 24.578C28.8368 24.578 25.9811 33.5616 25.9493 33.6617C25.927 33.7323 25.8878 33.7536 25.8081 33.7536C25.729 33.7536 25.6749 33.7371 25.6506 33.6617C25.2148 32.3725 24.6897 31.466 23.0266 30.2118L26.3325 19.7616H30.7587C34.3693 24.3092 37.3217 29.8813 38.7564 34.1177L43.2671 19.7616H47.3886L45.9776 24.2489C45.9546 24.3243 46.0127 24.3408 46.1006 24.3408H46.1107C46.1655 24.3408 46.2513 24.338 46.333 24.2489ZM18.8768 35.5508C19.6512 33.8797 17.4502 32.605 14.6654 31.2665C11.1562 29.5796 7.10633 27.5293 8.53489 23.8861C9.73775 20.8155 14.4228 19.3652 19.6052 19.4873C21.2163 19.525 22.1813 19.6532 23.5321 19.9049L22.5921 22.9028C21.5278 22.6539 20.5986 22.4839 19.2917 22.4537C16.7076 22.3927 13.8545 23.0208 13.3031 24.6775C12.8375 26.0756 14.7715 26.8011 17.609 28.1904C21.2325 29.9664 25.7439 32.088 23.9254 35.9629C22.388 39.2413 18.5483 40.7554 12.6206 40.6155C9.46204 40.5414 5.76223 39.3929 3.96808 38.5474L5.4203 35.3636C7.85913 36.6109 10.9568 37.333 13.4376 37.3913C13.5788 37.394 13.7173 37.3961 13.8538 37.3961C16.4947 37.3961 18.3058 36.7823 18.8768 35.5508Z" fill="url(#paint0_linear)"/>
<defs>
<linearGradient id="paint0_linear" x1="0.886437" y1="23.0244" x2="87.4509" y2="23.0244" gradientUnits="userSpaceOnUse">
<stop stop-color="#822F70"/>
<stop offset="0.250301" stop-color="#AB277D"/>
<stop offset="0.739562" stop-color="#E0232F"/>
<stop offset="1" stop-color="#E0232F"/>
</linearGradient>
</defs>
</svg>
