<svg xmlns="http://www.w3.org/2000/svg" viewBox="0 0 156.979 65.505" height="20"><defs><clipPath id="a"><path d="M0 51.107h156.979V-14.4H0z" transform="translate(0 14.398)" fill="#361551"/></clipPath></defs><g clip-path="url(#a)"><path d="M13.029 65.217l.8-4.945H8.066l.268-1.779h5.082l.746-4.7H9.08l.287-1.729h5.564l.773-4.945H3.493l-2.866 18.1zM26.405 49.68a9.108 9.108 0 00-.796 1.486h-.141a7.354 7.354 0 00-.337-1.488l-.942-2.566h-7.443l4.386 8.476-7.9 9.627h7.516l2.6-3.7a8.808 8.808 0 00.723-1.247h.191a3.1 3.1 0 00.191 1.106l1.47 3.84h7.516l-4.937-9.624 7.006-8.476h-7.442zm13.69 15.537l.864-5.45h3.371a6.824 6.824 0 004.636-1.62 7.129 7.129 0 002.325-4.381q.505-3.242-1.251-4.945a7.009 7.009 0 00-5.082-1.7h-8.357l-2.866 18.1zm2.72-13.157c.273 0 .5 0 .673.009a3.168 3.168 0 01.614.1 1.33 1.33 0 01.541.237 1.152 1.152 0 01.314.446 1.242 1.242 0 01.045.7 1.807 1.807 0 01-.337.878 1.482 1.482 0 01-.66.5 3.744 3.744 0 01-.783.218 5.777 5.777 0 01-.892.059h-.651l.505-3.144zm20.073 13.157l.792-4.945h-5.756l.264-1.779h5.082l.746-4.7h-5.082l.291-1.729h5.564l.769-4.945h-12.21l-2.866 18.1zm8.576 0l.914-5.81h.123l1.975 5.81h7.611l-3.012-5.883a4.313 4.313 0 00-.937-1.083l.023-.141a6.778 6.778 0 002.975-1.67 5.637 5.637 0 001.288-3.039 6.229 6.229 0 00-.132-2.894 3.926 3.926 0 00-1.351-1.965 6.265 6.265 0 00-2.225-1.083 10.926 10.926 0 00-2.863-.345h-7.979l-2.866 18.1zm2.6-13.157a3.027 3.027 0 011.515.3c.337.2.46.619.364 1.26a2.225 2.225 0 01-.314.805 1.27 1.27 0 01-.578.469 3.054 3.054 0 01-.71.191 6.093 6.093 0 01-.81.045h-.455l.482-3.071zm15.157 13.157l2.866-18.1h-6.6l-2.866 18.1zm14.841 0l.8-4.945h-5.759l.264-1.779h5.086l.746-4.7h-5.086l.291-1.729h5.56l.773-4.945H94.526l-2.866 18.1zm8.389 0l.937-5.883a23.479 23.479 0 00.168-3.626h.2l4.286 9.509h6.311l2.866-18.1h-6.31l-.842 5.423a28.119 28.119 0 00-.2 4.613h-.191l-4.336-10.039h-6.333l-2.866 18.1zm25.714-18.394a10.409 10.409 0 00-4.986 1.274 11.66 11.66 0 00-3.985 3.458 10.821 10.821 0 00-2.011 4.777 8.36 8.36 0 00.469 4.645 7.036 7.036 0 002.807 3.317 8.205 8.205 0 004.477 1.21 20.431 20.431 0 002.566-.191 8.733 8.733 0 002.252-.528l1.278-6.77a6.319 6.319 0 01-4.072 1.679 3.124 3.124 0 01-2.42-1.019 2.87 2.87 0 01-.687-2.509 3.99 3.99 0 011.433-2.5 4.093 4.093 0 012.712-1.033 4.883 4.883 0 013.584 1.833l.892-6.893a12.526 12.526 0 00-4.308-.746m16.142 18.394l.8-4.945h-5.76l.268-1.779h5.082l.746-4.7h-5.082l.287-1.729h5.564l.773-4.945h-12.215l-2.866 18.1zM9.128 41.805a10.649 10.649 0 006.975-2.4 9.95 9.95 0 003.549-6.388 9.756 9.756 0 00-.145-4.251 5.822 5.822 0 00-1.831-2.912 8.392 8.392 0 00-3.13-1.62 15.019 15.019 0 00-4.19-.532h-6.72L.77 41.805zm.627-12.439q3.876 0 3.3 3.626a3.618 3.618 0 01-1.47 2.543 4.988 4.988 0 01-2.939.842h-.41l1.11-7.011zm16.734 12.439l2.866-18.107h-6.6l-2.863 18.107zm12.275-6.388h2.985a2.317 2.317 0 01-1.192 1.178 3.934 3.934 0 01-1.72.4 2.542 2.542 0 01-2.288-1.137 3.747 3.747 0 01-.505-2.725 5.488 5.488 0 011.47-2.966 3.819 3.819 0 012.865-1.233 2.717 2.717 0 011.406.359 2.046 2.046 0 01.883 1.033l6.523-2.256a5.222 5.222 0 00-1.843-2.557 9.219 9.219 0 00-3.035-1.6 11.258 11.258 0 00-3.312-.505 12.594 12.594 0 00-5.309 1.119 10.739 10.739 0 00-4.117 3.293 10.892 10.892 0 00-2.134 5.054 8.954 8.954 0 00.166 3.89 6.469 6.469 0 001.688 2.9 8.068 8.068 0 002.905 1.79 10.781 10.781 0 003.794.637 12.12 12.12 0 004.359-.837 12 12 0 003.854-2.379 10.156 10.156 0 001.1-1.128 6.721 6.721 0 00.8-1.274c.223-.464.409-.86.555-1.187a8.4 8.4 0 00.419-1.369c.136-.582.232-1.019.291-1.306s.141-.778.25-1.465H39.437zm17.283 6.388l2.867-18.107h-6.6l-2.868 18.107zm6.32-12.389l-1.975 12.389h6.6l1.972-12.389 3.612.168.919-5.887H59.619l-.912 5.888zm19.449 10.132l.241 2.257h6.984l-3.612-18.107h-7.3l-9.174 18.107h6.984l.892-2.257zm-1.037-9.822h.241c0 1.074.018 1.852.05 2.329l.264 3.199h-2.648zm20.764 12.079l.914-5.81h-5.536l1.952-12.3h-6.6l-2.866 18.11zM3.216 18.237a14.588 14.588 0 003.5.446 10.776 10.776 0 002.962-.409 10.469 10.469 0 002.7-1.187 7.136 7.136 0 002.12-2.043 6.987 6.987 0 001.133-2.821q.648-4.108-4-5.187L10.19 6.7a1.1 1.1 0 01-.2-.05c-.123-.032-.2-.055-.255-.068s-.129-.042-.229-.075a.69.69 0 01-.232-.109c-.045-.041-.1-.086-.155-.146a.4.4 0 01-.113-.189.766.766 0 010-.25.914.914 0 01.555-.732 2.292 2.292 0 011.011-.229 5.908 5.908 0 013.613 1.365l2.53-4.631a9.669 9.669 0 00-5.514-1.588 10.353 10.353 0 00-3.9.76 8.8 8.8 0 00-3.289 2.316A6.952 6.952 0 002.265 6.7a3.657 3.657 0 00.819 3.23 5.483 5.483 0 003.152 1.577l1.3.237a1.241 1.241 0 01.2.036c.1.027.168.041.214.05s.123.023.218.045a.722.722 0 01.191.073.875.875 0 00.182.1c.086.041.141.082.155.123a.7.7 0 00.109.155.187.187 0 01.05.191.46.46 0 00-.014.241 1 1 0 01-.651.814 2.857 2.857 0 01-1.206.268 5.82 5.82 0 01-3.855-1.667l-.287-.266-2.843 5.116a13.5 13.5 0 003.217 1.214M36.7 9.388a9.2 9.2 0 00-.118-3.949 6.7 6.7 0 00-1.624-2.966 7.754 7.754 0 00-2.88-1.824 11.079 11.079 0 00-3.9-.651 12.307 12.307 0 00-5.19 1.119 11.128 11.128 0 00-4.158 3.29 10.705 10.705 0 00-2.166 4.982 9.238 9.238 0 00.142 3.78 6.986 6.986 0 001.551 2.957 7.451 7.451 0 002.775 1.881 9.945 9.945 0 003.722.673 13.35 13.35 0 005.082-.914l.937 2.211 5.519-2.161-2.216-2.957a10.493 10.493 0 002.525-5.473m-10.715 3.483a2.451 2.451 0 01-2.156-1.062 3.354 3.354 0 01-.5-2.534 4.187 4.187 0 011.3-2.489 3.745 3.745 0 012.625-.969 2.73 2.73 0 012.271 1.003 3.129 3.129 0 01.555 2.525 3.353 3.353 0 01-.364 1.005l-4.211.769 1.251 1.683a3.28 3.28 0 01-.769.068m23.385 5.523l.914-5.81h-5.538L46.696.289h-6.6l-2.866 18.1zm7.329 0l2.866-18.1h-6.6l-2.862 18.101z" fill="#361551"/></g></svg>