<svg xmlns="http://www.w3.org/2000/svg" xmlns:xlink="http://www.w3.org/1999/xlink" width="156.979" height="65.505" viewBox="0 0 156.979 65.505"><defs><clipPath id="a"><path d="M0,51.107H156.979V-14.4H0Z" transform="translate(0 14.398)" fill="#361551"/></clipPath></defs><g transform="translate(0 14.398)"><g transform="translate(0 -14.398)" clip-path="url(#a)"><g transform="translate(0.627 46.823)"><path d="M9.676,14.351l.8-4.945H4.713l.268-1.779h5.082l.746-4.7H5.727l.287-1.729h5.564l.773-4.945H.14l-2.866,18.1ZM23.052-1.186A9.108,9.108,0,0,0,22.256.3h-.141a7.354,7.354,0,0,0-.337-1.488l-.942-2.566H13.393l4.386,8.476-7.9,9.627h7.516l2.6-3.7a8.808,8.808,0,0,0,.723-1.247h.191a3.1,3.1,0,0,0,.191,1.106l1.47,3.84h7.516L25.149,4.724l7.006-8.476H24.713Zm13.69,15.537.864-5.45h3.371a6.824,6.824,0,0,0,4.636-1.62A7.129,7.129,0,0,0,47.938,2.9q.505-3.242-1.251-4.945a7.009,7.009,0,0,0-5.082-1.7H33.248l-2.866,18.1ZM39.462,1.194c.273,0,.5,0,.673.009a3.168,3.168,0,0,1,.614.1,1.33,1.33,0,0,1,.541.237,1.152,1.152,0,0,1,.314.446,1.242,1.242,0,0,1,.045.7,1.807,1.807,0,0,1-.337.878,1.482,1.482,0,0,1-.66.5,3.744,3.744,0,0,1-.783.218,5.777,5.777,0,0,1-.892.059h-.651l.505-3.144ZM59.535,14.351l.792-4.945H54.571l.264-1.779h5.082l.746-4.7H55.581l.291-1.729h5.564l.769-4.945H49.995l-2.866,18.1Zm8.576,0,.914-5.81h.123l1.975,5.81h7.611L75.722,8.468a4.313,4.313,0,0,0-.937-1.083l.023-.141a6.778,6.778,0,0,0,2.975-1.67,5.637,5.637,0,0,0,1.288-3.039,6.229,6.229,0,0,0-.132-2.894,3.926,3.926,0,0,0-1.351-1.965,6.265,6.265,0,0,0-2.225-1.083A10.926,10.926,0,0,0,72.5-3.752H64.521l-2.866,18.1Zm2.6-13.157a3.027,3.027,0,0,1,1.515.3c.337.2.46.619.364,1.26a2.225,2.225,0,0,1-.314.805,1.27,1.27,0,0,1-.578.469,3.054,3.054,0,0,1-.71.191,6.093,6.093,0,0,1-.81.045h-.455l.482-3.071ZM85.868,14.351l2.866-18.1h-6.6l-2.866,18.1Zm14.841,0,.8-4.945H95.75l.264-1.779H101.1l.746-4.7H96.76l.291-1.729h5.56l.773-4.945H91.173l-2.866,18.1Zm8.389,0,.937-5.883a23.479,23.479,0,0,0,.168-3.626h.2l4.286,9.509H121l2.866-18.1h-6.31l-.842,5.423a28.119,28.119,0,0,0-.2,4.613h-.191L111.987-3.752h-6.333l-2.866,18.1ZM134.812-4.043a10.409,10.409,0,0,0-4.986,1.274A11.66,11.66,0,0,0,125.841.689a10.821,10.821,0,0,0-2.011,4.777,8.36,8.36,0,0,0,.469,4.645,7.036,7.036,0,0,0,2.807,3.317,8.205,8.205,0,0,0,4.477,1.21,20.431,20.431,0,0,0,2.566-.191,8.733,8.733,0,0,0,2.252-.528l1.278-6.77a6.319,6.319,0,0,1-4.072,1.679,3.124,3.124,0,0,1-2.42-1.019A2.87,2.87,0,0,1,130.5,5.3a3.99,3.99,0,0,1,1.433-2.5,4.093,4.093,0,0,1,2.712-1.033A4.883,4.883,0,0,1,138.229,3.6l.892-6.893a12.526,12.526,0,0,0-4.308-.746m16.142,18.394.8-4.945h-5.76l.268-1.779h5.082l.746-4.7h-5.082l.287-1.729h5.564l.773-4.945H141.418l-2.866,18.1Z" transform="translate(2.726 4.043)" fill="#361551"/></g><g transform="translate(0.77 23.411)"><path d="M6.521,14.351a10.649,10.649,0,0,0,6.975-2.4,9.95,9.95,0,0,0,3.549-6.388A9.756,9.756,0,0,0,16.9,1.312,5.822,5.822,0,0,0,15.069-1.6a8.392,8.392,0,0,0-3.13-1.62,15.019,15.019,0,0,0-4.19-.532H1.029L-1.837,14.351ZM7.148,1.912q3.876,0,3.3,3.626a3.618,3.618,0,0,1-1.47,2.543,4.988,4.988,0,0,1-2.939.842H5.629l1.11-7.011ZM23.882,14.351,26.748-3.756h-6.6L17.285,14.351ZM36.157,7.963h2.985a2.317,2.317,0,0,1-1.192,1.178,3.934,3.934,0,0,1-1.72.4,2.542,2.542,0,0,1-2.288-1.137,3.747,3.747,0,0,1-.505-2.725,5.488,5.488,0,0,1,1.47-2.966A3.819,3.819,0,0,1,37.772,1.48a2.717,2.717,0,0,1,1.406.359,2.046,2.046,0,0,1,.883,1.033L46.584.616a5.222,5.222,0,0,0-1.843-2.557,9.219,9.219,0,0,0-3.035-1.6,11.258,11.258,0,0,0-3.312-.505,12.594,12.594,0,0,0-5.309,1.119A10.739,10.739,0,0,0,28.968.366,10.892,10.892,0,0,0,26.834,5.42,8.954,8.954,0,0,0,27,9.31a6.469,6.469,0,0,0,1.688,2.9A8.068,8.068,0,0,0,31.593,14a10.781,10.781,0,0,0,3.794.637,12.12,12.12,0,0,0,4.359-.837A12,12,0,0,0,43.6,11.421a10.156,10.156,0,0,0,1.1-1.128A6.721,6.721,0,0,0,45.5,9.019c.223-.464.409-.86.555-1.187a8.4,8.4,0,0,0,.419-1.369c.136-.582.232-1.019.291-1.306s.141-.778.25-1.465H36.83ZM53.44,14.351,56.307-3.756h-6.6L46.839,14.351ZM59.76,1.962,57.785,14.351h6.6L66.357,1.962l3.612.168.919-5.887H57.012L56.1,2.131ZM79.209,12.094l.241,2.257h6.984L82.822-3.756h-7.3L66.348,14.351h6.984l.892-2.257ZM78.172,2.272h.241c0,1.074.018,1.852.05,2.329L78.727,7.8H76.079ZM98.936,14.351l.914-5.81H94.314l1.952-12.3h-6.6L86.8,14.351Z" transform="translate(1.837 4.043)" fill="#361551"/></g><g transform="translate(-0.001 -0.002)"><path d="M2.51,14.23a14.588,14.588,0,0,0,3.5.446,10.776,10.776,0,0,0,2.962-.409,10.469,10.469,0,0,0,2.7-1.187,7.136,7.136,0,0,0,2.12-2.043,6.987,6.987,0,0,0,1.133-2.821q.648-4.108-4-5.187L9.484,2.693a1.1,1.1,0,0,1-.2-.05c-.123-.032-.2-.055-.255-.068S8.9,2.533,8.8,2.5a.69.69,0,0,1-.232-.109c-.045-.041-.1-.086-.155-.146A.4.4,0,0,1,8.3,2.056a.766.766,0,0,1,0-.25.914.914,0,0,1,.555-.732A2.292,2.292,0,0,1,9.866.845,5.908,5.908,0,0,1,13.479,2.21l2.53-4.631a9.669,9.669,0,0,0-5.514-1.588,10.353,10.353,0,0,0-3.9.76A8.8,8.8,0,0,0,3.306-.933,6.952,6.952,0,0,0,1.559,2.693a3.657,3.657,0,0,0,.819,3.23A5.483,5.483,0,0,0,5.53,7.5l1.3.237a1.241,1.241,0,0,1,.2.036c.1.027.168.041.214.05s.123.023.218.045a.722.722,0,0,1,.191.073.875.875,0,0,0,.182.1c.086.041.141.082.155.123a.7.7,0,0,0,.109.155.187.187,0,0,1,.05.191.46.46,0,0,0-.014.241,1,1,0,0,1-.651.814,2.857,2.857,0,0,1-1.206.268A5.82,5.82,0,0,1,2.423,8.166L2.136,7.9-.707,13.016A13.5,13.5,0,0,0,2.51,14.23M35.994,5.381a9.2,9.2,0,0,0-.118-3.949,6.7,6.7,0,0,0-1.624-2.966,7.754,7.754,0,0,0-2.88-1.824,11.079,11.079,0,0,0-3.9-.651A12.307,12.307,0,0,0,22.282-2.89,11.128,11.128,0,0,0,18.124.4a10.705,10.705,0,0,0-2.166,4.982A9.238,9.238,0,0,0,16.1,9.162a6.986,6.986,0,0,0,1.551,2.957A7.451,7.451,0,0,0,20.426,14a9.945,9.945,0,0,0,3.722.673,13.35,13.35,0,0,0,5.082-.914l.937,2.211,5.519-2.161-2.216-2.957a10.493,10.493,0,0,0,2.525-5.473M25.28,8.862A2.451,2.451,0,0,1,23.124,7.8a3.354,3.354,0,0,1-.5-2.534,4.187,4.187,0,0,1,1.3-2.489,3.745,3.745,0,0,1,2.625-.969A2.73,2.73,0,0,1,28.82,2.811a3.129,3.129,0,0,1,.555,2.525,3.353,3.353,0,0,1-.364,1.005L24.8,7.11l1.251,1.683a3.28,3.28,0,0,1-.769.068m23.385,5.523.914-5.81H44.043L45.99-3.718h-6.6l-2.866,18.1Zm7.329,0,2.866-18.1h-6.6L49.4,14.385Z" transform="translate(0.707 4.009)" fill="#361551"/></g></g></g></svg>