<svg xmlns="http://www.w3.org/2000/svg" viewBox="0 0 183.007 78.021" height="20"><g stroke="#ea560d"><path d="M48.703 49.449a11.2 11.2 0 01-1.355.408q-.8.194-1.677.344t-1.762.259a13.408 13.408 0 01-1.613.107 11.963 11.963 0 01-3.222-.408 5.587 5.587 0 01-2.5-1.441 6.761 6.761 0 01-1.588-2.816 15.278 15.278 0 01-.559-4.494V27.519h3.7v13.76q0 3.311 1.01 4.665a3.587 3.587 0 003.075 1.355q.688 0 1.376-.065a7.518 7.518 0 001.419-.28V27.519h3.7zm6.321-21.285a30.438 30.438 0 013.44-.8 19.886 19.886 0 013.4-.323 9.753 9.753 0 013.053.451 5.34 5.34 0 012.343 1.527 7.394 7.394 0 011.505 2.9 16.32 16.32 0 01.537 4.537v13.638h-3.7v-13.33a10.55 10.55 0 00-.86-4.9 3.357 3.357 0 00-3.225-1.548 10.548 10.548 0 00-2.8.43v19.348h-3.7zm24.08 21.93h-3.7V27.519h3.7zm13.244.559a7.58 7.58 0 01-3.87-.9 7.161 7.161 0 01-2.516-2.472 10.907 10.907 0 01-1.376-3.719 25.142 25.142 0 01-.409-4.687q0-5.59 2.042-8.751a6.851 6.851 0 016.171-3.16 7.674 7.674 0 012.236.3 9.661 9.661 0 011.849.774l-.946 3.053a5.358 5.358 0 00-2.967-.86 3.613 3.613 0 00-3.419 2.107 14.8 14.8 0 00-1.1 6.536 25.264 25.264 0 00.22 3.42 9.028 9.028 0 00.753 2.688 4.6 4.6 0 001.419 1.763 3.726 3.726 0 002.257.645 5.656 5.656 0 001.7-.236 7.544 7.544 0 001.44-.623l.817 2.881a7.523 7.523 0 01-1.827.86 7.642 7.642 0 01-2.474.381zm8.3-22.661a13.805 13.805 0 012.365-.753 12.381 12.381 0 012.709-.279 6.674 6.674 0 014.9 1.87q1.892 1.87 1.892 5.826v14.965a28.8 28.8 0 01-3.16.688 19.987 19.987 0 01-3.16.258 10.523 10.523 0 01-2.9-.387 6.245 6.245 0 01-2.365-1.247 6.2 6.2 0 01-1.615-2.171 7.652 7.652 0 01-.6-3.2 8.072 8.072 0 01.537-3.075 6.119 6.119 0 011.482-2.193 6.278 6.278 0 012.236-1.333 8.4 8.4 0 012.8-.451 16.12 16.12 0 013.139.344V34.79a4.937 4.937 0 00-.968-3.483 3.705 3.705 0 00-2.773-.989 8.708 8.708 0 00-1.87.194 10.214 10.214 0 00-1.87.623zm1.762 15.523a3.782 3.782 0 001.032 2.924 4.172 4.172 0 002.924.946 11.935 11.935 0 002.537-.3v-7.181a9.819 9.819 0 00-2.537-.344 6.027 6.027 0 00-1.548.193 3.226 3.226 0 00-1.269.645 2.982 2.982 0 00-.839 1.2 5.2 5.2 0 00-.3 1.917zm16.211-15.351a30.438 30.438 0 013.44-.8 19.886 19.886 0 013.4-.323 9.753 9.753 0 013.053.451 5.34 5.34 0 012.34 1.532 7.394 7.394 0 011.5 2.9 16.32 16.32 0 01.537 4.537v13.633h-3.7v-13.33a10.55 10.55 0 00-.86-4.9 3.357 3.357 0 00-3.217-1.55 10.548 10.548 0 00-2.795.43v19.35h-3.7zm27.262 22.489a7.58 7.58 0 01-3.87-.9 7.161 7.161 0 01-2.515-2.472 10.906 10.906 0 01-1.376-3.719 25.142 25.142 0 01-.409-4.687q0-5.59 2.042-8.751a6.851 6.851 0 016.171-3.16 7.674 7.674 0 012.236.3 9.661 9.661 0 011.849.774l-.946 3.053a5.358 5.358 0 00-2.967-.86 3.613 3.613 0 00-3.418 2.107 14.8 14.8 0 00-1.1 6.536 25.263 25.263 0 00.215 3.419 9.028 9.028 0 00.752 2.688 4.6 4.6 0 001.427 1.759 3.726 3.726 0 002.257.645 5.656 5.656 0 001.7-.236 7.544 7.544 0 001.441-.623l.817 2.881a7.523 7.523 0 01-1.828.86 7.642 7.642 0 01-2.478.386zm10.277-10.75a18.641 18.641 0 00.3 2.988 7.554 7.554 0 00.839 2.365 4.174 4.174 0 001.548 1.57 4.894 4.894 0 002.473.559 6.976 6.976 0 002.3-.365 11 11 0 001.527-.624l.688 2.967a8.217 8.217 0 01-1.87.839 9.6 9.6 0 01-3.118.452 8.371 8.371 0 01-3.973-.86 7.05 7.05 0 01-2.623-2.408 10.445 10.445 0 01-1.44-3.7 24.161 24.161 0 01-.43-4.73q0-6.235 2.064-9.116a6.408 6.408 0 015.461-2.881 5.677 5.677 0 015.418 2.881 16.907 16.907 0 011.591 8.084v.967q0 .495-.043 1.011zm3.741-9.8a2.8 2.8 0 00-2.687 1.849 14.062 14.062 0 00-1.011 4.945h6.837a15.386 15.386 0 00-.645-4.967 2.46 2.46 0 00-2.494-1.836zm21.887.774a7.648 7.648 0 00-3.1-.6 7.807 7.807 0 00-2.967.559v19.258h-3.7V28.508a15.123 15.123 0 012.859-1.011 14.436 14.436 0 013.548-.409 16.625 16.625 0 012.064.129 8.312 8.312 0 011.935.473z" fill="#ea560d"/><path d="M77.255 14.019V2.35h-74.9v73.263s46.334.058 59.355.058 15.55-9.7 15.55-14.742v-6.335" fill="none" stroke-width="4.7"/><path d="M79.104 22.472h-3.7v-3.7h3.7z" fill="#ea560d"/></g></svg>