<svg width="27px" height="31px" viewBox="0 0 27 31" version="1.1" xmlns="http://www.w3.org/2000/svg" xmlns:xlink="http://www.w3.org/1999/xlink">
          <g id="Who-we-are" stroke="none" stroke-width="1" fill="none" fill-rule="evenodd">
            <g transform="translate(-837.000000, -3148.000000)" fill="#FFDE00" fill-rule="nonzero" id="Group-7">
              <g transform="translate(0.000000, 2117.000000)">
                <g id="Group-Copy-5" transform="translate(825.000000, 1020.000000)">
                  <path d="M38.6635062,22.1014201 C37.5660533,15.6111714 31.8421494,10.8920952 25.200549,11.0018764 C18.5589486,11.1116575 12.9971385,16.017279 12.1188459,22.5401854 C11.2405534,29.0630918 15.3099281,35.2414939 21.6902538,37.0721491 C20.2046496,38.7738577 18.2798023,40.0431898 16.1218409,40.7442146 C20.1637464,42.4127475 24.7098056,42.4187981 28.7562219,40.7610304 C32.8026382,39.1032627 36.0165808,35.9180334 37.6883924,31.9086599 C38.9959716,28.8097165 39.3356337,25.3935537 38.6635062,22.1014201 M20.1021299,25.5164669 C19.0825638,25.5210162 18.1608732,24.9159321 17.7677644,23.9839448 C17.3746557,23.0519576 17.5877512,21.9770956 18.3074715,21.2616423 C19.0271917,20.5461889 20.1114221,20.3314163 21.0535013,20.7176876 C21.9955806,21.103959 22.6094876,22.0150019 22.608345,23.0250858 C22.6099203,24.3983626 21.488309,25.5133244 20.1021299,25.5164669" id="Shape"></path>
                </g>
              </g>
            </g>
          </g>
        </svg>