<svg xmlns="http://www.w3.org/2000/svg" viewBox="0 0 498.064 210.215"><path d="M0 89.605c4.656 0 11.5-.007 17.82 0 1.406 2.99.483.99 1.682 3.506 7.751 16.268 15.64 32.471 23.49 48.692.359.741.782 1.451 1.26 2.333 1.534-1.139 23.954-51.848 25.12-54.537h17.453c-2.239 5.008-4.26 9.613-6.35 14.187C64.962 137.759 49.369 171.7 33.99 205.739c-1.537 3.4-3.265 4.781-6.994 4.424-3.78-.361-7.622-.079-11.684-.079a7.681 7.681 0 011.209-3.705c6.031-13.233 12.034-26.48 18.156-39.673a6.69 6.69 0 00.085-6.467C23.762 138.192 1.636 93.246 0 89.605zM346.485 164.533V204.5c0 1.161-.058 2.326.009 3.483.083 1.42-.382 2.136-1.942 2.112-3.823-.059-7.649-.034-11.473-.011-1.181.007-1.9-.36-1.846-1.682.04-.994 0-1.99 0-2.986 0-25.213.5-50.44-.158-75.636-.536-20.474 16.061-38.915 36.975-41.051 24.373-2.49 42.7 13.725 45.815 34.766 3.813 25.757-12.579 44.363-32.838 48.185-10.426 1.967-20.485.565-29.749-4.971-1.278-.764-2.535-1.561-3.816-2.32-.108-.064-.318.04-.977.144zm26.467-7.114c14.766-.045 25.988-11.619 26.059-26.875.072-15.373-11.389-26.992-26.417-27.1-11.689-.084-25.622 8.282-25.991 26.963-.305 15.432 11.264 27.057 26.349 27.012zM218.979 144.639l10.064 11.434c-7.859 10.375-18.733 15.6-32.109 16.319-20.505 1.1-37.576-11.613-41.57-31.6-3.448-17.261.2-32.836 14.418-44.282 11.539-9.291 24.872-10.655 38.425-4.863 13.709 5.859 20.721 16.95 22.375 31.556a42.222 42.222 0 01.192 7.923c-.182 2.456-.857 3.7-3.506 3.275a15.9 15.9 0 00-2.49-.02q-24.675 0-49.352.017c-1.637 0-3.32-.332-5.184.472 1.185 9.735 5.71 17.306 15.163 20.732 13.326 4.824 24.316.637 33.574-10.963zm-5.141-25.226c-2.734-9.956-11-16.014-21.17-15.927a21.574 21.574 0 00-20.847 15.927zM280.162 172.409c-21.521.438-41.681-17-41.446-42.28.242-25.915 21.194-41.929 42.154-41.712 19.727.2 41.207 15.358 41.181 42.164-.021 25.845-20.735 42.469-41.889 41.828zm-25.8-41.806c-.476 14.267 11.027 29.554 30.874 26.52 10.954-1.675 19.412-10.962 21.055-22.308 1.686-11.643-3.69-23.192-13.393-28.256-17.903-9.348-38.951 3.027-38.529 24.044zM144.203 98.179l-7.8 12.319c-2.539-1.44-4.888-2.868-7.321-4.134a23.864 23.864 0 00-18.791-1.83 11.342 11.342 0 00-4.671 2.758c-3.787 3.759-3.149 8.583 1.528 11.1 3.671 1.974 7.724 2.94 11.7 4.076a104.663 104.663 0 0114.076 4.815c19.006 8.482 15.722 30.735 3.474 39.4a30.152 30.152 0 01-15.7 5.614c-11.327.76-21.756-1.715-31.061-8.342-1.482-1.055-2.795-2.345-4.186-3.527-1.1-.937-1.051-1.865-.145-2.962 2.726-3.3 5.394-6.649 8.173-10.089 2.17 1.636 4.084 3.222 6.139 4.6 5.81 3.892 12.14 6.056 19.246 5.389a14.938 14.938 0 009.054-3.675c4.28-3.944 3.832-9.43-1.065-12.6-2.951-1.907-6.351-2.778-9.691-3.744-5.4-1.563-10.916-2.8-16.083-5.1-6.348-2.813-11.565-6.936-12.928-14.07-1.629-8.526.588-16.12 7.231-22.081a29.85 29.85 0 0113.627-6.832c11.175-2.539 27.147 1.336 35.194 8.915z" fill="#1e1633"/><path d="M496.962 36.354a43.9 43.9 0 10-55.582 49.024A41.025 41.025 0 01423.148 97.4a54.426 54.426 0 0041.374.055 53.708 53.708 0 0029.25-28.989 54.525 54.525 0 003.193-32.116M436.18 47.537a8.246 8.246 0 01-7.644-5.019 8.112 8.112 0 011.767-8.918 8.3 8.3 0 018.992-1.781 8.156 8.156 0 01-3.115 15.714" fill="#ffde00"/></svg>