<svg xmlns="http://www.w3.org/2000/svg" id="Calque_1" data-name="Calque 1" viewBox="0 0 300 130.28"><defs><style>.cls-1{fill:#260842}</style></defs><path class="cls-1" d="M43.31 55.84L28.24 88.98 12.23 55.84H1.76l21.61 43.97-12.7 27.94h10l32.74-71.91h-10.1zM71.59 105.26a27 27 0 01-18.5-6.82l-1.19-1.11 5.56-7 1.38 1.17c2.68 2.27 7 5 12.36 5 4.13 0 8.51-2.13 8.51-6.07 0-3.77-3.87-5-10.18-6.71C62.61 81.81 54 79.49 54 70c0-9.24 8.6-14.76 16.91-14.76a27.57 27.57 0 0115.35 4.6l1.42 1-4.8 7.52-1.48-1C77.87 65.1 75.4 64 71.2 64c-3.26 0-8.12 1.56-8.12 5.87 0 2.83 3.54 4 9.38 5.64 7.27 2 16.34 4.55 16.34 14.6 0 8.78-7.24 15.15-17.21 15.15M199 127.75v-49c0-12.64 11.36-23.53 24.73-23.53a24.61 24.61 0 0124.73 24.49v.51a24.83 24.83 0 01-40.38 19.56v28zM223.7 64c-8.92 0-15.65 7-15.65 16.23s6.73 16.24 15.65 16.24 15.65-7 15.65-16.24S232.62 64 223.7 64M168.7 105.26A24.61 24.61 0 01144 80.77v-.51a24.73 24.73 0 0149.46 0 24.62 24.62 0 01-24.22 25h-.51m0-41.26c-8.92 0-15.65 7-15.65 16.23s6.73 16.24 15.65 16.24 15.65-7 15.65-16.24S177.62 64 168.7 64M117.78 105.26c-14 0-24.14-10.53-24.14-25 0-14.26 9.91-25 23.06-25 12.82 0 22.49 10.12 22.49 23.56a17.11 17.11 0 01-.11 2.15l-.17 1.56h-36c1.16 9.64 8.15 14 14.91 14a16.17 16.17 0 0012.92-6l1.15-1.53 6.45 6.12-1 1.26c-4.39 5.56-11.71 8.88-19.56 8.88m11.71-31.38A13.22 13.22 0 00116.7 64c-6.08 0-11 3.81-13.14 9.88z"/><path d="M297.59 24.38a25.89 25.89 0 10-32.75 29.13 24 24 0 01-10.74 7.16 31.79 31.79 0 0041.57-17.12v-.09a32.72 32.72 0 001.88-19.08M261.8 31a4.86 4.86 0 114.83-4.89A4.85 4.85 0 01261.8 31" fill="#ffde17"/></svg>