<?xml version="1.0" encoding="UTF-8" standalone="no"?><!-- Generator: Gravit.io --><svg xmlns="http://www.w3.org/2000/svg" xmlns:xlink="http://www.w3.org/1999/xlink" style="isolation:isolate" viewBox="459 277 577.372 191.284" width="577.372pt" height="191.284pt"><g><path d=" M 464.312 314.754 L 479.513 314.754 L 479.513 369.919 L 506.819 369.919 L 506.819 381.838 L 464.312 381.838 L 464.312 314.754 Z  M 543.481 364.665 L 543.481 360.537 L 538.226 360.537 C 530.344 360.537 525.744 362.234 525.744 367.482 C 525.744 371.046 527.903 373.392 532.873 373.392 C 538.878 373.392 543.474 370.109 543.474 364.665 L 543.481 364.665 Z  M 512.424 368.232 C 512.424 356.786 522.947 352.468 537.944 352.468 L 543.481 352.468 L 543.481 350.499 C 543.481 344.681 541.698 341.493 535.503 341.493 C 531.229 340.931 527.381 344.13 527.153 348.435 L 514.298 348.435 C 515.143 336.799 524.339 331.642 536.362 331.642 C 548.386 331.642 556.91 336.52 556.91 349.844 L 556.91 381.838 L 543.671 381.838 L 543.671 375.928 C 540.282 380.673 534.661 383.304 528.847 382.866 C 519.932 382.866 512.427 378.552 512.427 368.232 L 512.424 368.232 Z  M 614.23 345.621 C 621.831 345.621 625.677 342.43 625.677 335.957 L 625.677 335.58 C 625.677 328.733 621.549 326.387 614.23 326.387 L 605.689 326.387 L 605.689 345.621 L 614.23 345.621 Z  M 590.587 314.754 L 614.604 314.754 C 630.463 314.754 640.501 321.224 640.501 335.122 L 640.501 335.498 C 640.879 344.013 635.045 351.552 626.709 353.323 L 644.442 381.838 L 628.304 381.838 L 612.258 355.94 L 605.689 355.94 L 605.689 381.838 L 590.587 381.838 L 590.587 314.754 Z  M 672.396 311.183 L 686.653 311.183 L 676.894 326.119 L 667.05 326.119 L 672.396 311.183 Z  M 683.466 351.999 C 682.997 344.589 679.246 341.021 672.773 341.021 C 666.663 341.021 662.542 345.057 661.513 351.999 L 683.466 351.999 Z  M 647.531 357.909 L 647.531 357.163 C 646.84 342.902 658.506 331.108 672.773 331.642 C 685.438 331.642 696.694 339.052 696.694 356.599 L 696.694 360.35 L 661.323 360.35 C 661.7 368.497 666.109 373.205 673.523 373.205 C 679.806 373.205 682.902 370.49 683.747 366.355 L 696.603 366.355 C 695.007 376.96 686.565 382.866 673.146 382.866 C 658.322 382.866 647.531 373.579 647.531 357.909 Z  M 740.131 356.036 L 740.131 355.377 C 740.131 347.026 735.718 341.962 728.308 341.962 C 720.711 341.962 716.488 347.393 716.488 355.472 L 716.488 356.222 C 716.488 364.369 721.274 369.461 728.03 369.461 C 735.158 369.461 740.135 364.396 740.135 356.046 L 740.131 356.036 Z  M 702.974 382.853 L 716.488 382.853 C 717.33 387.174 720.429 389.981 727.371 389.981 C 735.627 389.981 739.754 385.667 739.754 377.971 L 739.754 370.557 C 736.474 376.159 730.485 379.617 723.993 379.658 C 712.079 379.658 702.608 370.748 702.608 356.202 L 702.608 355.543 C 702.608 341.473 711.994 331.622 724.19 331.622 C 730.58 331.17 736.653 334.461 739.765 340.061 L 739.765 332.745 L 753.275 332.745 L 753.275 377.971 C 753.183 392.514 743.519 399.924 727.381 399.924 C 711.525 399.924 704.298 392.985 702.985 382.846 L 702.974 382.853 Z  M 765.645 332.766 L 779.155 332.766 L 779.155 381.838 L 765.645 381.838 L 765.645 332.766 Z  M 764.626 318.692 C 764.365 312.732 770.654 308.724 775.946 311.478 C 781.238 314.232 781.565 321.682 776.534 324.888 C 775.276 325.69 773.814 326.111 772.322 326.102 C 768.124 326.25 764.637 322.893 764.626 318.692 Z  M 826.53 357.631 L 826.53 356.976 C 826.53 347.59 822.117 341.962 814.523 341.962 C 807.014 341.962 802.513 347.393 802.513 356.786 L 802.513 357.539 C 802.513 366.919 806.831 372.547 814.523 372.547 C 822.124 372.547 826.53 366.919 826.53 357.631 Z  M 788.626 357.818 L 788.626 357.067 C 788.123 342.634 800.102 330.874 814.523 331.642 C 829.252 331.642 840.322 341.486 840.322 356.786 L 840.322 357.539 C 840.322 373.015 829.157 382.866 814.425 382.866 C 799.787 382.866 788.626 373.11 788.626 357.818 Z  M 849.419 332.766 L 863.021 332.766 L 863.021 340.553 C 866.15 334.729 872.376 331.252 878.976 331.642 C 888.637 331.642 895.487 337.457 895.487 350.594 L 895.487 381.824 L 881.882 381.824 L 881.882 352.563 C 881.882 345.899 879.258 342.719 873.249 342.719 C 867.231 342.365 862.346 347.519 863.021 353.51 L 863.021 381.844 L 849.419 381.844 L 849.419 332.766 Z  M 468.42 443.256 L 481.733 443.256 L 475.077 423.496 L 468.42 443.256 Z  M 472.229 419.629 L 478.339 419.629 L 491.333 458.022 L 486.713 458.022 L 482.955 446.959 L 467.116 446.959 L 463.413 458.022 L 459 458.022 L 472.205 419.629 L 472.229 419.629 Z  M 496.714 447.713 L 496.714 429.939 L 501.171 429.939 L 501.171 447.495 C 501.171 452.438 503.265 454.624 507.668 454.624 C 512 454.831 515.577 451.279 515.401 446.945 L 515.401 429.925 L 519.858 429.925 L 519.858 458.008 L 515.401 458.008 L 515.401 453.551 C 513.624 456.778 510.158 458.702 506.48 458.504 C 500.896 458.504 496.707 455.449 496.707 447.713 L 496.714 447.713 Z  M 525.707 429.939 L 530.537 429.939 L 538.861 453.511 L 547.075 429.939 L 551.692 429.939 L 541.597 458.022 L 535.904 458.022 L 525.72 429.939 L 525.707 429.939 Z  M 575.855 441.27 C 575.423 435.468 572.419 433.16 567.799 433.16 C 563.285 433.181 559.59 436.758 559.425 441.27 L 575.855 441.27 Z  M 554.645 444.274 L 554.645 443.846 C 554.645 435.36 560.077 429.457 567.799 429.457 C 574.296 429.457 580.417 433.374 580.417 443.412 L 580.417 444.865 L 559.262 444.865 C 559.479 451.253 562.538 454.8 568.285 454.8 C 572.633 454.8 575.155 453.188 575.753 449.909 L 580.206 449.909 C 579.239 455.554 574.568 458.504 568.234 458.504 C 560.372 458.753 554.039 452.115 554.656 444.274 L 554.645 444.274 Z  M 587.233 429.939 L 591.683 429.939 L 591.683 434.986 C 593.383 431.465 597.014 429.291 600.92 429.457 L 600.92 433.642 C 595.282 433.914 591.683 435.679 591.683 442.611 L 591.683 458.022 L 587.226 458.022 L 587.226 429.939 L 587.233 429.939 Z  M 626.967 443.469 L 626.967 443.096 C 626.967 436.809 623.531 433.16 618.052 433.16 C 612.472 433.16 609.142 437.298 609.142 443.201 L 609.142 443.629 C 608.606 448.789 612.597 453.304 617.784 453.405 C 623.199 453.507 627.487 448.858 626.95 443.469 L 626.967 443.469 Z  M 605.112 459.634 L 609.675 459.634 C 610.32 462.852 613.005 464.516 617.781 464.516 C 623.314 464.516 626.804 461.885 626.804 455.873 L 626.804 451.8 C 624.711 455.036 621.152 457.026 617.299 457.116 C 609.993 457.202 604.135 451.098 604.522 443.802 L 604.522 443.418 C 604.14 435.893 610.087 429.558 617.621 429.463 C 621.368 429.288 624.901 431.211 626.787 434.453 L 626.787 429.945 L 631.244 429.945 L 631.244 456.148 C 631.189 464.295 625.66 468.284 617.818 468.284 C 609.495 468.284 605.846 464.36 605.092 459.641 L 605.112 459.634 Z  M 640.283 429.939 L 644.737 429.939 L 644.737 434.392 C 646.545 431.15 650.051 429.231 653.757 429.457 C 659.558 429.457 663.638 432.624 663.638 440.784 L 663.638 458.022 L 659.184 458.022 L 659.184 440.462 C 659.184 435.523 657.087 433.333 652.579 433.333 C 648.207 433.062 644.56 436.632 644.737 441.008 L 644.737 458.035 L 640.283 458.035 L 640.283 429.952 L 640.283 429.939 Z  M 691.504 441.27 C 691.073 435.468 688.065 433.16 683.449 433.16 C 678.935 433.181 675.24 436.758 675.074 441.27 L 691.504 441.27 Z  M 670.295 444.274 L 670.295 443.846 C 670.295 435.36 675.726 429.457 683.449 429.457 C 689.946 429.457 696.066 433.374 696.066 443.412 L 696.066 444.865 L 674.911 444.865 C 675.125 451.253 678.187 454.8 683.934 454.8 C 688.283 454.8 690.808 453.188 691.402 449.909 L 695.859 449.909 C 694.892 455.554 690.221 458.504 683.887 458.504 C 676.025 458.753 669.692 452.115 670.308 444.274 L 670.295 444.274 Z  M 701.596 441.161 L 713.083 441.161 L 713.083 445.347 L 701.596 445.347 L 701.596 441.161 Z  M 733.006 437.617 C 738.485 437.617 741.438 435.241 741.438 430.526 L 741.438 430.312 C 741.438 425.105 738.217 423.387 733.006 423.387 L 725.813 423.387 L 725.813 437.617 L 733.006 437.617 Z  M 721.142 419.626 L 732.684 419.626 C 740.04 419.626 746.109 422.63 746.109 430.309 L 746.109 430.523 C 746.207 435.976 742.042 440.563 736.604 440.991 L 748.363 458.018 L 743.156 458.018 L 731.72 441.317 L 725.813 441.317 L 725.813 458.018 L 721.142 458.018 L 721.142 419.626 Z  M 754.534 416.517 L 758.991 416.517 L 758.991 434.392 C 760.8 431.149 764.308 429.23 768.014 429.457 C 773.812 429.457 777.892 432.624 777.892 440.784 L 777.892 458.022 L 773.439 458.022 L 773.439 440.462 C 773.439 435.523 771.344 433.333 766.833 433.333 C 762.461 433.062 758.814 436.632 758.991 441.008 L 758.991 458.035 L 754.534 458.035 L 754.534 416.517 Z  M 796.376 417.372 L 800.402 417.372 L 806.149 425.105 L 802.873 425.105 L 798.307 421.079 L 793.742 425.105 L 790.578 425.105 L 796.376 417.372 Z  M 807.544 444.223 L 807.544 443.846 C 807.544 437.349 803.946 433.16 798.362 433.16 C 792.778 433.16 789.196 437.349 789.196 443.795 L 789.196 444.223 C 789.196 450.612 792.686 454.8 798.362 454.8 C 804.037 454.8 807.544 450.557 807.544 444.223 Z  M 784.563 444.223 L 784.563 443.795 C 784.133 433.174 795.363 426.07 804.776 431.009 C 809.482 433.477 812.353 438.427 812.161 443.738 L 812.161 444.169 C 812.589 454.79 801.359 461.893 791.946 456.953 C 787.241 454.484 784.369 449.533 784.563 444.223 Z  M 819.072 429.939 L 823.532 429.939 L 823.532 434.392 C 825.339 431.149 828.846 429.23 832.552 429.457 C 838.353 429.457 842.433 432.624 842.433 440.784 L 842.433 458.022 L 837.976 458.022 L 837.976 440.462 C 837.976 435.523 835.882 433.333 831.37 433.333 C 826.999 433.062 823.353 436.632 823.532 441.008 L 823.532 458.035 L 819.075 458.035 L 819.075 429.952 L 819.072 429.939 Z  M 870.293 441.27 C 869.865 435.468 866.857 433.16 862.241 433.16 C 857.726 433.181 854.03 436.758 853.863 441.27 L 870.293 441.27 Z  M 849.083 444.274 L 849.083 443.846 C 849.083 435.36 854.515 429.457 862.241 429.457 C 868.738 429.457 874.858 433.374 874.858 443.412 L 874.858 444.865 L 853.7 444.865 C 853.917 451.253 856.976 454.8 862.723 454.8 C 867.075 454.8 869.597 453.188 870.191 449.909 L 874.644 449.909 C 873.68 455.554 869.009 458.504 862.672 458.504 C 854.81 458.753 848.477 452.115 849.093 444.274 L 849.083 444.274 Z  M 880.388 441.161 L 891.875 441.161 L 891.875 445.347 L 880.388 445.347 L 880.388 441.161 Z  M 904.815 443.256 L 918.132 443.256 L 911.475 423.496 L 904.815 443.256 Z  M 908.627 419.629 L 914.738 419.629 L 927.732 458.022 L 923.112 458.022 L 919.354 446.959 L 903.515 446.959 L 899.808 458.022 L 895.395 458.022 L 908.604 419.629 L 908.627 419.629 Z  M 934.294 416.517 L 938.805 416.517 L 938.805 458.022 L 934.294 458.022 L 934.294 416.517 Z  M 970.052 444.223 L 970.052 443.795 C 970.052 436.704 966.131 433.16 961.406 433.16 C 956.199 433.16 952.241 436.599 952.241 443.795 L 952.241 444.223 C 952.241 451.416 955.999 454.8 961.474 454.8 C 967.061 454.8 970.069 451.039 970.069 444.223 L 970.052 444.223 Z  M 947.93 429.939 L 952.387 429.939 L 952.387 434.664 C 954.492 431.456 958.055 429.504 961.892 429.457 C 969.248 429.457 974.672 434.827 974.672 443.575 L 974.672 444.006 C 974.672 452.594 969.624 458.504 961.892 458.504 C 958.034 458.656 954.397 456.708 952.387 453.412 L 952.387 467.798 L 947.93 467.798 L 947.93 429.939 Z  M 1000.708 441.27 C 1000.277 435.468 997.27 433.16 992.653 433.16 C 988.139 433.181 984.444 436.758 984.279 441.27 L 1000.708 441.27 Z  M 979.499 444.274 L 979.499 443.846 C 979.499 435.36 984.93 429.457 992.653 429.457 C 999.15 429.457 1005.274 433.374 1005.274 443.412 L 1005.274 444.865 L 984.116 444.865 C 984.333 451.253 987.392 454.8 993.135 454.8 C 997.487 454.8 1000.009 453.188 1000.603 449.909 L 1005.057 449.909 C 1004.089 455.554 999.418 458.504 993.084 458.504 C 985.223 458.753 978.889 452.115 979.506 444.274 L 979.499 444.274 Z  M 1010.05 449.376 L 1014.399 449.376 C 1014.721 452.706 1016.49 454.807 1021.001 454.807 C 1025.241 454.807 1027.111 453.354 1027.111 450.35 C 1027.111 447.346 1024.912 446.429 1020.563 445.625 C 1013.258 444.267 1010.79 442.23 1010.79 437.356 C 1011.236 432.552 1015.491 429.019 1020.295 429.463 C 1025.346 429.463 1029.695 431.5 1030.448 437.57 L 1026.151 437.57 C 1025.509 434.515 1023.775 433.157 1020.244 433.157 C 1017.023 433.157 1014.925 434.766 1014.925 437.183 C 1014.925 439.708 1016.323 440.727 1021.48 441.64 C 1027.278 442.712 1031.358 444.016 1031.358 449.963 C 1031.358 455.055 1027.868 458.501 1021.049 458.501 C 1014.338 458.501 1010.312 455.106 1010.044 449.373 L 1010.05 449.376 Z " fill="rgb(53,61,77)"/><path d=" M 1036.372 326.102 C 1036.361 363.891 995.447 387.498 962.727 368.594 C 930.006 349.691 930.019 302.455 962.75 283.57 C 970.209 279.266 978.668 277.001 987.279 277 C 1014.396 277 1036.377 298.986 1036.372 326.102 L 1036.372 326.102 Z  M 994.859 297.707 L 990.168 297.707 L 979.095 316.716 L 983.776 319.432 L 992.507 304.435 L 1010.267 334.888 L 1014.955 332.172 L 994.859 297.69 L 994.859 297.707 Z  M 1017.807 340.478 L 968.294 340.478 L 968.294 345.91 L 1017.807 345.91 L 1017.807 340.478 Z  M 994.126 320.769 C 988.274 327.74 977.651 328.043 971.41 321.418 L 966.583 321.418 L 966.386 321.757 L 953.88 343.163 L 958.558 345.879 L 967.639 330.332 L 967.615 330.332 L 969.546 327.015 C 978.219 334.009 990.88 332.842 998.129 324.381 L 994.126 320.752 L 994.126 320.769 Z " fill="rgb(25,146,193)"/></g></svg>