<svg xmlns="http://www.w3.org/2000/svg" viewBox="0 0 170.079 56.344"><path d="M170.08 14.461A14.461 14.461 0 11155.618-.004a14.462 14.462 0 0114.462 14.465z" fill="#1992c1"/><path d="M157.851 6.096h-1.382l-3.262 5.6 1.379.8 2.572-4.418 5.232 8.971 1.381-.8-5.92-10.158zM164.611 20.296h-14.586v-1.6h14.586v1.6z" fill="#fff"/><path d="M157.635 12.89a4.48 4.48 0 01-6.692.191h-1.422l-.058.1-3.684 6.306 1.378.8 2.675-4.58h-.007l.569-.977a6.07 6.07 0 008.42-.776l-1.179-1.069z" fill="#fff"/><path d="M1.558 11.118h4.478v16.251h8.044v3.511H1.558V11.118zM24.88 25.821v-1.216h-1.548c-2.322 0-3.677.5-3.677 2.046 0 1.05.636 1.741 2.1 1.741 1.769 0 3.123-.967 3.123-2.571zm-9.149 1.051c0-3.372 3.1-4.644 7.518-4.644h1.631v-.58c0-1.714-.525-2.653-2.35-2.653a2.179 2.179 0 00-2.46 2.045h-3.787c.249-3.428 2.958-4.947 6.5-4.947s6.053 1.437 6.053 5.362v9.425h-3.9v-1.741a4.913 4.913 0 01-4.367 2.044c-2.626 0-4.837-1.271-4.837-4.311zM45.722 20.211c2.239 0 3.372-.94 3.372-2.847v-.111c0-2.017-1.216-2.708-3.372-2.708h-2.516v5.666zm-6.965-9.093h7.075c4.672 0 7.629 1.906 7.629 6v.111a5.135 5.135 0 01-4.063 5.251l5.224 8.4h-4.754l-4.727-7.629h-1.935v7.629h-4.449V11.118zM62.857 10.066h4.2l-2.875 4.4h-2.9l1.575-4.4zm3.261 12.024c-.138-2.183-1.243-3.234-3.15-3.234-1.8 0-3.014 1.189-3.317 3.234zm-10.586 1.741v-.22a7.176 7.176 0 017.436-7.518c3.731 0 7.047 2.183 7.047 7.352v1.105h-10.42c.111 2.4 1.41 3.787 3.594 3.787 1.851 0 2.763-.8 3.012-2.018h3.787c-.47 3.124-2.957 4.864-6.91 4.864-4.367 0-7.546-2.736-7.546-7.352zM82.811 23.279v-.194c0-2.46-1.3-3.952-3.483-3.952-2.238 0-3.482 1.6-3.482 3.98v.221c0 2.4 1.41 3.9 3.4 3.9 2.1 0 3.566-1.492 3.566-3.952zm-10.946 7.9h3.981c.248 1.273 1.161 2.1 3.206 2.1 2.432 0 3.648-1.271 3.648-3.538v-2.184a5.421 5.421 0 01-4.643 2.681c-3.51 0-6.3-2.625-6.3-6.91v-.194c0-4.145 2.765-7.047 6.358-7.047a4.857 4.857 0 014.588 2.486v-2.155h3.98v13.323c-.027 4.284-2.874 6.467-7.628 6.467-4.671 0-6.8-2.044-7.187-5.031zM90.327 16.424h3.98V30.88h-3.98V16.424zm-.3-4.146a2.283 2.283 0 112.267 2.183 2.19 2.19 0 01-2.267-2.183zM108.263 23.749v-.193c0-2.765-1.3-4.423-3.537-4.423-2.212 0-3.538 1.6-3.538 4.367v.222c0 2.763 1.272 4.421 3.538 4.421 2.239 0 3.537-1.658 3.537-4.394zm-11.166.055v-.221a7.248 7.248 0 017.629-7.49c4.339 0 7.6 2.9 7.6 7.407v.222c0 4.559-3.289 7.461-7.629 7.461-4.312 0-7.6-2.874-7.6-7.379zM115.006 16.424h4.007v2.294a5 5 0 014.7-2.625c2.846 0 4.864 1.713 4.864 5.583v9.2h-4.008v-8.62c0-1.963-.773-2.9-2.543-2.9a2.863 2.863 0 00-3.013 3.179v8.347h-4.007V16.424zM2.768 48.973H6.69l-1.961-5.821-1.961 5.821zm1.122-6.96h1.8l3.828 11.31H8.157L7.05 50.064H2.384l-1.091 3.259h-1.3l3.89-11.31zM11.103 50.286V45.05h1.313v5.172c0 1.456.617 2.1 1.914 2.1a2.176 2.176 0 002.278-2.262v-5.014h1.313v8.273h-1.313v-1.313a2.826 2.826 0 01-2.628 1.459c-1.645 0-2.879-.9-2.879-3.179zM19.644 45.05h1.423l2.452 6.944 2.42-6.944h1.36l-2.974 8.273h-1.677l-3-8.273zM34.417 48.388c-.127-1.709-1.012-2.389-2.373-2.389a2.48 2.48 0 00-2.467 2.389zm-6.248.885v-.126c0-2.5 1.6-4.239 3.875-4.239 1.914 0 3.717 1.154 3.717 4.111v.428h-6.232c.064 1.882.965 2.927 2.658 2.927 1.281 0 2.024-.475 2.2-1.441h1.312c-.285 1.663-1.661 2.532-3.527 2.532a3.889 3.889 0 01-4-4.192zM37.769 45.05h1.311v1.487a2.886 2.886 0 012.721-1.629v1.233c-1.661.08-2.721.6-2.721 2.642v4.54h-1.313V45.05zM49.474 49.036v-.11c0-1.852-1.012-2.927-2.626-2.927-1.644 0-2.625 1.219-2.625 2.958v.126a2.611 2.611 0 002.546 2.88 2.663 2.663 0 002.7-2.927zm-6.438 4.762h1.344c.19.948.981 1.438 2.388 1.438 1.63 0 2.658-.775 2.658-2.546v-1.2a3.429 3.429 0 01-2.8 1.566 3.725 3.725 0 01-3.764-3.922v-.113a3.913 3.913 0 013.859-4.111 2.963 2.963 0 012.7 1.47v-1.328h1.313v7.719c-.016 2.4-1.645 3.575-3.955 3.575-2.452 0-3.527-1.156-3.749-2.546zM53.397 45.05h1.312v1.312a2.844 2.844 0 012.657-1.454c1.709 0 2.911.933 2.911 3.337v5.078h-1.312V48.15c0-1.455-.618-2.1-1.946-2.1a2.177 2.177 0 00-2.31 2.261v5.016h-1.312v-8.273zM68.486 48.388c-.127-1.709-1.013-2.389-2.373-2.389a2.48 2.48 0 00-2.467 2.389zm-6.248.885v-.126c0-2.5 1.6-4.239 3.875-4.239 1.914 0 3.717 1.154 3.717 4.111v.428h-6.232c.063 1.882.965 2.927 2.658 2.927 1.281 0 2.025-.475 2.2-1.441h1.313c-.285 1.663-1.661 2.532-3.527 2.532a3.889 3.889 0 01-4-4.192zM71.459 48.356h3.384v1.233h-3.384v-1.233zM80.712 47.312c1.614 0 2.484-.7 2.484-2.089v-.063c0-1.534-.949-2.04-2.484-2.04h-2.119v4.192zm-3.495-5.3h3.4c2.167 0 3.955.885 3.955 3.147v.063a3.039 3.039 0 01-2.8 3.084l3.464 5.016h-1.534l-3.369-4.92h-1.74v4.92h-1.376v-11.31zM87.054 41.096h1.313v5.266a2.845 2.845 0 012.658-1.454c1.708 0 2.91.933 2.91 3.337v5.078h-1.312V48.15c0-1.455-.617-2.1-1.946-2.1a2.177 2.177 0 00-2.31 2.261v5.016h-1.313V41.096zM99.38 41.348h1.186l1.693 2.278h-.965l-1.345-1.186-1.345 1.186h-.932l1.708-2.278zm3.29 7.91v-.111c0-1.914-1.06-3.148-2.705-3.148s-2.7 1.234-2.7 3.133v.126c0 1.882 1.028 3.116 2.7 3.116s2.705-1.25 2.705-3.116zm-6.77 0v-.126a4.068 4.068 0 118.13-.017v.127a4.068 4.068 0 11-8.13.016zM106.066 45.05h1.314v1.312a2.843 2.843 0 012.657-1.454c1.709 0 2.911.933 2.911 3.337v5.078h-1.313V48.15c0-1.455-.617-2.1-1.946-2.1a2.176 2.176 0 00-2.309 2.261v5.016h-1.313v-8.273zM121.155 48.388c-.126-1.709-1.012-2.389-2.372-2.389a2.481 2.481 0 00-2.468 2.389zm-6.248.885v-.126c0-2.5 1.6-4.239 3.876-4.239 1.914 0 3.717 1.154 3.717 4.111v.428h-6.233c.064 1.882.965 2.927 2.658 2.927 1.282 0 2.025-.475 2.2-1.441h1.312c-.284 1.663-1.66 2.532-3.527 2.532a3.889 3.889 0 01-4-4.192zM124.129 48.356h3.384v1.233h-3.384v-1.233zM131.325 48.973h3.923l-1.961-5.821-1.962 5.821zm1.123-6.96h1.8l3.828 11.31h-1.361l-1.107-3.259h-4.666l-1.092 3.259h-1.3l3.891-11.31zM140.009 41.096h1.329v12.227h-1.329V41.096zM150.543 49.258v-.126c0-2.089-1.155-3.133-2.547-3.133-1.534 0-2.7 1.013-2.7 3.133v.126c0 2.119 1.107 3.116 2.72 3.116 1.646 0 2.532-1.108 2.532-3.116zm-6.517-4.208h1.313v1.392a3.4 3.4 0 012.8-1.534c2.167 0 3.765 1.582 3.765 4.159v.127c0 2.53-1.487 4.271-3.765 4.271a3.135 3.135 0 01-2.8-1.5v4.238h-1.313V45.05zM159.574 48.388c-.127-1.709-1.013-2.389-2.373-2.389a2.48 2.48 0 00-2.467 2.389zm-6.248.885v-.126c0-2.5 1.6-4.239 3.875-4.239 1.914 0 3.718 1.154 3.718 4.111v.428h-6.233c.064 1.882.965 2.927 2.657 2.927 1.282 0 2.025-.475 2.2-1.441h1.312c-.285 1.663-1.661 2.532-3.527 2.532a3.889 3.889 0 01-4-4.192zM162.326 50.776h1.281c.095.981.616 1.6 1.945 1.6 1.249 0 1.8-.428 1.8-1.313s-.648-1.155-1.929-1.392c-2.152-.4-2.879-1-2.879-2.436a2.574 2.574 0 012.8-2.325c1.488 0 2.769.6 2.991 2.388h-1.266c-.189-.9-.7-1.3-1.74-1.3-.949 0-1.567.474-1.567 1.186 0 .744.412 1.044 1.931 1.313 1.708.316 2.91.7 2.91 2.452 0 1.5-1.028 2.515-3.037 2.515-1.977 0-3.163-1-3.242-2.689z" fill="#353d4d"/></svg>