<svg xmlns="http://www.w3.org/2000/svg" height="20" viewBox="0 0 437.472 220.795">
  <g id="univlyon2" transform="translate(-201.383 -168.654)">
    <g id="Groupe_5" data-name="Groupe 5">
      <path id="trait-noir" d="M47.583,294.5H171.029v-8.486H47.6Z" transform="translate(153.99 5.919)" fill="#1c1c1c"/>
      <path id="trait-noir-2" data-name="trait-noir" d="M89.627,245.914l-.888-8.438L47.4,241.82l.949,8.432Z" transform="translate(153.99 5.919)" fill="#1c1c1c"/>
      <path id="trait-noir-3" data-name="trait-noir" d="M47.393,333.25l90.356,9.5.888-8.438L48.144,324.8Z" transform="translate(153.99 5.919)" fill="#1c1c1c"/>
    </g>
    <g id="Groupe_3" data-name="Groupe 3">
      <path id="i" d="M352.057,307.69h5.287v-7.912h-5.287V275.191h5.287v-7.918H337.856v7.918h5.287v24.587h-5.287v7.912h14.2Z" transform="translate(153.99 5.919)" fill="#e84242"/>
      <path id="l" d="M192,267.16v40.46h23.84V299.9H200.849V267.16Z" transform="translate(153.99 5.919)" fill="#e84242"/>
      <path id="e" d="M407.334,286.467a26.534,26.534,0,0,0-1.52-7.021c-2.912-7.827-9.579-12.825-19.18-12.825-12.076,0-21.466,9.009-21.466,20.984a23.016,23.016,0,0,0,.25,3.242,20.556,20.556,0,0,0,2.171,6.838c3.535,6.634,10.739,10.91,20.291,10.91,8.049,0,13.224-2.781,16.96-6.517l-5.653-5.943a16.279,16.279,0,0,1-11.4,4.31c-5.37,0-9.042-2-11.1-5.327l15.071-4.255Zm-18.209-2.311-14.357,4.054a26.077,26.077,0,0,1,.272-4.054c1.148-6.035,5.461-9.488,11.689-9.488,5.742,0,9.008,2.961,10.379,7.235l-6.484,1.832Z" transform="translate(153.99 5.919)" fill="#e84242"/>
      <path id="e-2" data-name="e" d="M484.865,286.467a26.533,26.533,0,0,0-1.52-7.021c-2.912-7.827-9.582-12.825-19.18-12.825-12.076,0-21.466,9.009-21.466,20.984a22.87,22.87,0,0,0,.25,3.242,20.556,20.556,0,0,0,2.171,6.838c3.535,6.634,10.739,10.91,20.291,10.91,8.049,0,13.224-2.781,16.96-6.517l-5.653-5.943a16.278,16.278,0,0,1-11.4,4.31c-5.37,0-9.042-2-11.1-5.327l15.071-4.255Zm-18.209-2.311L452.3,288.21a26.077,26.077,0,0,1,.272-4.054c1.148-6.035,5.461-9.488,11.689-9.488,5.742,0,9.011,2.961,10.379,7.235l-6.484,1.832Z" transform="translate(153.99 5.919)" fill="#e84242"/>
      <path id="u" d="M221.489,267.2v25.172c0,10,6.17,15.969,16.5,15.969,10.037,0,16.27-6.121,16.27-15.969V267.2h-8.916v24.94c0,5.467-2.43,8.126-7.434,8.126-5.055,0-7.509-2.659-7.509-8.126V267.2Z" transform="translate(153.99 5.919)" fill="#e84242"/>
      <path id="m" d="M311.988,266.508a16.165,16.165,0,0,0-13.8,7.665c-2.106-4.884-5.943-7.665-11.789-7.665-5.172,0-9.3,2.683-11.976,7.763l.192-6.9h-9.68v40.246h9.68V285.581c0-6.71,3.355-10.159,9.1-10.159,5.559,0,7.476,3.065,7.476,8.624v23.572h9.677V285.581c0-6.71,3.352-10.159,9.009-10.159,5.559,0,7.567,3.065,7.567,8.624v23.572h9.68V283.087c0-10.251-5.653-16.579-15.141-16.579" transform="translate(153.99 5.919)" fill="#e84242"/>
      <path id="r" d="M436.129,266.605c-4.408,0-9.008,2.012-11.692,8.337l.1-7.571h-9.68v40.25h9.68V288.072c0-9.006,3.929-12.364,9.677-12.364a10.992,10.992,0,0,1,5.272,1.344l3.26-8.725a12.077,12.077,0,0,0-6.615-1.722" transform="translate(153.99 5.919)" fill="#e84242"/>
      <path id="accent" d="M379.391,258.4l12.522,4.02.024-5.15-12.509-6.526Z" transform="translate(153.99 5.919)" fill="#e84242"/>
    </g>
    <g id="Groupe_4" data-name="Groupe 4">
      <path id="l-2" data-name="l" d="M170.089,321.868l-8.8-.925L157.06,361.18l23.71,2.491.806-7.677-14.909-1.566Z" transform="translate(153.99 5.919)" fill="#e84242"/>
      <path id="y" d="M211.231,326.432l-8.087,12.082c-1.291,1.942-2.439,3.957-3.1,5.144-.388-1.273-1.1-3.434-2.03-5.684l-5.479-13.508-10.013-1.05L194.594,352.1l-1.346,12.821,8.807.925,1.361-12.977,17.29-25.444Z" transform="translate(153.99 5.919)" fill="#e84242"/>
      <path id="o" d="M244.309,328.972c-12.1-1.273-22.577,6.682-23.829,18.6s7.339,21.873,19.443,23.146c12.2,1.282,22.479-6.694,23.731-18.606s-7.146-21.855-19.345-23.136m9.433,22.091c-.769,7.34-5.8,12.111-12.949,11.36s-11.173-6.475-10.4-13.813,5.886-12,13.035-11.252,11.087,6.367,10.315,13.7" transform="translate(153.99 5.919)" fill="#e84242"/>
      <path id="n" d="M299,334.719a14.561,14.561,0,0,0-14.4,6.872l.97-7.412-9.625-1.014-4.206,40.027,9.625,1.01,2.283-21.729c.684-6.48,5.18-9.86,11.472-9.2,5.62.592,7.94,4.206,7.339,9.927l-2.415,22.965,9.628,1.013,2.494-23.731c1.142-10.864-4.3-17.8-13.163-18.728" transform="translate(153.99 5.919)" fill="#e84242"/>
      <path id="_2" data-name="2" d="M357.06,340.948c-7.916-.83-14.286,3.193-17.046,10.764l-.165.448,8.029,3.2.192-.427c2.042-4.42,4.652-6.3,8.218-5.928,3.525.369,5.507,2.616,5.165,5.858-.379,3.587-2.977,5.806-8.352,10.089l-17.013,13.566-.165.128-.152,1.468,32.51,3.416.806-7.662-12.766-1.34c-.717-.076-1.941-.125-2.976-.156a34.064,34.064,0,0,0,2.982-1.847l3.944-2.915c6.307-4.634,9.763-9.429,10.273-14.259.8-7.677-4.613-13.465-13.484-14.4" transform="translate(153.99 5.919)" fill="#e84242"/>
    </g>
    <g id="Groupe_2" data-name="Groupe 2">
      <path id="i-2" data-name="i" d="M197.032,215.131l2.57,24.452-5.259.555.827,7.87,5.263-.553,8.862-.934,5.259-.549-.827-7.873-5.26.553L205.9,214.2l5.26-.553-.828-7.87-5.262.553-8.862.931-5.26.553.827,7.869Z" transform="translate(153.99 5.919)" fill="#e84242"/>
      <path id="accent-2" data-name="accent" d="M462.446,170.345l-.833-7.61-11.762,7.8.561,5.117Z" transform="translate(153.99 5.919)" fill="#e84242"/>
      <path id="t" d="M414.9,192.247l3.413,32.465,8.895-.934-3.41-32.465,9.226-.971-.831-7.9L404.9,185.308l.83,7.9Z" transform="translate(153.99 5.919)" fill="#e84242"/>
      <path id="i-3" data-name="i" d="M384.262,195.505l2.57,24.455-5.262.552.827,7.87,5.263-.553,8.861-.93,5.26-.553-.827-7.873-5.26.556-2.57-24.455,5.257-.553-.825-7.869-5.262.552-8.859.931-5.263.553.827,7.869Z" transform="translate(153.99 5.919)" fill="#e84242"/>
      <path id="e-3" data-name="e" d="M438.421,205.386a20.571,20.571,0,0,0,2.876,6.573c4.206,6.227,11.819,9.728,21.319,8.727,8-.839,12.861-4.145,16.186-8.251l-6.243-5.321a16.287,16.287,0,0,1-10.892,5.48c-5.339.561-9.2-1.041-11.6-4.14l14.546-5.806,15.034-6a26.506,26.506,0,0,0-2.247-6.823c-3.712-7.479-10.867-11.753-20.413-10.749-12.009,1.264-20.407,11.2-19.155,23.112a23.4,23.4,0,0,0,.586,3.2m8.871-7.662c.51-6.12,4.438-10.006,10.632-10.657,5.712-.6,9.271,2,11.078,6.112l-6.258,2.5-1.443.577-13.856,5.531a25.894,25.894,0,0,1-.153-4.06" transform="translate(153.99 5.919)" fill="#e84242"/>
      <path id="e-4" data-name="e" d="M286.134,239.183c8.007-.843,12.861-4.149,16.185-8.254l-6.242-5.318a16.28,16.28,0,0,1-10.892,5.476c-5.339.562-9.2-1.038-11.594-4.136l14.543-5.806,15.034-6a26.574,26.574,0,0,0-2.244-6.822c-3.715-7.482-10.87-11.753-20.416-10.749-12.009,1.261-20.407,11.2-19.155,23.109a23.291,23.291,0,0,0,.586,3.2,20.577,20.577,0,0,0,2.876,6.569c4.209,6.231,11.819,9.729,21.319,8.731M270.81,216.221c.513-6.124,4.442-10.007,10.632-10.657,5.712-.6,9.271,2,11.078,6.108l-6.254,2.5-1.447.577-13.853,5.528a25.662,25.662,0,0,1-.156-4.057" transform="translate(153.99 5.919)" fill="#e84242"/>
      <path id="u-2" data-name="u" d="M122.4,256.487c9.982-1.05,15.541-7.787,14.512-17.58l-2.631-25.032-8.865.931,2.607,24.8c.571,5.437-1.572,8.334-6.545,8.856-5.028.528-7.744-1.856-8.318-7.293l-2.607-24.806-8.865.934,2.631,25.032c1.047,9.942,7.806,15.236,18.081,14.155" transform="translate(153.99 5.919)" fill="#e84242"/>
      <path id="n-2" data-name="n" d="M158.032,251.778l-2.283-21.726c-.681-6.484,3.016-10.724,9.307-11.386,5.62-.592,8.639,2.463,9.24,8.181l2.415,22.968,9.625-1.013-2.494-23.729c-1.142-10.864-7.9-16.512-16.768-15.58a14.556,14.556,0,0,0-12.656,9.713l-.593-7.458-9.625,1.014,4.207,40.029Z" transform="translate(153.99 5.919)" fill="#e84242"/>
      <path id="v" d="M241.809,243.842l16-43.024L248,201.85l-6.24,18.581c-1.08,3.486-1.954,6.145-1.954,6.145s-1.5-2.409-3.382-5.583l-9.964-16.879-10.672,1.124L240.57,243.97Z" transform="translate(153.99 5.919)" fill="#e84242"/>
      <path id="r-2" data-name="r" d="M329.87,192.477c-4.384.461-8.746,2.943-10.755,9.512l-.7-7.54-9.625,1.014L313,235.489l9.625-1.011-2.042-19.442c-.944-8.959,2.613-12.7,8.334-13.3a11.022,11.022,0,0,1,5.381.778l2.33-9.008a12.036,12.036,0,0,0-6.759-1.026" transform="translate(153.99 5.919)" fill="#e84242"/>
      <path id="s" d="M358.708,223.751c-4.573.479-8.462-.754-11.31-4.014L341.3,225c3.12,4.008,9.64,7.372,18.789,6.41,11.34-1.193,14.943-7.256,14.222-14.118-.891-8.487-8.016-10.239-14.472-11.2s-9.012-1.368-9.332-4.417c-.251-2.382,1.611-3.926,5.235-4.308a10.859,10.859,0,0,1,8.7,3.037l5.04-6.12a18.256,18.256,0,0,0-14.54-4.539c-7.912.833-13.9,5.314-13.056,13.315.83,7.913,7.03,10.059,13.111,11.054,6.963,1.194,9.97,1.361,10.309,4.6.281,2.668-1.74,4.524-6.6,5.034" transform="translate(153.99 5.919)" fill="#e84242"/>
    </g>
  </g>
</svg>
