<svg width="239.134" height="56.491" viewBox="0 0 63.271 14.947" xmlns="http://www.w3.org/2000/svg"><defs><clipPath clipPathUnits="userSpaceOnUse" id="a"><path d="M17.957 18.168h256.936v116.349H17.957Z"/></clipPath></defs><g clip-path="url(#a)" transform="matrix(.35278 0 0 -.35278 -20.02 34.88)"><path d="M0 0h-15.899s.8 1.079 2.666 3.306c1.866 2.226 4.599 4.452 9.065 4.452H0Z" style="fill:#429bdb;fill-opacity:1;fill-rule:nonzero;stroke:none" transform="translate(95.542 64.72)"/><path d="M0 0h22.893s-.8-1.079-2.666-3.306c-1.866-2.226-4.599-4.452-9.065-4.452H0Z" style="fill:#223a6a;fill-opacity:1;fill-rule:nonzero;stroke:none" transform="translate(56.75 64.72)"/><path d="M0 0h-19.396s.799 1.079 2.666 3.306c1.866 2.226 4.599 4.452 9.065 4.452H0Z" style="fill:#429bdb;fill-opacity:1;fill-rule:nonzero;stroke:none" transform="translate(95.542 76.358)"/><path d="M0 0h19.396s-.799-1.079-2.666-3.306c-1.866-2.226-4.599-4.452-9.065-4.452H0Z" style="fill:#223a6a;fill-opacity:1;fill-rule:nonzero;stroke:none" transform="translate(56.75 76.358)"/><path d="M0 0h-22.893s.8 1.079 2.666 3.306c1.866 2.226 4.599 4.452 9.065 4.452H0Z" style="fill:#429bdb;fill-opacity:1;fill-rule:nonzero;stroke:none" transform="translate(95.542 87.995)"/><path d="M0 0h15.899s-.8-1.079-2.666-3.306c-1.866-2.226-4.599-4.452-9.065-4.452H0Z" style="fill:#223a6a;fill-opacity:1;fill-rule:nonzero;stroke:none" transform="translate(56.75 87.995)"/><path d="M0 0v-5.938c0-3.065-1.881-4.635-4.487-4.635-2.488 0-4.605 1.51-4.605 4.635V0h1.94v-5.938c0-1.866 1.066-2.858 2.68-2.858S-1.94-7.715-1.94-5.938V0Z" style="fill:#429bdb;fill-opacity:1;fill-rule:nonzero;stroke:none" transform="translate(114.02 95.703)"/><path d="M0 0h1.955v-10.38H.74v-.015l-5.449 7.004v-6.989h-1.954V-.015h1.584L0-6.441Z" style="fill:#429bdb;fill-opacity:1;fill-rule:nonzero;stroke:none" transform="translate(124.222 95.733)"/><path d="M129.464 85.352h1.94v10.366h-1.94z" style="fill:#429bdb;fill-opacity:1;fill-rule:nonzero;stroke:none"/><path d="M0 0h-2.029l-4.309 10.41h2.192l3.124-8.07 3.14 8.07h2.191z" style="fill:#429bdb;fill-opacity:1;fill-rule:nonzero;stroke:none" transform="translate(140.348 85.308)"/><path d="M0 0h-7.76v10.366H0V8.47h-5.819V6.086h5.611V4.265h-5.611v-2.34H0Z" style="fill:#429bdb;fill-opacity:1;fill-rule:nonzero;stroke:none" transform="translate(155.067 85.353)"/><path d="M0 0v-3.317h2.976c1.245 0 1.777.829 1.777 1.658S4.205 0 2.976 0Zm7.226-8.545H4.902L1.881-5.079H0v-3.466h-1.955v10.38c1.644 0 3.288-.014 4.931-.014C5.42 1.806 6.708.178 6.708-1.615c0-1.421-.652-2.857-2.621-3.257l3.139-3.539z" style="fill:#429bdb;fill-opacity:1;fill-rule:nonzero;stroke:none" transform="translate(160.028 93.897)"/><path d="M0 0c-.355.592-1.333 1.154-2.458 1.154-1.451 0-2.147-.606-2.147-1.376 0-.903 1.066-1.155 2.31-1.303 2.162-.267 4.176-.829 4.176-3.302 0-2.311-2.044-3.302-4.354-3.302-2.118 0-3.746.65-4.516 2.546l1.629.845c.458-1.141 1.658-1.644 2.916-1.644 1.23 0 2.385.429 2.385 1.555 0 .977-1.022 1.377-2.399 1.525-2.118.252-4.073.814-4.073 3.139 0 2.132 2.103 3.006 4.013 3.021 1.614 0 3.288-.46 4.073-2.059z" style="fill:#429bdb;fill-opacity:1;fill-rule:nonzero;stroke:none" transform="translate(176.39 93.216)"/><path d="M181.277 85.352h1.94v10.366h-1.94z" style="fill:#429bdb;fill-opacity:1;fill-rule:nonzero;stroke:none"/><path d="M0 0h-3.288v1.777h8.53V0H1.955v-8.589H0Z" style="fill:#429bdb;fill-opacity:1;fill-rule:nonzero;stroke:none" transform="translate(189.687 93.941)"/><path d="M0 0h-2.132l-1.096-2.014v-.089h1.599L0-.074Zm1.436-13.52h-7.759v10.365h7.759V-5.05h-5.819v-2.384h5.612v-1.821h-5.612v-2.34h5.819z" style="fill:#429bdb;fill-opacity:1;fill-rule:nonzero;stroke:none" transform="translate(203.888 98.873)"/><path d="M0 0h2.132C4.487 0 5.42 1.718 5.375 3.406c-.044 1.614-.992 3.228-3.243 3.228H0Zm7.315 3.392C7.359.77 5.76-1.881 2.132-1.881H-1.94V8.485h4.072c3.554 0 5.139-2.532 5.183-5.093" style="fill:#429bdb;fill-opacity:1;fill-rule:nonzero;stroke:none" transform="translate(218.286 87.278)"/><path d="M0 0h-7.76v10.366H0V8.47h-5.819V6.086h5.611V4.264h-5.611V1.925H0Z" style="fill:#429bdb;fill-opacity:1;fill-rule:nonzero;stroke:none" transform="translate(236.1 85.398)"/><path d="M0 0h6.251v-16.331h4.662V0h6.252v4.326H0Z" style="fill:#223a6a;fill-opacity:1;fill-rule:nonzero;stroke:none" transform="translate(104.928 73.292)"/><path d="M0 0c0-3.154-1.583-4.962-4.342-4.962-2.939 0-4.624 1.808-4.624 4.962v11.763h-4.633V0c0-5.642 3.623-9.287 9.229-9.287 5.555 0 9.005 3.559 9.005 9.287v11.763H0Z" style="fill:#223a6a;fill-opacity:1;fill-rule:nonzero;stroke:none" transform="translate(164.733 65.826)"/><path d="M0 0h-4.663v-20.656h14.799v4.381H0Z" style="fill:#223a6a;fill-opacity:1;fill-rule:nonzero;stroke:none" transform="translate(179.533 77.617)"/><path d="M0 0v-11.36L-8.956-.027h-3.714v-20.657h4.662v12.385L1.508-20.53l.123-.154h3.032V0Z" style="fill:#223a6a;fill-opacity:1;fill-rule:nonzero;stroke:none" transform="translate(231.437 77.645)"/><path d="M0 0a6.397 6.397 0 0 1-6.39-6.39A6.397 6.397 0 0 1 0-12.781 6.397 6.397 0 0 1 6.39-6.39 6.397 6.397 0 0 1 0 0m0-17.147c-5.931 0-10.756 4.825-10.756 10.757C-10.756-.46-5.931 4.366 0 4.366S10.756-.46 10.756-6.39c0-5.932-4.825-10.757-10.756-10.757" style="fill:#223a6a;fill-opacity:1;fill-rule:nonzero;stroke:none" transform="translate(135.936 73.651)"/><path d="M0 0a6.397 6.397 0 0 1-6.39-6.39A6.397 6.397 0 0 1 0-12.781 6.398 6.398 0 0 1 6.391-6.39 6.398 6.398 0 0 1 0 0m0-17.147c-5.931 0-10.756 4.825-10.756 10.757C-10.756-.46-5.931 4.366 0 4.366S10.756-.46 10.756-6.39c0-5.932-4.825-10.757-10.756-10.757" style="fill:#223a6a;fill-opacity:1;fill-rule:nonzero;stroke:none" transform="translate(203.288 73.651)"/></g></svg>