<svg xmlns="http://www.w3.org/2000/svg" version="1.1" viewBox="0 0 610 152" width="609.985" height="151.798" id="svg2" xml:space="preserve"><defs id="defs6"><clipPath id="clipPath16"><path d="M0 0h595.275v264.983H0V0zm76.535 23.244v31.637c0 1.418 1.418 1.418 1.418 1.418h417.826c1.418 0 1.418-1.418 1.418-1.418V23.244c0-1.417-1.418-1.417-1.418-1.417H77.953c-1.418 0-1.418 1.417-1.418 1.417" id="path18"/></clipPath><clipPath id="clipPath30"><path d="M0 0h595.275v841.89H0V0z" id="path32"/></clipPath><clipPath id="clipPath42"><path d="M181.642 27.309h34.874v23.508h-34.874V27.309z" id="path44"/></clipPath><clipPath id="clipPath172"><path d="M221.54 28.878h127.508v20.368H221.54V28.878z" id="path174"/></clipPath><clipPath id="clipPath314"><path d="M240.081 37.951h2.739v2.579h-2.739v-2.579z" id="path316"/></clipPath><clipPath id="clipPath326"><path d="M221.54 37.895h2.894v2.829h-2.894v-2.829z" id="path328"/></clipPath><clipPath id="clipPath338"><path d="M239.981 34.221h2.089v1.912h-2.089v-1.912z" id="path340"/></clipPath><clipPath id="clipPath350"><path d="M230.951 46.997h2.379v2.249h-2.379v-2.249z" id="path352"/></clipPath><clipPath id="clipPath362"><path d="M227.261 46.31h2.315v2.534h-2.315V46.31z" id="path364"/></clipPath><clipPath id="clipPath374"><path d="M224.255 45.261h2.111v2.071h-2.111v-2.071z" id="path376"/></clipPath><clipPath id="clipPath386"><path d="M238.36 30.755h2.077v2.184h-2.077v-2.184z" id="path388"/></clipPath><clipPath id="clipPath398"><path d="M235.045 29.299h2.203v2.426h-2.203v-2.426z" id="path400"/></clipPath><clipPath id="clipPath410"><path d="M230.951 28.878h2.608v2.457h-2.608v-2.457z" id="path412"/></clipPath><clipPath id="clipPath422"><path d="M222.439 42.068h2.243v1.987h-2.243v-1.987z" id="path424"/></clipPath><clipPath id="clipPath434"><path d="M221.54 28.878h127.508v20.368H221.54V28.878z" id="path436"/></clipPath><clipPath id="clipPath446"><path d="M227.281 29.299h2.1v2.492h-2.1v-2.492z" id="path448"/></clipPath><clipPath id="clipPath458"><path d="M224.255 30.107h2.111v2.139h-2.111v-2.139z" id="path460"/></clipPath><clipPath id="clipPath470"><path d="M222.726 33.64h1.812v2.077h-1.812V33.64z" id="path472"/></clipPath><clipPath id="clipPath482"><path d="M221.54 28.878h127.508v20.368H221.54V28.878z" id="path484"/></clipPath><clipPath id="clipPath494"><path d="M234.849 46.576h2.073v2.408h-2.073v-2.408z" id="path496"/></clipPath><clipPath id="clipPath506"><path d="M238.202 45.373h2.035v2.156h-2.035v-2.156z" id="path508"/></clipPath><clipPath id="clipPath518"><path d="M239.611 42.336h2.145v1.883h-2.145v-1.883z" id="path520"/></clipPath><clipPath id="clipPath530"><path d="M221.54 28.878h127.508v20.368H221.54V28.878z" id="path532"/></clipPath><clipPath id="clipPath550"><path d="M425.666 26.73h62.558v24.665h-62.558V26.73z" id="path552"/></clipPath><clipPath id="clipPath564"><path d="M85.508 27.309h91.11v23.508h-91.11V27.309z" id="path566"/></clipPath><clipPath id="clipPath684"><path d="M354.073 26.907h66.568v24.311h-66.568V26.907z" id="path686"/></clipPath><clipPath id="clipPath720"><path d="M412.159 43.478h3.893v3.754h-3.893v-3.754z" id="path722"/></clipPath><clipPath id="clipPath734"><path d="M354.073 26.907h66.568v24.311h-66.568V26.907z" id="path736"/></clipPath><clipPath id="clipPath956"><path d="M83.032 480.85h429.211v131.433H83.032V480.85z" id="path958"/></clipPath></defs><g transform="matrix(1.25 0 0 -1.25 -106.885 185.934)" id="g10"><g transform="matrix(5.35605 0 0 5.16596 -372.478 -113.768)" id="g560"><g clip-path="url(#clipPath564)" id="g562"><g transform="scale(.39458 -.39157)" id="g568"><path d="M256.866-107.479h-5.075v-5.23h5.075v5.23zm13.065-15.606h-44.283l15.368 10.855-20.751-10.855h-3.561v38.893l24.63-15.524-24.63 19.166v10.772h2.135l21.863-22.177-17.111 22.177h12.676l10.928-23.916-6.179 23.916H265.1l-7.13-17.582 10.775 17.582h1.186v-19.167l-9.742-6.971 9.742 3.804v-30.973z" id="path570" fill="#1478b7" fill-opacity="1" fill-rule="nonzero" stroke="none"/></g><g transform="scale(.39458 -.39157)" id="g572"><g transform="translate(289.053 -101.865)" id="g574"><path d="M0 0c-5.542-.216-8.311-3.198-8.311-8.948v-12.404l3.557-.295v12.61c.048.6.099 1.206.155 1.816.056.68.187 1.265.394 1.757.309.738.848 1.32 1.617 1.743.713.405 1.528.606 2.447.606 1.481 0 2.719-.472 3.713-1.418.984-.925 1.477-2.117 1.477-3.574 0-.216-.009-.447-.028-.693v-12.581h3.571V-8.8c0 2.765-.786 4.946-2.362 6.541C4.73-.753 2.808 0 .464 0H0z" id="path576" fill="#1478b7" fill-opacity="1" fill-rule="nonzero" stroke="none"/></g></g><g transform="scale(.39458 -.39157)" id="g578"><g transform="translate(314.864 -101.835)" id="g580"><path d="M0 0l-9.31-15.594V.029l-3.559-.295v-21.116l4.205-.266L.352-6.35v-15.062h3.557V-.266L0 0z" id="path582" fill="#1478b7" fill-opacity="1" fill-rule="nonzero" stroke="none"/></g></g><g transform="scale(.39458 -.39157)" id="g584"><g transform="translate(323.138 -102.072)" id="g586"><path d="M0 0v-21.146l3.558-.295V0H0z" id="path588" fill="#1478b7" fill-opacity="1" fill-rule="nonzero" stroke="none"/></g></g><g transform="scale(.39458 -.39157)" id="g590"><g transform="translate(341.241 -102.072)" id="g592"><path d="M0 0h-3.797l-7.834-20.866 3.629-.575L-1.899-5.02l6.118-16.421 3.629.575L0 0z" id="path594" fill="#1478b7" fill-opacity="1" fill-rule="nonzero" stroke="none"/></g></g><g transform="scale(.39458 -.39157)" id="g596"><g transform="translate(365.62 -102.072)" id="g598"><path d="M0 0h-13.586v-21.175H-.578l.325 3.144h-9.775v5.479h8.677v3.146h-8.677v6.261H.323L0 0z" id="path600" fill="#1478b7" fill-opacity="1" fill-rule="nonzero" stroke="none"/></g></g><g transform="scale(.39458 -.39157)" id="g602"><g transform="translate(372.992 -120.31)" id="g604"><path d="M0 0v6.409c1.575.059 2.405.089 2.489.089 3.187 0 4.894-1.117 5.119-3.352v-.237c0-1.23-.787-2.077-2.363-2.54-.975-.286-2.175-.428-3.6-.428C1.129-.059.581-.039 0 0m8.564 18.503L3.67 9.496c-.965.039-2.189.079-3.67.118v8.623h-3.558V-2.908c2.016-.197 3.806-.296 5.372-.296 6.226 0 9.338 2.077 9.338 6.232v.177c-.057 2.657-1.341 4.514-3.854 5.566l5.148 9.126-3.882.606z" id="path606" fill="#1478b7" fill-opacity="1" fill-rule="nonzero" stroke="none"/></g></g><g transform="scale(.39458 -.39157)" id="g608"><g transform="translate(395.174 -101.865)" id="g610"><path d="M0 0c-.196.02-.388.03-.576.03-1.098 0-2.334-.241-3.713-.724-1.425-.502-2.367-.985-2.826-1.447l1.785-2.968c.328.325 1.069.71 2.223 1.152 1.265.482 2.32.744 3.164.782h.408c1.229 0 2.245-.336 3.051-1.012.806-.673 1.21-1.493 1.21-2.459 0-.886-.374-1.624-1.125-2.214-.749-.54-1.748-.812-2.995-.812H.113c-.168.02-.341.03-.52.03-1.763 0-3.23-.566-4.402-1.698-1.228-1.143-1.842-2.56-1.842-4.253v-.311c.056-1.712.956-3.115 2.7-4.208C-2.508-21.037-.97-21.52.662-21.56h.351c1.032 0 2.161.154 3.39.458 1.35.345 2.236.73 2.658 1.153l-1.449 2.805c-1.997-.847-3.572-1.271-4.725-1.271H.662c-1.078.06-1.981.417-2.708 1.072-.726.654-1.09 1.365-1.09 2.133 0 .729.343 1.314 1.027 1.758.731.443 1.772.664 3.122.664h.634c1.959 0 3.552.616 4.781 1.847 1.209 1.23 1.814 2.76 1.814 4.591 0 .286-.009.581-.028.886C7.811-2.264 5.073-.443 0 0" id="path612" fill="#1478b7" fill-opacity="1" fill-rule="nonzero" stroke="none"/></g></g><g transform="scale(.39458 -.39157)" id="g614"><g transform="translate(406.936 -102.072)" id="g616"><path d="M0 0v-21.146l3.558-.295V0H0z" id="path618" fill="#1478b7" fill-opacity="1" fill-rule="nonzero" stroke="none"/></g></g><g transform="scale(.39458 -.39157)" id="g620"><g transform="translate(423.873 -120.103)" id="g622"><path d="M0 0v18.031h-3.572V0h-6.314l.323-3.144H5.991L6.301 0H0z" id="path624" fill="#1478b7" fill-opacity="1" fill-rule="nonzero" stroke="none"/></g></g><g transform="scale(.39458 -.39157)" id="g626"><g transform="translate(436.661 -125.847)" id="g628"><path d="M0 0l4.837-3.928 2.828 1.935L2.306 1.3 0 0zm10.589 23.775H-2.997V2.6h13.01l.323 3.144H.562v5.479H9.24v3.146H.562v6.261h10.352l-.325 3.145z" id="path630" fill="#1478b7" fill-opacity="1" fill-rule="nonzero" stroke="none"/></g></g><g transform="scale(.39458 -.39157)" id="g632"><g transform="translate(284.98 -88.362)" id="g634"><path d="M0 0v15.328a14.52 14.52 0 002.053.148c1.941 0 3.638-.453 5.091-1.359 1.922-1.211 2.883-3.489 2.883-6.837 0-2.599-1.12-4.553-3.361-5.863C4.987.453 3.056-.029.872-.029.543-.029.253-.021 0 0m3.459 18.562h-.801c-1.5 0-3.573-.08-6.216-.237V-2.762c1.912-.237 3.657-.354 5.231-.354 3.751 0 6.699.955 8.847 2.865 2.071 1.861 3.108 4.273 3.108 7.235v.296c-.094 3.111-.975 5.695-2.645 7.752-1.865 2.275-4.373 3.45-7.524 3.53" id="path636" fill="#1478b7" fill-opacity="1" fill-rule="nonzero" stroke="none"/></g></g><g transform="scale(.39458 -.39157)" id="g638"><g transform="translate(315.83 -70.007)" id="g640"><path d="M0 0h-13.585v-21.175H-.577l.324 3.146h-9.774v5.478h8.677v3.145h-8.677v6.261H.323L0 0z" id="path642" fill="#1478b7" fill-opacity="1" fill-rule="nonzero" stroke="none"/></g></g><g transform="scale(.39458 -.39157)" id="g644"><g transform="translate(336.898 -88.036)" id="g646"><path d="M0 0v18.029h-3.572V0h-6.315l.323-3.145H5.991L6.3 0H0z" id="path648" fill="#1478b7" fill-opacity="1" fill-rule="nonzero" stroke="none"/></g></g><g transform="scale(.39458 -.39157)" id="g650"><g transform="translate(355.85 -88.243)" id="g652"><path d="M0 0h-.071c-1.8 0-3.305.777-4.514 2.333C-5.776 3.819-6.37 5.602-6.37 7.679c0 1.998.642 3.765 1.926 5.301 1.265 1.545 2.747 2.319 4.444 2.319 1.763-.02 3.259-.813 4.486-2.378 1.172-1.477 1.757-3.204 1.757-5.184v-.176c-.017-2.038-.594-3.78-1.728-5.228C3.305.797 1.8.02 0 0m-.071 18.443c-2.783 0-5.133-1.107-7.045-3.322-1.866-2.117-2.799-4.596-2.799-7.442 0-2.924.933-5.445 2.799-7.562C-5.204-2.059-2.813-3.146.056-3.146h.056c2.729.02 5.03 1.079 6.906 3.175 1.791 1.98 2.733 4.381 2.827 7.206v.473c0 2.767-.881 5.197-2.645 7.296-1.94 2.293-4.363 3.439-7.271 3.439" id="path654" fill="#1478b7" fill-opacity="1" fill-rule="nonzero" stroke="none"/></g></g><g transform="scale(.39458 -.39157)" id="g656"><g transform="translate(377.67 -69.8)" id="g658"><path d="M0 0c-5.541-.216-8.312-3.198-8.312-8.948v-12.405l3.558-.295v12.611c.047.601.099 1.206.155 1.816.056.68.187 1.264.394 1.757.309.738.848 1.319 1.617 1.743.713.405 1.529.606 2.448.606 1.481 0 2.718-.473 3.713-1.418.984-.925 1.476-2.116 1.476-3.573 0-.217-.01-.449-.029-.695v-12.581h3.573v12.581c0 2.766-.788 4.947-2.362 6.543C4.731-.753 2.808 0 .464 0H0z" id="path660" fill="#1478b7" fill-opacity="1" fill-rule="nonzero" stroke="none"/></g></g><g transform="scale(.39458 -.39157)" id="g662"><g transform="translate(404.342 -70.007)" id="g664"><path d="M0 0h-13.586v-21.146l3.559-.295v18.296H.323L0 0z" id="path666" fill="#1478b7" fill-opacity="1" fill-rule="nonzero" stroke="none"/></g></g><g transform="scale(.39458 -.39157)" id="g668"><g transform="translate(417.316 -88.243)" id="g670"><path d="M0 0h-.07c-1.8 0-3.305.777-4.515 2.333C-5.776 3.819-6.37 5.602-6.37 7.679c0 1.998.641 3.765 1.925 5.301 1.266 1.545 2.748 2.319 4.445 2.319 1.763-.02 3.259-.813 4.486-2.378 1.173-1.477 1.759-3.204 1.759-5.184v-.176c-.02-2.038-.596-3.78-1.731-5.228C3.305.797 1.8.02 0 0m-.07 18.443c-2.785 0-5.134-1.107-7.046-3.322-1.866-2.117-2.799-4.596-2.799-7.442 0-2.924.933-5.445 2.799-7.562C-5.204-2.059-2.814-3.146.056-3.146h.056c2.729.02 5.031 1.079 6.905 3.175 1.791 1.98 2.734 4.381 2.828 7.206v.473c0 2.767-.881 5.197-2.645 7.296-1.939 2.293-4.363 3.439-7.27 3.439" id="path672" fill="#1478b7" fill-opacity="1" fill-rule="nonzero" stroke="none"/></g></g><g transform="scale(.39458 -.39157)" id="g674"><g transform="translate(443.694 -69.77)" id="g676"><path d="M0 0l-9.311-15.595V.029l-3.558-.296v-21.116l4.205-.266L.351-6.351v-15.061H3.91V-.267L0 0z" id="path678" fill="#1478b7" fill-opacity="1" fill-rule="nonzero" stroke="none"/></g></g></g></g></g></svg>