<?xml version="1.0" encoding="UTF-8" standalone="no"?>
<!-- Created with Inkscape (http://www.inkscape.org/) -->

<svg
   xmlns:dc="http://purl.org/dc/elements/1.1/"
   xmlns:cc="http://creativecommons.org/ns#"
   xmlns:rdf="http://www.w3.org/1999/02/22-rdf-syntax-ns#"
   xmlns:svg="http://www.w3.org/2000/svg"
   xmlns="http://www.w3.org/2000/svg"
   version="1.1"
   width="609.98511"
   height="151.79808"
   id="svg2"
   xml:space="preserve"><metadata
     id="metadata8"><rdf:RDF><cc:Work
         rdf:about=""><dc:format>image/svg+xml</dc:format><dc:type
           rdf:resource="http://purl.org/dc/dcmitype/StillImage" /><dc:title></dc:title></cc:Work></rdf:RDF></metadata><defs
     id="defs6"><clipPath
       id="clipPath16"><path
         d="m 0,0 595.275,0 0,264.983 L 0,264.983 0,0 z m 76.535,23.244 0,31.637 c 0,1.418 1.418,1.418 1.418,1.418 l 0,0 417.826,0 c 1.418,0 1.418,-1.418 1.418,-1.418 l 0,0 0,-31.637 c 0,-1.417 -1.418,-1.417 -1.418,-1.417 l 0,0 -417.826,0 c -1.418,0 -1.418,1.417 -1.418,1.417"
         id="path18" /></clipPath><clipPath
       id="clipPath30"><path
         d="m 0,0 595.275,0 0,841.89 L 0,841.89 0,0 z"
         id="path32" /></clipPath><clipPath
       id="clipPath42"><path
         d="m 181.642,27.309 34.874,0 0,23.508 -34.874,0 0,-23.508 z"
         id="path44" /></clipPath><clipPath
       id="clipPath172"><path
         d="m 221.54,28.878 127.508,0 0,20.368 -127.508,0 0,-20.368 z"
         id="path174" /></clipPath><clipPath
       id="clipPath314"><path
         d="m 240.081,37.951 2.739,0 0,2.579 -2.739,0 0,-2.579 z"
         id="path316" /></clipPath><clipPath
       id="clipPath326"><path
         d="m 221.54,37.895 2.894,0 0,2.829 -2.894,0 0,-2.829 z"
         id="path328" /></clipPath><clipPath
       id="clipPath338"><path
         d="m 239.981,34.221 2.089,0 0,1.912 -2.089,0 0,-1.912 z"
         id="path340" /></clipPath><clipPath
       id="clipPath350"><path
         d="m 230.951,46.997 2.379,0 0,2.249 -2.379,0 0,-2.249 z"
         id="path352" /></clipPath><clipPath
       id="clipPath362"><path
         d="m 227.261,46.31 2.315,0 0,2.534 -2.315,0 0,-2.534 z"
         id="path364" /></clipPath><clipPath
       id="clipPath374"><path
         d="m 224.255,45.261 2.111,0 0,2.071 -2.111,0 0,-2.071 z"
         id="path376" /></clipPath><clipPath
       id="clipPath386"><path
         d="m 238.36,30.755 2.077,0 0,2.184 -2.077,0 0,-2.184 z"
         id="path388" /></clipPath><clipPath
       id="clipPath398"><path
         d="m 235.045,29.299 2.203,0 0,2.426 -2.203,0 0,-2.426 z"
         id="path400" /></clipPath><clipPath
       id="clipPath410"><path
         d="m 230.951,28.878 2.608,0 0,2.457 -2.608,0 0,-2.457 z"
         id="path412" /></clipPath><clipPath
       id="clipPath422"><path
         d="m 222.439,42.068 2.243,0 0,1.987 -2.243,0 0,-1.987 z"
         id="path424" /></clipPath><clipPath
       id="clipPath434"><path
         d="m 221.54,28.878 127.508,0 0,20.368 -127.508,0 0,-20.368 z"
         id="path436" /></clipPath><clipPath
       id="clipPath446"><path
         d="m 227.281,29.299 2.1,0 0,2.492 -2.1,0 0,-2.492 z"
         id="path448" /></clipPath><clipPath
       id="clipPath458"><path
         d="m 224.255,30.107 2.111,0 0,2.139 -2.111,0 0,-2.139 z"
         id="path460" /></clipPath><clipPath
       id="clipPath470"><path
         d="m 222.726,33.64 1.812,0 0,2.077 -1.812,0 0,-2.077 z"
         id="path472" /></clipPath><clipPath
       id="clipPath482"><path
         d="m 221.54,28.878 127.508,0 0,20.368 -127.508,0 0,-20.368 z"
         id="path484" /></clipPath><clipPath
       id="clipPath494"><path
         d="m 234.849,46.576 2.073,0 0,2.408 -2.073,0 0,-2.408 z"
         id="path496" /></clipPath><clipPath
       id="clipPath506"><path
         d="m 238.202,45.373 2.035,0 0,2.156 -2.035,0 0,-2.156 z"
         id="path508" /></clipPath><clipPath
       id="clipPath518"><path
         d="m 239.611,42.336 2.145,0 0,1.883 -2.145,0 0,-1.883 z"
         id="path520" /></clipPath><clipPath
       id="clipPath530"><path
         d="m 221.54,28.878 127.508,0 0,20.368 -127.508,0 0,-20.368 z"
         id="path532" /></clipPath><clipPath
       id="clipPath550"><path
         d="m 425.666,26.73 62.558,0 0,24.665 -62.558,0 0,-24.665 z"
         id="path552" /></clipPath><clipPath
       id="clipPath564"><path
         d="m 85.508,27.309 91.11,0 0,23.508 -91.11,0 0,-23.508 z"
         id="path566" /></clipPath><clipPath
       id="clipPath684"><path
         d="m 354.073,26.907 66.568,0 0,24.311 -66.568,0 0,-24.311 z"
         id="path686" /></clipPath><clipPath
       id="clipPath720"><path
         d="m 412.159,43.478 3.893,0 0,3.754 -3.893,0 0,-3.754 z"
         id="path722" /></clipPath><clipPath
       id="clipPath734"><path
         d="m 354.073,26.907 66.568,0 0,24.311 -66.568,0 0,-24.311 z"
         id="path736" /></clipPath><clipPath
       id="clipPath956"><path
         d="m 83.032,480.85 429.211,0 0,131.433 -429.211,0 0,-131.433 z"
         id="path958" /></clipPath></defs><g
     transform="matrix(1.25,0,0,-1.25,-106.88511,185.93434)"
     id="g10"><g
       transform="matrix(5.3560529,0,0,5.1659622,-372.47773,-113.76826)"
       id="g560"><g
         clip-path="url(#clipPath564)"
         id="g562"><g
           transform="scale(0.3945847,-0.3915736)"
           id="g568"><path
             d="m 256.866,-107.479 -5.075,0 0,-5.23 5.075,0 0,5.23 z m 13.065,-15.606 -44.283,0 15.368,10.855 -20.751,-10.855 -3.561,0 0,38.893 24.63,-15.524 -24.63,19.166 0,10.772 2.135,0 21.863,-22.177 -17.111,22.177 12.676,0 10.928,-23.916 -6.179,23.916 24.084,0 -7.13,-17.582 10.775,17.582 1.186,0 0,-19.167 -9.742,-6.971 9.742,3.804 0,-30.973 z"
             id="path570"
             style="fill:#1478b7;fill-opacity:1;fill-rule:nonzero;stroke:none" /></g><g
           transform="scale(0.3945847,-0.3915736)"
           id="g572"><g
             transform="translate(289.0532,-101.8654)"
             id="g574"><path
               d="m 0,0 c -5.542,-0.216 -8.311,-3.198 -8.311,-8.948 l 0,-12.404 3.557,-0.295 0,12.61 c 0.048,0.6 0.099,1.206 0.155,1.816 0.056,0.68 0.187,1.265 0.394,1.757 0.309,0.738 0.848,1.32 1.617,1.743 0.713,0.405 1.528,0.606 2.447,0.606 1.481,0 2.719,-0.472 3.713,-1.418 0.984,-0.925 1.477,-2.117 1.477,-3.574 0,-0.216 -0.009,-0.447 -0.028,-0.693 l 0,-12.581 3.571,0 0,12.581 c 0,2.765 -0.786,4.946 -2.362,6.541 C 4.73,-0.753 2.808,0 0.464,0 L 0,0 z"
               id="path576"
               style="fill:#1478b7;fill-opacity:1;fill-rule:nonzero;stroke:none" /></g></g><g
           transform="scale(0.3945847,-0.3915736)"
           id="g578"><g
             transform="translate(314.8638,-101.8351)"
             id="g580"><path
               d="m 0,0 -9.31,-15.594 0,15.623 -3.559,-0.295 0,-21.116 4.205,-0.266 9.016,15.298 0,-15.062 3.557,0 0,21.146 L 0,0 z"
               id="path582"
               style="fill:#1478b7;fill-opacity:1;fill-rule:nonzero;stroke:none" /></g></g><g
           transform="scale(0.3945847,-0.3915736)"
           id="g584"><g
             transform="translate(323.1381,-102.072)"
             id="g586"><path
               d="M 0,0 0,-21.146 3.558,-21.441 3.558,0 0,0 z"
               id="path588"
               style="fill:#1478b7;fill-opacity:1;fill-rule:nonzero;stroke:none" /></g></g><g
           transform="scale(0.3945847,-0.3915736)"
           id="g590"><g
             transform="translate(341.2411,-102.072)"
             id="g592"><path
               d="m 0,0 -3.797,0 -7.834,-20.866 3.629,-0.575 6.103,16.421 6.118,-16.421 3.629,0.575 L 0,0 z"
               id="path594"
               style="fill:#1478b7;fill-opacity:1;fill-rule:nonzero;stroke:none" /></g></g><g
           transform="scale(0.3945847,-0.3915736)"
           id="g596"><g
             transform="translate(365.6191,-102.072)"
             id="g598"><path
               d="m 0,0 -13.586,0 0,-21.175 13.008,0 0.325,3.144 -9.775,0 0,5.479 8.677,0 0,3.146 -8.677,0 0,6.261 10.351,0 L 0,0 z"
               id="path600"
               style="fill:#1478b7;fill-opacity:1;fill-rule:nonzero;stroke:none" /></g></g><g
           transform="scale(0.3945847,-0.3915736)"
           id="g602"><g
             transform="translate(372.9921,-120.3092)"
             id="g604"><path
               d="m 0,0 0,6.409 c 1.575,0.059 2.405,0.089 2.489,0.089 3.187,0 4.894,-1.117 5.119,-3.352 l 0,-0.237 C 7.608,1.679 6.821,0.832 5.245,0.369 4.27,0.083 3.07,-0.059 1.645,-0.059 1.129,-0.059 0.581,-0.039 0,0 M 8.564,18.503 3.67,9.496 C 2.705,9.535 1.481,9.575 0,9.614 l 0,8.623 -3.558,0 0,-21.145 c 2.016,-0.197 3.806,-0.296 5.372,-0.296 6.226,0 9.338,2.077 9.338,6.232 l 0,0.177 C 11.095,5.862 9.811,7.719 7.298,8.771 l 5.148,9.126 -3.882,0.606 z"
               id="path606"
               style="fill:#1478b7;fill-opacity:1;fill-rule:nonzero;stroke:none" /></g></g><g
           transform="scale(0.3945847,-0.3915736)"
           id="g608"><g
             transform="translate(395.1741,-101.8654)"
             id="g610"><path
               d="m 0,0 c -0.196,0.02 -0.388,0.03 -0.576,0.03 -1.098,0 -2.334,-0.241 -3.713,-0.724 -1.425,-0.502 -2.367,-0.985 -2.826,-1.447 l 1.785,-2.968 c 0.328,0.325 1.069,0.71 2.223,1.152 1.265,0.482 2.32,0.744 3.164,0.782 l 0.408,0 c 1.229,0 2.245,-0.336 3.051,-1.012 C 4.322,-4.86 4.726,-5.68 4.726,-6.646 4.726,-7.532 4.352,-8.27 3.601,-8.86 2.852,-9.4 1.853,-9.672 0.606,-9.672 l -0.493,0 c -0.168,0.02 -0.341,0.03 -0.52,0.03 -1.763,0 -3.23,-0.566 -4.402,-1.698 -1.228,-1.143 -1.842,-2.56 -1.842,-4.253 l 0,-0.311 c 0.056,-1.712 0.956,-3.115 2.7,-4.208 1.443,-0.925 2.981,-1.408 4.613,-1.448 l 0.351,0 c 1.032,0 2.161,0.154 3.39,0.458 1.35,0.345 2.236,0.73 2.658,1.153 l -1.449,2.805 C 3.615,-17.991 2.04,-18.415 0.887,-18.415 l -0.225,0 c -1.078,0.06 -1.981,0.417 -2.708,1.072 -0.726,0.654 -1.09,1.365 -1.09,2.133 0,0.729 0.343,1.314 1.027,1.758 0.731,0.443 1.772,0.664 3.122,0.664 l 0.339,0 0.295,0 c 1.959,0 3.552,0.616 4.781,1.847 1.209,1.23 1.814,2.76 1.814,4.591 0,0.286 -0.009,0.581 -0.028,0.886 C 7.811,-2.264 5.073,-0.443 0,0"
               id="path612"
               style="fill:#1478b7;fill-opacity:1;fill-rule:nonzero;stroke:none" /></g></g><g
           transform="scale(0.3945847,-0.3915736)"
           id="g614"><g
             transform="translate(406.9361,-102.072)"
             id="g616"><path
               d="M 0,0 0,-21.146 3.558,-21.441 3.558,0 0,0 z"
               id="path618"
               style="fill:#1478b7;fill-opacity:1;fill-rule:nonzero;stroke:none" /></g></g><g
           transform="scale(0.3945847,-0.3915736)"
           id="g620"><g
             transform="translate(423.8731,-120.1027)"
             id="g622"><path
               d="m 0,0 0,18.031 -3.572,0 0,-18.031 -6.314,0 0.323,-3.144 15.554,0 L 6.301,0 0,0 z"
               id="path624"
               style="fill:#1478b7;fill-opacity:1;fill-rule:nonzero;stroke:none" /></g></g><g
           transform="scale(0.3945847,-0.3915736)"
           id="g626"><g
             transform="translate(436.6611,-125.8469)"
             id="g628"><path
               d="M 0,0 4.837,-3.928 7.665,-1.993 2.306,1.3 0,0 z m 10.589,23.775 -13.586,0 0,-21.175 13.01,0 0.323,3.144 -9.774,0 0,5.479 8.678,0 0,3.146 -8.678,0 0,6.261 10.352,0 -0.325,3.145 z"
               id="path630"
               style="fill:#1478b7;fill-opacity:1;fill-rule:nonzero;stroke:none" /></g></g><g
           transform="scale(0.3945847,-0.3915736)"
           id="g632"><g
             transform="translate(284.9805,-88.3615)"
             id="g634"><path
               d="m 0,0 0,15.328 c 0.694,0.099 1.378,0.148 2.053,0.148 1.941,0 3.638,-0.453 5.091,-1.359 1.922,-1.211 2.883,-3.489 2.883,-6.837 0,-2.599 -1.12,-4.553 -3.361,-5.863 C 4.987,0.453 3.056,-0.029 0.872,-0.029 0.543,-0.029 0.253,-0.021 0,0 m 3.459,18.562 -0.801,0 c -1.5,0 -3.573,-0.08 -6.216,-0.237 l 0,-21.087 c 1.912,-0.237 3.657,-0.354 5.231,-0.354 3.751,0 6.699,0.955 8.847,2.865 2.071,1.861 3.108,4.273 3.108,7.235 l 0,0.296 c -0.094,3.111 -0.975,5.695 -2.645,7.752 -1.865,2.275 -4.373,3.45 -7.524,3.53"
               id="path636"
               style="fill:#1478b7;fill-opacity:1;fill-rule:nonzero;stroke:none" /></g></g><g
           transform="scale(0.3945847,-0.3915736)"
           id="g638"><g
             transform="translate(315.8291,-70.007)"
             id="g640"><path
               d="m 0,0 -13.585,0 0,-21.175 13.008,0 0.324,3.146 -9.774,0 0,5.478 8.677,0 0,3.145 -8.677,0 0,6.261 10.35,0 L 0,0 z"
               id="path642"
               style="fill:#1478b7;fill-opacity:1;fill-rule:nonzero;stroke:none" /></g></g><g
           transform="scale(0.3945847,-0.3915736)"
           id="g644"><g
             transform="translate(336.8981,-88.0363)"
             id="g646"><path
               d="m 0,0 0,18.029 -3.572,0 0,-18.029 -6.315,0 0.323,-3.145 15.555,0 L 6.3,0 0,0 z"
               id="path648"
               style="fill:#1478b7;fill-opacity:1;fill-rule:nonzero;stroke:none" /></g></g><g
           transform="scale(0.3945847,-0.3915736)"
           id="g650"><g
             transform="translate(355.8491,-88.2434)"
             id="g652"><path
               d="m 0,0 -0.071,0 c -1.8,0 -3.305,0.777 -4.514,2.333 -1.191,1.486 -1.785,3.269 -1.785,5.346 0,1.998 0.642,3.765 1.926,5.301 1.265,1.545 2.747,2.319 4.444,2.319 1.763,-0.02 3.259,-0.813 4.486,-2.378 1.172,-1.477 1.757,-3.204 1.757,-5.184 l 0,-0.176 C 6.226,5.523 5.649,3.781 4.515,2.333 3.305,0.797 1.8,0.02 0,0 m -0.071,18.443 c -2.783,0 -5.133,-1.107 -7.045,-3.322 -1.866,-2.117 -2.799,-4.596 -2.799,-7.442 0,-2.924 0.933,-5.445 2.799,-7.562 1.912,-2.176 4.303,-3.263 7.172,-3.263 l 0.056,0 c 2.729,0.02 5.03,1.079 6.906,3.175 1.791,1.98 2.733,4.381 2.827,7.206 l 0,0.473 c 0,2.767 -0.881,5.197 -2.645,7.296 -1.94,2.293 -4.363,3.439 -7.271,3.439"
               id="path654"
               style="fill:#1478b7;fill-opacity:1;fill-rule:nonzero;stroke:none" /></g></g><g
           transform="scale(0.3945847,-0.3915736)"
           id="g656"><g
             transform="translate(377.6701,-69.8)"
             id="g658"><path
               d="m 0,0 c -5.541,-0.216 -8.312,-3.198 -8.312,-8.948 l 0,-12.405 3.558,-0.295 0,12.611 c 0.047,0.601 0.099,1.206 0.155,1.816 0.056,0.68 0.187,1.264 0.394,1.757 0.309,0.738 0.848,1.319 1.617,1.743 0.713,0.405 1.529,0.606 2.448,0.606 1.481,0 2.718,-0.473 3.713,-1.418 0.984,-0.925 1.476,-2.116 1.476,-3.573 0,-0.217 -0.01,-0.449 -0.029,-0.695 l 0,-12.581 3.573,0 0,12.581 c 0,2.766 -0.788,4.947 -2.362,6.543 C 4.731,-0.753 2.808,0 0.464,0 L 0,0 z"
               id="path660"
               style="fill:#1478b7;fill-opacity:1;fill-rule:nonzero;stroke:none" /></g></g><g
           transform="scale(0.3945847,-0.3915736)"
           id="g662"><g
             transform="translate(404.3421,-70.007)"
             id="g664"><path
               d="m 0,0 -13.586,0 0,-21.146 3.559,-0.295 0,18.296 10.35,0 L 0,0 z"
               id="path666"
               style="fill:#1478b7;fill-opacity:1;fill-rule:nonzero;stroke:none" /></g></g><g
           transform="scale(0.3945847,-0.3915736)"
           id="g668"><g
             transform="translate(417.3161,-88.2434)"
             id="g670"><path
               d="m 0,0 -0.07,0 c -1.8,0 -3.305,0.777 -4.515,2.333 -1.191,1.486 -1.785,3.269 -1.785,5.346 0,1.998 0.641,3.765 1.925,5.301 1.266,1.545 2.748,2.319 4.445,2.319 1.763,-0.02 3.259,-0.813 4.486,-2.378 1.173,-1.477 1.759,-3.204 1.759,-5.184 l 0,-0.176 C 6.225,5.523 5.649,3.781 4.514,2.333 3.305,0.797 1.8,0.02 0,0 m -0.07,18.443 c -2.785,0 -5.134,-1.107 -7.046,-3.322 -1.866,-2.117 -2.799,-4.596 -2.799,-7.442 0,-2.924 0.933,-5.445 2.799,-7.562 1.912,-2.176 4.302,-3.263 7.172,-3.263 l 0.056,0 c 2.729,0.02 5.031,1.079 6.905,3.175 1.791,1.98 2.734,4.381 2.828,7.206 l 0,0.473 c 0,2.767 -0.881,5.197 -2.645,7.296 -1.939,2.293 -4.363,3.439 -7.27,3.439"
               id="path672"
               style="fill:#1478b7;fill-opacity:1;fill-rule:nonzero;stroke:none" /></g></g><g
           transform="scale(0.3945847,-0.3915736)"
           id="g674"><g
             transform="translate(443.6941,-69.7697)"
             id="g676"><path
               d="m 0,0 -9.311,-15.595 0,15.624 -3.558,-0.296 0,-21.116 4.205,-0.266 9.015,15.298 0,-15.061 3.559,0 0,21.145 L 0,0 z"
               id="path678"
               style="fill:#1478b7;fill-opacity:1;fill-rule:nonzero;stroke:none" /></g></g></g></g></g></svg>