<svg xmlns="http://www.w3.org/2000/svg" width="165.413" height="158.131" viewBox="0 0 165.413 158.131"><g transform="translate(-33.622 -39.665)"><path d="M48.5,170.931V64.24H12.926V170.931ZM30.682,49.676c12.4,0,20.049-8.212,20.049-18.438S43.046,12.8,30.9,12.8,10.85,20.764,10.85,31.238s7.685,18.438,19.584,18.438Z" transform="translate(22.772 26.865)" fill-rule="evenodd"/><path d="M29.3,137.811H64.75V78.222a24.326,24.326,0,0,1,1.178-8.646A19.4,19.4,0,0,1,84.149,56.592c12.829,0,17.973,9.792,17.973,24.14v57.08h35.419V76.641c0-32.785-17.477-48.031-40.811-48.031a35.264,35.264,0,0,0-32.2,17.973h.217V31.089H29.3c.465,10.009,0,106.691,0,106.691Z" transform="translate(61.494 59.985)" fill-rule="evenodd"/></g></svg>