<svg viewBox="0 0 100 100" xmlns="http://www.w3.org/2000/svg" height="20"><path d="M87.5 16.918L52.211 52.207c-1.227 1.184-3.172 1.168-4.379-.04s-1.223-3.151-.039-4.378L83.082 12.5H59.375a3.124 3.124 0 110-6.25h31.25c.828 0 1.625.328 2.21.914.587.586.915 1.383.915 2.211v31.25a3.124 3.124 0 11-6.25 0zM31.25 18.75H15.617c-5.172 0-9.367 4.18-9.367 9.352v56.305c0 5.156 4.242 9.351 9.386 9.351h56.22a9.376 9.376 0 009.386-9.39V68.755v.004a3.124 3.124 0 10-6.25 0v15.613-.004c.004.836-.324 1.632-.914 2.222s-1.39.918-2.223.918H15.636a3.152 3.152 0 01-3.136-3.101V28.102A3.108 3.108 0 0115.617 25H31.25a3.124 3.124 0 100-6.25z"/></svg>