<?xml version="1.0" encoding="UTF-8"?>
<svg width="100pt" height="100pt" version="1.1" viewBox="0 0 100 100" xmlns="http://www.w3.org/2000/svg">
 <g>
  <path d="m75.23 5.5h-50c-4.6484 0-9.7305 3.1523-9.7305 7.8008v61.785c0 4.6445 5.082 9.4141 9.7305 9.4141h6.2695v10.555l8.5547-8.4531 9.4453 8.4531v-10.555h25.73c4.6445 0 7.2695-4.7695 7.2695-9.4141v-61.785c0-4.6484-2.6211-7.8008-7.2695-7.8008zm1.2695 7.8008v48.199h-50v-50h48.73c1.5508 0 1.2695 0.25391 1.2695 1.8008zm-1.2695 65.199h-25.73v-6h-18v6h-6.2695c-1.5508 0-3.7305-1.8633-3.7305-3.4141v-7.5859h55v7.5859c0 1.5508 0.28125 3.4141-1.2695 3.4141zm0 0" stroke="#000" stroke-linecap="round" stroke-linejoin="round" stroke-miterlimit="10"/>
  <path d="m37 17.5c0-0.27344-0.22656-0.5-0.5-0.5h-4c-0.27344 0-0.5 0.22656-0.5 0.5v4c0 0.27344 0.22656 0.5 0.5 0.5h4c0.27344 0 0.5-0.22656 0.5-0.5z"/>
  <path d="m37 28.5c0-0.27344-0.22656-0.5-0.5-0.5h-4c-0.27344 0-0.5 0.22656-0.5 0.5v4c0 0.27344 0.22656 0.5 0.5 0.5h4c0.27344 0 0.5-0.22656 0.5-0.5z"/>
  <path d="m37 39.5c0-0.27344-0.22656-0.5-0.5-0.5h-4c-0.27344 0-0.5 0.22656-0.5 0.5v4c0 0.27344 0.22656 0.5 0.5 0.5h4c0.27344 0 0.5-0.22656 0.5-0.5z"/>
  <path d="m37 50.5c0-0.27344-0.22656-0.5-0.5-0.5h-4c-0.27344 0-0.5 0.22656-0.5 0.5v4c0 0.27344 0.22656 0.5 0.5 0.5h4c0.27344 0 0.5-0.22656 0.5-0.5z"/>
 </g>
</svg>
