<svg width="1600" height="1600" viewBox="0 0 1200 1200" xmlns="http://www.w3.org/2000/svg"><path d="M259 408h48c3 78 33 154 86 212-28 10-57 16-86 16h-12a48 48 0 0 0 0 96h12c59 0 117-16 168-45 50 29 107 44 164 45l-74 186a48 48 0 1 0 89 36l36-90h170l36 90a48 48 0 1 0 89-36L849 578a80 80 0 0 0-148 0l-23 58h-35c-29 0-58-6-85-16 52-59 82-134 85-212h48a48 48 0 1 0 0-96H523v-48a48 48 0 1 0-96 0v48H259a48 48 0 1 0 0 96zm563 360h-93l46-117zM475 567c-43-42-69-99-72-159h143c-3 60-28 117-71 159z" fill="currentColor"/></svg>
