<svg xmlns="http://www.w3.org/2000/svg" width="186.795" height="186.795" viewBox="0 0 186.795 186.795">
  <g id="malt-red" transform="translate(0 -25.351)">
    <path id="Tracé_1" data-name="Tracé 1" d="M159.852,52.3c-14.1-14.1-29.162-4.974-38.588,4.452L32.22,145.8c-9.426,9.425-19.292,23.746-4.452,38.584s29.161,4.975,38.585-4.451L155.4,90.891C164.825,81.464,173.951,66.4,159.852,52.3Z" fill="#000"/>
    <path id="Tracé_2" data-name="Tracé 2" d="M74.78,48.657,93.635,67.511l19.192-19.192c1.3-1.306,2.626-2.518,3.957-3.661-2.01-10.14-7.8-19.307-23.158-19.307-15.391,0-21.17,9.2-23.169,19.365C71.894,45.959,73.328,47.205,74.78,48.657Z" fill="#000"/>
    <path id="Tracé_3" data-name="Tracé 3" d="M112.816,188.71l-19.18-19.181L74.791,188.372c-1.431,1.432-2.855,2.74-4.273,3.969,2.161,10.337,8.277,19.8,23.11,19.8,14.872,0,20.98-9.519,23.127-19.889C115.436,191.122,114.116,190.009,112.816,188.71Z" fill="#000"/>
    <path id="Tracé_4" data-name="Tracé 4" d="M66.783,94.364H30.433C17.1,94.364,0,98.563,0,118.5c0,14.877,9.522,20.986,19.894,23.132C21.122,140.215,66.783,94.364,66.783,94.364Z" fill="#000"/>
    <path id="Tracé_5" data-name="Tracé 5" d="M167.435,95.332c-1.15,1.338-46.907,47.3-46.907,47.3h35.834c13.329,0,30.433-3.149,30.433-24.136C186.795,103.112,177.6,97.33,167.435,95.332Z" fill="#000"/>
    <path id="Tracé_6" data-name="Tracé 6" d="M78.693,82.432l6.494-6.494L66.344,57.092C56.917,47.667,42.6,37.8,27.758,52.64c-10.882,10.882-8.465,21.473-2.693,30.071C26.823,82.581,78.693,82.432,78.693,82.432Z" fill="#000"/>
    <path id="Tracé_7" data-name="Tracé 7" d="M108.571,154.569l-6.511,6.511,19.194,19.192c9.426,9.427,24.488,18.551,38.586,4.453,10.52-10.521,8.106-21.571,2.29-30.423C160.258,154.437,108.571,154.569,108.571,154.569Z" fill="#000"/>
  </g>
</svg>
